M48
; DRILL file {KiCad (5.1.5)-3} date 19/06/2020 21:22:46
; FORMAT={-:-/ absolute / inch / decimal}
; #@! TF.CreationDate,2020-06-19T21:22:46-03:00
; #@! TF.GenerationSoftware,Kicad,Pcbnew,(5.1.5)-3
; #@! TF.FileFunction,Plated,1,2,PTH
FMAT,2
INCH
T1C0.0276
T2C0.0315
T3C0.0350
T4C0.0354
T5C0.0394
T6C0.0472
T7C0.0512
T8C0.0791
%
G90
G05
T1
X4.65Y-4.9
X7.65Y-3.65
X7.65Y-3.85
X5.25Y-4.3
X5.25Y-4.5
X6.1411Y-3.6821
X6.3411Y-3.6821
X5.1Y-4.9
X5.3Y-4.9
X2.45Y-4.2
X2.45Y-4.4
X3.75Y-4.3
X3.95Y-4.3
X3.65Y-3.8
X3.65Y-4.0
X3.65Y-3.45
X3.65Y-3.65
X5.75Y-2.95
X5.75Y-3.15
X7.05Y-4.0
X7.25Y-4.0
X4.85Y-4.9
X7.75Y-3.0
X7.95Y-3.0
X6.0Y-2.95
X6.0Y-3.15
X5.15Y-3.5
X5.35Y-3.5
X7.5Y-4.45
X7.5Y-4.65
T2
X3.0Y-4.2
X3.0Y-4.5
X3.1Y-4.2
X3.1Y-4.5
X3.2Y-4.2
X3.2Y-4.5
X3.3Y-4.2
X3.3Y-4.5
X4.75Y-3.8
X4.8484Y-3.8
X4.15Y-3.55
X4.15Y-3.65
X4.15Y-3.75
X4.15Y-3.85
X4.45Y-3.55
X4.45Y-3.65
X4.45Y-3.75
X4.45Y-3.85
X3.15Y-4.75
X3.15Y-4.8484
X4.3Y-4.4
X4.3984Y-4.4
X4.3Y-4.8
X4.3984Y-4.8
X5.7Y-4.25
X5.7Y-4.35
X5.7Y-4.45
X5.7Y-4.55
X6.0Y-4.25
X6.0Y-4.35
X6.0Y-4.45
X6.0Y-4.55
X5.6Y-4.95
X5.6984Y-4.95
X6.55Y-4.3
X6.55Y-4.4
X6.55Y-4.5
X6.55Y-4.6
X6.85Y-4.3
X6.85Y-4.4
X6.85Y-4.5
X6.85Y-4.6
X4.4Y-3.1516
X4.4Y-3.25
X3.0516Y-3.85
X3.15Y-3.85
X5.1Y-2.85
X5.1Y-2.95
X5.1Y-3.05
X5.1Y-3.15
X5.4Y-2.85
X5.4Y-2.95
X5.4Y-3.05
X5.4Y-3.15
X4.95Y-4.3516
X4.95Y-4.45
X4.35Y-2.85
X4.4484Y-2.85
X6.95Y-2.95
X6.95Y-3.25
X7.05Y-2.95
X7.05Y-3.25
X7.15Y-2.95
X7.15Y-3.25
X7.25Y-2.95
X7.25Y-3.25
X3.9Y-2.85
X3.9984Y-2.85
X3.95Y-3.1516
X3.95Y-3.25
T3
X8.2Y-4.45
X8.2Y-4.55
T4
X7.85Y-5.45
X8.0075Y-5.45
X8.165Y-5.45
X2.45Y-4.9
X2.45Y-5.0
X7.1063Y-5.45
X7.2638Y-5.45
X7.4213Y-5.45
X2.4Y-3.5787
X2.4Y-3.7362
X2.4Y-3.8937
T6
X7.7713Y-5.3811
X7.7713Y-5.6173
X8.2437Y-5.3811
X8.2437Y-5.6173
X7.0276Y-5.3811
X7.0276Y-5.6173
X7.5Y-5.3811
X7.5Y-5.6173
X2.2327Y-3.5
X2.2327Y-3.9724
X2.4689Y-3.5
X2.4689Y-3.9724
T7
X6.25Y-5.5
X6.4469Y-5.5
X6.6437Y-5.5
X3.1Y-2.5
X3.1Y-3.3858
X2.9563Y-5.3
X2.9563Y-5.4969
X3.1531Y-5.3
X3.1531Y-5.4969
X3.35Y-5.3
X3.35Y-5.4969
X4.15Y-5.5
X4.3469Y-5.5
X4.5437Y-5.5
X5.2Y-5.5
X5.3969Y-5.5
X5.5937Y-5.5
T8
X8.4Y-4.35
X8.4Y-4.75
T5
G00X2.3138Y-3.0106
M15
G01X2.3138Y-3.0894
M16
G05
G00X2.3925Y-3.235
M15
G01X2.4713Y-3.235
M16
G05
G00X2.55Y-3.0106
M15
G01X2.55Y-3.0894
M16
G05
T0
M30
