G04 #@! TF.GenerationSoftware,KiCad,Pcbnew,(5.1.5)-3*
G04 #@! TF.CreationDate,2020-06-19T21:21:12-03:00*
G04 #@! TF.ProjectId,gerador_de_funcoes,67657261-646f-4725-9f64-655f66756e63,rev?*
G04 #@! TF.SameCoordinates,Original*
G04 #@! TF.FileFunction,Copper,L1,Top*
G04 #@! TF.FilePolarity,Positive*
%FSLAX46Y46*%
G04 Gerber Fmt 4.6, Leading zero omitted, Abs format (unit mm)*
G04 Created by KiCad (PCBNEW (5.1.5)-3) date 2020-06-19 21:21:12*
%MOMM*%
%LPD*%
G04 APERTURE LIST*
%ADD10R,1.600000X1.600000*%
%ADD11C,1.600000*%
%ADD12R,1.800000X1.800000*%
%ADD13C,1.800000*%
%ADD14C,3.000000*%
%ADD15R,3.500000X3.500000*%
%ADD16C,0.100000*%
%ADD17O,7.000000X3.500000*%
%ADD18O,2.500000X1.600000*%
%ADD19O,1.400000X1.400000*%
%ADD20C,1.400000*%
%ADD21C,2.340000*%
%ADD22C,1.700000*%
%ADD23C,2.000000*%
%ADD24O,1.600000X1.600000*%
%ADD25O,2.400000X1.600000*%
%ADD26R,2.400000X1.600000*%
%ADD27R,1.600000X2.400000*%
%ADD28O,1.600000X2.400000*%
%ADD29C,0.300000*%
G04 APERTURE END LIST*
D10*
X111760000Y-82550000D03*
D11*
X111760000Y-80050000D03*
X100330000Y-80050000D03*
D10*
X100330000Y-82550000D03*
D11*
X112990000Y-72390000D03*
D10*
X110490000Y-72390000D03*
X99060000Y-72390000D03*
D11*
X101560000Y-72390000D03*
D10*
X120650000Y-96520000D03*
D11*
X123150000Y-96520000D03*
X125730000Y-110530000D03*
D10*
X125730000Y-113030000D03*
X144740000Y-125730000D03*
D11*
X142240000Y-125730000D03*
X111720000Y-121920000D03*
D10*
X109220000Y-121920000D03*
X109220000Y-111760000D03*
D11*
X111720000Y-111760000D03*
X77510000Y-97790000D03*
D10*
X80010000Y-97790000D03*
X80010000Y-120650000D03*
D11*
X80010000Y-123150000D03*
D12*
X62230000Y-127000000D03*
D13*
X62230000Y-124460000D03*
D14*
X78740000Y-86000000D03*
X78740000Y-63500000D03*
D15*
X64770000Y-77470000D03*
G04 #@! TA.AperFunction,ComponentPad*
D16*
G36*
X59593513Y-75723611D02*
G01*
X59666318Y-75734411D01*
X59737714Y-75752295D01*
X59807013Y-75777090D01*
X59873548Y-75808559D01*
X59936678Y-75846398D01*
X59995795Y-75890242D01*
X60050330Y-75939670D01*
X60099758Y-75994205D01*
X60143602Y-76053322D01*
X60181441Y-76116452D01*
X60212910Y-76182987D01*
X60237705Y-76252286D01*
X60255589Y-76323682D01*
X60266389Y-76396487D01*
X60270000Y-76470000D01*
X60270000Y-78470000D01*
X60266389Y-78543513D01*
X60255589Y-78616318D01*
X60237705Y-78687714D01*
X60212910Y-78757013D01*
X60181441Y-78823548D01*
X60143602Y-78886678D01*
X60099758Y-78945795D01*
X60050330Y-79000330D01*
X59995795Y-79049758D01*
X59936678Y-79093602D01*
X59873548Y-79131441D01*
X59807013Y-79162910D01*
X59737714Y-79187705D01*
X59666318Y-79205589D01*
X59593513Y-79216389D01*
X59520000Y-79220000D01*
X58020000Y-79220000D01*
X57946487Y-79216389D01*
X57873682Y-79205589D01*
X57802286Y-79187705D01*
X57732987Y-79162910D01*
X57666452Y-79131441D01*
X57603322Y-79093602D01*
X57544205Y-79049758D01*
X57489670Y-79000330D01*
X57440242Y-78945795D01*
X57396398Y-78886678D01*
X57358559Y-78823548D01*
X57327090Y-78757013D01*
X57302295Y-78687714D01*
X57284411Y-78616318D01*
X57273611Y-78543513D01*
X57270000Y-78470000D01*
X57270000Y-76470000D01*
X57273611Y-76396487D01*
X57284411Y-76323682D01*
X57302295Y-76252286D01*
X57327090Y-76182987D01*
X57358559Y-76116452D01*
X57396398Y-76053322D01*
X57440242Y-75994205D01*
X57489670Y-75939670D01*
X57544205Y-75890242D01*
X57603322Y-75846398D01*
X57666452Y-75808559D01*
X57732987Y-75777090D01*
X57802286Y-75752295D01*
X57873682Y-75734411D01*
X57946487Y-75723611D01*
X58020000Y-75720000D01*
X59520000Y-75720000D01*
X59593513Y-75723611D01*
G37*
G04 #@! TD.AperFunction*
G04 #@! TA.AperFunction,ComponentPad*
G36*
X62730765Y-80424213D02*
G01*
X62815704Y-80436813D01*
X62898999Y-80457677D01*
X62979848Y-80486605D01*
X63057472Y-80523319D01*
X63131124Y-80567464D01*
X63200094Y-80618616D01*
X63263718Y-80676282D01*
X63321384Y-80739906D01*
X63372536Y-80808876D01*
X63416681Y-80882528D01*
X63453395Y-80960152D01*
X63482323Y-81041001D01*
X63503187Y-81124296D01*
X63515787Y-81209235D01*
X63520000Y-81295000D01*
X63520000Y-83045000D01*
X63515787Y-83130765D01*
X63503187Y-83215704D01*
X63482323Y-83298999D01*
X63453395Y-83379848D01*
X63416681Y-83457472D01*
X63372536Y-83531124D01*
X63321384Y-83600094D01*
X63263718Y-83663718D01*
X63200094Y-83721384D01*
X63131124Y-83772536D01*
X63057472Y-83816681D01*
X62979848Y-83853395D01*
X62898999Y-83882323D01*
X62815704Y-83903187D01*
X62730765Y-83915787D01*
X62645000Y-83920000D01*
X60895000Y-83920000D01*
X60809235Y-83915787D01*
X60724296Y-83903187D01*
X60641001Y-83882323D01*
X60560152Y-83853395D01*
X60482528Y-83816681D01*
X60408876Y-83772536D01*
X60339906Y-83721384D01*
X60276282Y-83663718D01*
X60218616Y-83600094D01*
X60167464Y-83531124D01*
X60123319Y-83457472D01*
X60086605Y-83379848D01*
X60057677Y-83298999D01*
X60036813Y-83215704D01*
X60024213Y-83130765D01*
X60020000Y-83045000D01*
X60020000Y-81295000D01*
X60024213Y-81209235D01*
X60036813Y-81124296D01*
X60057677Y-81041001D01*
X60086605Y-80960152D01*
X60123319Y-80882528D01*
X60167464Y-80808876D01*
X60218616Y-80739906D01*
X60276282Y-80676282D01*
X60339906Y-80618616D01*
X60408876Y-80567464D01*
X60482528Y-80523319D01*
X60560152Y-80486605D01*
X60641001Y-80457677D01*
X60724296Y-80436813D01*
X60809235Y-80424213D01*
X60895000Y-80420000D01*
X62645000Y-80420000D01*
X62730765Y-80424213D01*
G37*
G04 #@! TD.AperFunction*
D17*
X213360000Y-110490000D03*
X213360000Y-120650000D03*
D18*
X208280000Y-115570000D03*
X208280000Y-113030000D03*
D19*
X62230000Y-111760000D03*
D20*
X62230000Y-106680000D03*
X100330000Y-109220000D03*
D19*
X95250000Y-109220000D03*
D20*
X92710000Y-96520000D03*
D19*
X92710000Y-101600000D03*
X92710000Y-92710000D03*
D20*
X92710000Y-87630000D03*
X130810000Y-88900000D03*
D19*
X135890000Y-88900000D03*
D20*
X152400000Y-74930000D03*
D19*
X152400000Y-80010000D03*
X146050000Y-74930000D03*
D20*
X146050000Y-80010000D03*
X155985000Y-93525000D03*
D19*
X161065000Y-93525000D03*
X133350000Y-109220000D03*
D20*
X133350000Y-114300000D03*
D19*
X123190000Y-124460000D03*
D20*
X118110000Y-124460000D03*
D19*
X134620000Y-124460000D03*
D20*
X129540000Y-124460000D03*
X196850000Y-76200000D03*
D19*
X201930000Y-76200000D03*
D20*
X194310000Y-92710000D03*
D19*
X194310000Y-97790000D03*
X190500000Y-118110000D03*
D20*
X190500000Y-113030000D03*
X179070000Y-101600000D03*
D19*
X184150000Y-101600000D03*
D21*
X115410000Y-139700000D03*
X110410000Y-139700000D03*
X105410000Y-139700000D03*
X132080000Y-139700000D03*
X137080000Y-139700000D03*
X142080000Y-139700000D03*
X168750000Y-139700000D03*
X163750000Y-139700000D03*
X158750000Y-139700000D03*
X85090000Y-139620000D03*
X80090000Y-139620000D03*
X75090000Y-139620000D03*
X85090000Y-134620000D03*
X80090000Y-134620000D03*
X75090000Y-134620000D03*
D22*
X60960000Y-98900000D03*
X60960000Y-94900000D03*
X60960000Y-90900000D03*
D23*
X56710000Y-88900000D03*
X56710000Y-100900000D03*
X62710000Y-100900000D03*
X62710000Y-88900000D03*
X178500000Y-136680000D03*
X190500000Y-136680000D03*
X190500000Y-142680000D03*
X178500000Y-142680000D03*
D22*
X180500000Y-138430000D03*
X184500000Y-138430000D03*
X188500000Y-138430000D03*
D23*
X197390000Y-136680000D03*
X209390000Y-136680000D03*
X209390000Y-142680000D03*
X197390000Y-142680000D03*
D22*
X199390000Y-138430000D03*
X203390000Y-138430000D03*
X207390000Y-138430000D03*
D10*
X105410000Y-90170000D03*
D24*
X113030000Y-97790000D03*
X105410000Y-92710000D03*
X113030000Y-95250000D03*
X105410000Y-95250000D03*
X113030000Y-92710000D03*
X105410000Y-97790000D03*
X113030000Y-90170000D03*
D25*
X137160000Y-72390000D03*
X129540000Y-80010000D03*
X137160000Y-74930000D03*
X129540000Y-77470000D03*
X137160000Y-77470000D03*
X129540000Y-74930000D03*
X137160000Y-80010000D03*
D26*
X129540000Y-72390000D03*
D25*
X152400000Y-107950000D03*
X144780000Y-115570000D03*
X152400000Y-110490000D03*
X144780000Y-113030000D03*
X152400000Y-113030000D03*
X144780000Y-110490000D03*
X152400000Y-115570000D03*
D26*
X144780000Y-107950000D03*
D27*
X83820000Y-106680000D03*
D28*
X76200000Y-114300000D03*
X81280000Y-106680000D03*
X78740000Y-114300000D03*
X78740000Y-106680000D03*
X81280000Y-114300000D03*
X76200000Y-106680000D03*
X83820000Y-114300000D03*
D24*
X184150000Y-82550000D03*
X176530000Y-74930000D03*
X181610000Y-82550000D03*
X179070000Y-74930000D03*
X179070000Y-82550000D03*
X181610000Y-74930000D03*
X176530000Y-82550000D03*
D10*
X184150000Y-74930000D03*
D26*
X166370000Y-109220000D03*
D25*
X173990000Y-116840000D03*
X166370000Y-111760000D03*
X173990000Y-114300000D03*
X166370000Y-114300000D03*
X173990000Y-111760000D03*
X166370000Y-116840000D03*
X173990000Y-109220000D03*
D29*
X142240000Y-125730000D02*
X129380000Y-125730000D01*
X129380000Y-125730000D02*
X115410000Y-139700000D01*
X115410000Y-139700000D02*
X111850500Y-136140500D01*
X111850500Y-136140500D02*
X72620800Y-136140500D01*
X72620800Y-136140500D02*
X63480300Y-127000000D01*
X82414900Y-96793100D02*
X65688100Y-80066300D01*
X65688100Y-80066300D02*
X61366300Y-80066300D01*
X61366300Y-80066300D02*
X58770000Y-77470000D01*
X105410000Y-90170000D02*
X89038000Y-90170000D01*
X89038000Y-90170000D02*
X82414900Y-96793100D01*
X78740000Y-105129700D02*
X82414900Y-101454800D01*
X82414900Y-101454800D02*
X82414900Y-96793100D01*
X78740000Y-106680000D02*
X78740000Y-105129700D01*
X62230000Y-127000000D02*
X63480300Y-127000000D01*
X63480300Y-127000000D02*
X69830300Y-120650000D01*
X69830300Y-120650000D02*
X80010000Y-120650000D01*
X101073000Y-73540300D02*
X101073000Y-79307100D01*
X101073000Y-79307100D02*
X100330000Y-80050000D01*
X110490000Y-72390000D02*
X109340000Y-72390000D01*
X109340000Y-72390000D02*
X108189000Y-73540300D01*
X108189000Y-73540300D02*
X101073000Y-73540300D01*
X99060000Y-72390000D02*
X100210000Y-72390000D01*
X100210000Y-72390000D02*
X100210000Y-72677700D01*
X100210000Y-72677700D02*
X101073000Y-73540300D01*
X113030000Y-95250000D02*
X113030000Y-94099700D01*
X113030000Y-94099700D02*
X113318000Y-94099700D01*
X113318000Y-94099700D02*
X114200000Y-93217500D01*
X114200000Y-93217500D02*
X114200000Y-92220700D01*
X114200000Y-92220700D02*
X113525000Y-91545500D01*
X113525000Y-91545500D02*
X107725000Y-91545500D01*
X107725000Y-91545500D02*
X106560000Y-92710000D01*
X106560000Y-92710000D02*
X105410000Y-92710000D01*
X80090000Y-139620000D02*
X85090000Y-139620000D01*
X113030000Y-92710000D02*
X111880000Y-92710000D01*
X111880000Y-92710000D02*
X109340000Y-95250000D01*
X109340000Y-95250000D02*
X105410000Y-95250000D01*
X100330000Y-109220000D02*
X100330000Y-101242000D01*
X100330000Y-101242000D02*
X105172000Y-96400300D01*
X105172000Y-96400300D02*
X105410000Y-96400300D01*
X105410000Y-96400300D02*
X105410000Y-95250000D01*
X155985000Y-93525000D02*
X152990000Y-96520000D01*
X152990000Y-96520000D02*
X123150000Y-96520000D01*
X133350000Y-109220000D02*
X127040000Y-109220000D01*
X127040000Y-109220000D02*
X125730000Y-110530000D01*
X133350000Y-109220000D02*
X134400000Y-109220000D01*
X134400000Y-109220000D02*
X135670000Y-107950000D01*
X135670000Y-107950000D02*
X144780000Y-107950000D01*
X188500000Y-138430000D02*
X188500000Y-136943000D01*
X188500000Y-136943000D02*
X167127000Y-115570000D01*
X167127000Y-115570000D02*
X159680000Y-115570000D01*
X159680000Y-115570000D02*
X153450000Y-109340000D01*
X153450000Y-109340000D02*
X151376000Y-109340000D01*
X151376000Y-109340000D02*
X149986000Y-107950000D01*
X149986000Y-107950000D02*
X144780000Y-107950000D01*
X144780000Y-110490000D02*
X143230000Y-110490000D01*
X143230000Y-110490000D02*
X139420000Y-114300000D01*
X139420000Y-114300000D02*
X133350000Y-114300000D01*
X133350000Y-114300000D02*
X128150000Y-114300000D01*
X128150000Y-114300000D02*
X126880000Y-113030000D01*
X126880000Y-113030000D02*
X125730000Y-113030000D01*
X134620000Y-124460000D02*
X142607000Y-124460000D01*
X142607000Y-124460000D02*
X143590000Y-125442000D01*
X143590000Y-125442000D02*
X143590000Y-125730000D01*
X143590000Y-125730000D02*
X144740000Y-125730000D01*
X152400000Y-110490000D02*
X150850000Y-110490000D01*
X150850000Y-110490000D02*
X149674000Y-109314000D01*
X149674000Y-109314000D02*
X137628000Y-109314000D01*
X137628000Y-109314000D02*
X135182000Y-111760000D01*
X135182000Y-111760000D02*
X111720000Y-111760000D01*
X152400000Y-113030000D02*
X153950000Y-113030000D01*
X153950000Y-113030000D02*
X153950000Y-112040000D01*
X153950000Y-112040000D02*
X152400000Y-110490000D01*
X80090000Y-134620000D02*
X85090000Y-134620000D01*
X85090000Y-134620000D02*
X95369700Y-134620000D01*
X95369700Y-134620000D02*
X108070000Y-121920000D01*
X108070000Y-121920000D02*
X109220000Y-121920000D01*
X81737300Y-119837000D02*
X81737300Y-121423000D01*
X81737300Y-121423000D02*
X80010000Y-123150000D01*
X76200000Y-114300000D02*
X76200000Y-115850000D01*
X76200000Y-115850000D02*
X77750300Y-115850000D01*
X77750300Y-115850000D02*
X81737300Y-119837000D01*
X110538000Y-115570000D02*
X110538000Y-102888000D01*
X110538000Y-102888000D02*
X127990000Y-85436300D01*
X127990000Y-85436300D02*
X127990000Y-80010000D01*
X127990000Y-80010000D02*
X129540000Y-80010000D01*
X144780000Y-115570000D02*
X110538000Y-115570000D01*
X147600000Y-116840000D02*
X147600000Y-134180000D01*
X147600000Y-134180000D02*
X142080000Y-139700000D01*
X166370000Y-116840000D02*
X147600000Y-116840000D01*
X144780000Y-115570000D02*
X146330000Y-115570000D01*
X146330000Y-115570000D02*
X147600000Y-116840000D01*
X176530000Y-74930000D02*
X175380000Y-74930000D01*
X175380000Y-74930000D02*
X174229000Y-76080300D01*
X174229000Y-76080300D02*
X135020000Y-76080300D01*
X135020000Y-76080300D02*
X131090000Y-80010000D01*
X131090000Y-80010000D02*
X129540000Y-80010000D01*
X81737300Y-119837000D02*
X106271000Y-119837000D01*
X106271000Y-119837000D02*
X110538000Y-115570000D01*
X208280000Y-115570000D02*
X206680000Y-115570000D01*
X206680000Y-115570000D02*
X205410000Y-114300000D01*
X205410000Y-114300000D02*
X173990000Y-114300000D01*
X173990000Y-114300000D02*
X172440000Y-114300000D01*
X172440000Y-114300000D02*
X169900000Y-111760000D01*
X169900000Y-111760000D02*
X166370000Y-111760000D01*
X173990000Y-111760000D02*
X172440000Y-111760000D01*
X172440000Y-111760000D02*
X168630000Y-107950000D01*
X137160000Y-72390000D02*
X138710000Y-72390000D01*
X138710000Y-72390000D02*
X140100000Y-73779600D01*
X140100000Y-73779600D02*
X152400000Y-73779600D01*
X113030000Y-90170000D02*
X114180000Y-90170000D01*
X114180000Y-90170000D02*
X125610000Y-78740000D01*
X125610000Y-78740000D02*
X130336000Y-78740000D01*
X130336000Y-78740000D02*
X135610000Y-73466000D01*
X135610000Y-73466000D02*
X135610000Y-72390000D01*
X135610000Y-72390000D02*
X137160000Y-72390000D01*
X184150000Y-82550000D02*
X184150000Y-83700300D01*
X184150000Y-83700300D02*
X168630000Y-99220600D01*
X168630000Y-99220600D02*
X168630000Y-107950000D01*
X168630000Y-107950000D02*
X152400000Y-107950000D01*
X184150000Y-82550000D02*
X184150000Y-81399700D01*
X184150000Y-81399700D02*
X183862000Y-81399700D01*
X183862000Y-81399700D02*
X177800000Y-75337300D01*
X177800000Y-75337300D02*
X177800000Y-74535900D01*
X177800000Y-74535900D02*
X177044000Y-73779600D01*
X177044000Y-73779600D02*
X152400000Y-73779600D01*
X152400000Y-74930000D02*
X152400000Y-73779600D01*
X83820000Y-114300000D02*
X83820000Y-112750000D01*
X83820000Y-112750000D02*
X68299700Y-112750000D01*
X68299700Y-112750000D02*
X62230000Y-106680000D01*
X92710000Y-101600000D02*
X92710000Y-102650000D01*
X92710000Y-102650000D02*
X95250000Y-105190000D01*
X95250000Y-105190000D02*
X95250000Y-109220000D01*
X140646000Y-80010000D02*
X146050000Y-80010000D01*
X137160000Y-77470000D02*
X138710000Y-77470000D01*
X138710000Y-77470000D02*
X140646000Y-79405700D01*
X140646000Y-79405700D02*
X140646000Y-80010000D01*
X152400000Y-80010000D02*
X146050000Y-80010000D01*
X135890000Y-88900000D02*
X135890000Y-87849700D01*
X135890000Y-87849700D02*
X140646000Y-83093700D01*
X140646000Y-83093700D02*
X140646000Y-80010000D01*
X137160000Y-74930000D02*
X146050000Y-74930000D01*
X129540000Y-124460000D02*
X123190000Y-124460000D01*
X195380000Y-76200000D02*
X195380000Y-95669300D01*
X195380000Y-95669300D02*
X194310000Y-96739700D01*
X194310000Y-96739700D02*
X194310000Y-97790000D01*
X181610000Y-74930000D02*
X182760000Y-74930000D01*
X182760000Y-74930000D02*
X182760000Y-75648900D01*
X182760000Y-75648900D02*
X183311000Y-76200000D01*
X183311000Y-76200000D02*
X195380000Y-76200000D01*
X195380000Y-76200000D02*
X196850000Y-76200000D01*
X105410000Y-139700000D02*
X106930000Y-141220000D01*
X106930000Y-141220000D02*
X200600000Y-141220000D01*
X200600000Y-141220000D02*
X203390000Y-138430000D01*
X203390000Y-138430000D02*
X203390000Y-125040000D01*
X203390000Y-125040000D02*
X209930000Y-118500000D01*
X209930000Y-118500000D02*
X209930000Y-112300000D01*
X209930000Y-112300000D02*
X201930000Y-104300000D01*
X201930000Y-104300000D02*
X201930000Y-76200000D01*
X184150000Y-101600000D02*
X185200000Y-101600000D01*
X185200000Y-101600000D02*
X194090000Y-92710000D01*
X194090000Y-92710000D02*
X194310000Y-92710000D01*
X163750000Y-139700000D02*
X168750000Y-139700000D01*
X199390000Y-138430000D02*
X198189000Y-139631000D01*
X198189000Y-139631000D02*
X185701000Y-139631000D01*
X185701000Y-139631000D02*
X184500000Y-138430000D01*
M02*
