G04 #@! TF.GenerationSoftware,KiCad,Pcbnew,(5.1.5)-3*
G04 #@! TF.CreationDate,2020-06-19T21:21:12-03:00*
G04 #@! TF.ProjectId,gerador_de_funcoes,67657261-646f-4725-9f64-655f66756e63,rev?*
G04 #@! TF.SameCoordinates,Original*
G04 #@! TF.FileFunction,Soldermask,Bot*
G04 #@! TF.FilePolarity,Negative*
%FSLAX46Y46*%
G04 Gerber Fmt 4.6, Leading zero omitted, Abs format (unit mm)*
G04 Created by KiCad (PCBNEW (5.1.5)-3) date 2020-06-19 21:21:12*
%MOMM*%
%LPD*%
G04 APERTURE LIST*
%ADD10C,0.100000*%
G04 APERTURE END LIST*
D10*
G36*
X209696564Y-141669389D02*
G01*
X209887833Y-141748615D01*
X209887835Y-141748616D01*
X210059973Y-141863635D01*
X210206365Y-142010027D01*
X210321385Y-142182167D01*
X210400611Y-142373436D01*
X210441000Y-142576484D01*
X210441000Y-142783516D01*
X210400611Y-142986564D01*
X210321385Y-143177833D01*
X210321384Y-143177835D01*
X210206365Y-143349973D01*
X210059973Y-143496365D01*
X209887835Y-143611384D01*
X209887834Y-143611385D01*
X209887833Y-143611385D01*
X209696564Y-143690611D01*
X209493516Y-143731000D01*
X209286484Y-143731000D01*
X209083436Y-143690611D01*
X208892167Y-143611385D01*
X208892166Y-143611385D01*
X208892165Y-143611384D01*
X208720027Y-143496365D01*
X208573635Y-143349973D01*
X208458616Y-143177835D01*
X208458615Y-143177833D01*
X208379389Y-142986564D01*
X208339000Y-142783516D01*
X208339000Y-142576484D01*
X208379389Y-142373436D01*
X208458615Y-142182167D01*
X208573635Y-142010027D01*
X208720027Y-141863635D01*
X208892165Y-141748616D01*
X208892167Y-141748615D01*
X209083436Y-141669389D01*
X209286484Y-141629000D01*
X209493516Y-141629000D01*
X209696564Y-141669389D01*
G37*
G36*
X197696564Y-141669389D02*
G01*
X197887833Y-141748615D01*
X197887835Y-141748616D01*
X198059973Y-141863635D01*
X198206365Y-142010027D01*
X198321385Y-142182167D01*
X198400611Y-142373436D01*
X198441000Y-142576484D01*
X198441000Y-142783516D01*
X198400611Y-142986564D01*
X198321385Y-143177833D01*
X198321384Y-143177835D01*
X198206365Y-143349973D01*
X198059973Y-143496365D01*
X197887835Y-143611384D01*
X197887834Y-143611385D01*
X197887833Y-143611385D01*
X197696564Y-143690611D01*
X197493516Y-143731000D01*
X197286484Y-143731000D01*
X197083436Y-143690611D01*
X196892167Y-143611385D01*
X196892166Y-143611385D01*
X196892165Y-143611384D01*
X196720027Y-143496365D01*
X196573635Y-143349973D01*
X196458616Y-143177835D01*
X196458615Y-143177833D01*
X196379389Y-142986564D01*
X196339000Y-142783516D01*
X196339000Y-142576484D01*
X196379389Y-142373436D01*
X196458615Y-142182167D01*
X196573635Y-142010027D01*
X196720027Y-141863635D01*
X196892165Y-141748616D01*
X196892167Y-141748615D01*
X197083436Y-141669389D01*
X197286484Y-141629000D01*
X197493516Y-141629000D01*
X197696564Y-141669389D01*
G37*
G36*
X178806564Y-141669389D02*
G01*
X178997833Y-141748615D01*
X178997835Y-141748616D01*
X179169973Y-141863635D01*
X179316365Y-142010027D01*
X179431385Y-142182167D01*
X179510611Y-142373436D01*
X179551000Y-142576484D01*
X179551000Y-142783516D01*
X179510611Y-142986564D01*
X179431385Y-143177833D01*
X179431384Y-143177835D01*
X179316365Y-143349973D01*
X179169973Y-143496365D01*
X178997835Y-143611384D01*
X178997834Y-143611385D01*
X178997833Y-143611385D01*
X178806564Y-143690611D01*
X178603516Y-143731000D01*
X178396484Y-143731000D01*
X178193436Y-143690611D01*
X178002167Y-143611385D01*
X178002166Y-143611385D01*
X178002165Y-143611384D01*
X177830027Y-143496365D01*
X177683635Y-143349973D01*
X177568616Y-143177835D01*
X177568615Y-143177833D01*
X177489389Y-142986564D01*
X177449000Y-142783516D01*
X177449000Y-142576484D01*
X177489389Y-142373436D01*
X177568615Y-142182167D01*
X177683635Y-142010027D01*
X177830027Y-141863635D01*
X178002165Y-141748616D01*
X178002167Y-141748615D01*
X178193436Y-141669389D01*
X178396484Y-141629000D01*
X178603516Y-141629000D01*
X178806564Y-141669389D01*
G37*
G36*
X190806564Y-141669389D02*
G01*
X190997833Y-141748615D01*
X190997835Y-141748616D01*
X191169973Y-141863635D01*
X191316365Y-142010027D01*
X191431385Y-142182167D01*
X191510611Y-142373436D01*
X191551000Y-142576484D01*
X191551000Y-142783516D01*
X191510611Y-142986564D01*
X191431385Y-143177833D01*
X191431384Y-143177835D01*
X191316365Y-143349973D01*
X191169973Y-143496365D01*
X190997835Y-143611384D01*
X190997834Y-143611385D01*
X190997833Y-143611385D01*
X190806564Y-143690611D01*
X190603516Y-143731000D01*
X190396484Y-143731000D01*
X190193436Y-143690611D01*
X190002167Y-143611385D01*
X190002166Y-143611385D01*
X190002165Y-143611384D01*
X189830027Y-143496365D01*
X189683635Y-143349973D01*
X189568616Y-143177835D01*
X189568615Y-143177833D01*
X189489389Y-142986564D01*
X189449000Y-142783516D01*
X189449000Y-142576484D01*
X189489389Y-142373436D01*
X189568615Y-142182167D01*
X189683635Y-142010027D01*
X189830027Y-141863635D01*
X190002165Y-141748616D01*
X190002167Y-141748615D01*
X190193436Y-141669389D01*
X190396484Y-141629000D01*
X190603516Y-141629000D01*
X190806564Y-141669389D01*
G37*
G36*
X142318205Y-138502461D02*
G01*
X142436153Y-138525922D01*
X142528194Y-138564047D01*
X142658359Y-138617963D01*
X142858342Y-138751587D01*
X143028413Y-138921658D01*
X143162037Y-139121641D01*
X143206281Y-139228456D01*
X143248757Y-139331000D01*
X143254078Y-139343848D01*
X143301000Y-139579741D01*
X143301000Y-139820259D01*
X143254078Y-140056152D01*
X143162037Y-140278359D01*
X143028413Y-140478342D01*
X142858342Y-140648413D01*
X142658359Y-140782037D01*
X142528194Y-140835953D01*
X142436153Y-140874078D01*
X142200259Y-140921000D01*
X141959741Y-140921000D01*
X141723847Y-140874078D01*
X141631806Y-140835953D01*
X141501641Y-140782037D01*
X141301658Y-140648413D01*
X141131587Y-140478342D01*
X140997963Y-140278359D01*
X140905922Y-140056152D01*
X140859000Y-139820259D01*
X140859000Y-139579741D01*
X140905922Y-139343848D01*
X140911244Y-139331000D01*
X140953719Y-139228456D01*
X140997963Y-139121641D01*
X141131587Y-138921658D01*
X141301658Y-138751587D01*
X141501641Y-138617963D01*
X141631806Y-138564047D01*
X141723847Y-138525922D01*
X141841795Y-138502461D01*
X141959741Y-138479000D01*
X142200259Y-138479000D01*
X142318205Y-138502461D01*
G37*
G36*
X158988205Y-138502461D02*
G01*
X159106153Y-138525922D01*
X159198194Y-138564047D01*
X159328359Y-138617963D01*
X159528342Y-138751587D01*
X159698413Y-138921658D01*
X159832037Y-139121641D01*
X159876281Y-139228456D01*
X159918757Y-139331000D01*
X159924078Y-139343848D01*
X159971000Y-139579741D01*
X159971000Y-139820259D01*
X159924078Y-140056152D01*
X159832037Y-140278359D01*
X159698413Y-140478342D01*
X159528342Y-140648413D01*
X159328359Y-140782037D01*
X159198194Y-140835953D01*
X159106153Y-140874078D01*
X158870259Y-140921000D01*
X158629741Y-140921000D01*
X158393847Y-140874078D01*
X158301806Y-140835953D01*
X158171641Y-140782037D01*
X157971658Y-140648413D01*
X157801587Y-140478342D01*
X157667963Y-140278359D01*
X157575922Y-140056152D01*
X157529000Y-139820259D01*
X157529000Y-139579741D01*
X157575922Y-139343848D01*
X157581244Y-139331000D01*
X157623719Y-139228456D01*
X157667963Y-139121641D01*
X157801587Y-138921658D01*
X157971658Y-138751587D01*
X158171641Y-138617963D01*
X158301806Y-138564047D01*
X158393847Y-138525922D01*
X158511795Y-138502461D01*
X158629741Y-138479000D01*
X158870259Y-138479000D01*
X158988205Y-138502461D01*
G37*
G36*
X163988205Y-138502461D02*
G01*
X164106153Y-138525922D01*
X164198194Y-138564047D01*
X164328359Y-138617963D01*
X164528342Y-138751587D01*
X164698413Y-138921658D01*
X164832037Y-139121641D01*
X164876281Y-139228456D01*
X164918757Y-139331000D01*
X164924078Y-139343848D01*
X164971000Y-139579741D01*
X164971000Y-139820259D01*
X164924078Y-140056152D01*
X164832037Y-140278359D01*
X164698413Y-140478342D01*
X164528342Y-140648413D01*
X164328359Y-140782037D01*
X164198194Y-140835953D01*
X164106153Y-140874078D01*
X163870259Y-140921000D01*
X163629741Y-140921000D01*
X163393847Y-140874078D01*
X163301806Y-140835953D01*
X163171641Y-140782037D01*
X162971658Y-140648413D01*
X162801587Y-140478342D01*
X162667963Y-140278359D01*
X162575922Y-140056152D01*
X162529000Y-139820259D01*
X162529000Y-139579741D01*
X162575922Y-139343848D01*
X162581244Y-139331000D01*
X162623719Y-139228456D01*
X162667963Y-139121641D01*
X162801587Y-138921658D01*
X162971658Y-138751587D01*
X163171641Y-138617963D01*
X163301806Y-138564047D01*
X163393847Y-138525922D01*
X163511795Y-138502461D01*
X163629741Y-138479000D01*
X163870259Y-138479000D01*
X163988205Y-138502461D01*
G37*
G36*
X168988205Y-138502461D02*
G01*
X169106153Y-138525922D01*
X169198194Y-138564047D01*
X169328359Y-138617963D01*
X169528342Y-138751587D01*
X169698413Y-138921658D01*
X169832037Y-139121641D01*
X169876281Y-139228456D01*
X169918757Y-139331000D01*
X169924078Y-139343848D01*
X169971000Y-139579741D01*
X169971000Y-139820259D01*
X169924078Y-140056152D01*
X169832037Y-140278359D01*
X169698413Y-140478342D01*
X169528342Y-140648413D01*
X169328359Y-140782037D01*
X169198194Y-140835953D01*
X169106153Y-140874078D01*
X168870259Y-140921000D01*
X168629741Y-140921000D01*
X168393847Y-140874078D01*
X168301806Y-140835953D01*
X168171641Y-140782037D01*
X167971658Y-140648413D01*
X167801587Y-140478342D01*
X167667963Y-140278359D01*
X167575922Y-140056152D01*
X167529000Y-139820259D01*
X167529000Y-139579741D01*
X167575922Y-139343848D01*
X167581244Y-139331000D01*
X167623719Y-139228456D01*
X167667963Y-139121641D01*
X167801587Y-138921658D01*
X167971658Y-138751587D01*
X168171641Y-138617963D01*
X168301806Y-138564047D01*
X168393847Y-138525922D01*
X168511795Y-138502461D01*
X168629741Y-138479000D01*
X168870259Y-138479000D01*
X168988205Y-138502461D01*
G37*
G36*
X137318205Y-138502461D02*
G01*
X137436153Y-138525922D01*
X137528194Y-138564047D01*
X137658359Y-138617963D01*
X137858342Y-138751587D01*
X138028413Y-138921658D01*
X138162037Y-139121641D01*
X138206281Y-139228456D01*
X138248757Y-139331000D01*
X138254078Y-139343848D01*
X138301000Y-139579741D01*
X138301000Y-139820259D01*
X138254078Y-140056152D01*
X138162037Y-140278359D01*
X138028413Y-140478342D01*
X137858342Y-140648413D01*
X137658359Y-140782037D01*
X137528194Y-140835953D01*
X137436153Y-140874078D01*
X137200259Y-140921000D01*
X136959741Y-140921000D01*
X136723847Y-140874078D01*
X136631806Y-140835953D01*
X136501641Y-140782037D01*
X136301658Y-140648413D01*
X136131587Y-140478342D01*
X135997963Y-140278359D01*
X135905922Y-140056152D01*
X135859000Y-139820259D01*
X135859000Y-139579741D01*
X135905922Y-139343848D01*
X135911244Y-139331000D01*
X135953719Y-139228456D01*
X135997963Y-139121641D01*
X136131587Y-138921658D01*
X136301658Y-138751587D01*
X136501641Y-138617963D01*
X136631806Y-138564047D01*
X136723847Y-138525922D01*
X136841795Y-138502461D01*
X136959741Y-138479000D01*
X137200259Y-138479000D01*
X137318205Y-138502461D01*
G37*
G36*
X105648205Y-138502461D02*
G01*
X105766153Y-138525922D01*
X105858194Y-138564047D01*
X105988359Y-138617963D01*
X106188342Y-138751587D01*
X106358413Y-138921658D01*
X106492037Y-139121641D01*
X106536281Y-139228456D01*
X106578757Y-139331000D01*
X106584078Y-139343848D01*
X106631000Y-139579741D01*
X106631000Y-139820259D01*
X106584078Y-140056152D01*
X106492037Y-140278359D01*
X106358413Y-140478342D01*
X106188342Y-140648413D01*
X105988359Y-140782037D01*
X105858194Y-140835953D01*
X105766153Y-140874078D01*
X105530259Y-140921000D01*
X105289741Y-140921000D01*
X105053847Y-140874078D01*
X104961806Y-140835953D01*
X104831641Y-140782037D01*
X104631658Y-140648413D01*
X104461587Y-140478342D01*
X104327963Y-140278359D01*
X104235922Y-140056152D01*
X104189000Y-139820259D01*
X104189000Y-139579741D01*
X104235922Y-139343848D01*
X104241244Y-139331000D01*
X104283719Y-139228456D01*
X104327963Y-139121641D01*
X104461587Y-138921658D01*
X104631658Y-138751587D01*
X104831641Y-138617963D01*
X104961806Y-138564047D01*
X105053847Y-138525922D01*
X105171795Y-138502461D01*
X105289741Y-138479000D01*
X105530259Y-138479000D01*
X105648205Y-138502461D01*
G37*
G36*
X110648205Y-138502461D02*
G01*
X110766153Y-138525922D01*
X110858194Y-138564047D01*
X110988359Y-138617963D01*
X111188342Y-138751587D01*
X111358413Y-138921658D01*
X111492037Y-139121641D01*
X111536281Y-139228456D01*
X111578757Y-139331000D01*
X111584078Y-139343848D01*
X111631000Y-139579741D01*
X111631000Y-139820259D01*
X111584078Y-140056152D01*
X111492037Y-140278359D01*
X111358413Y-140478342D01*
X111188342Y-140648413D01*
X110988359Y-140782037D01*
X110858194Y-140835953D01*
X110766153Y-140874078D01*
X110530259Y-140921000D01*
X110289741Y-140921000D01*
X110053847Y-140874078D01*
X109961806Y-140835953D01*
X109831641Y-140782037D01*
X109631658Y-140648413D01*
X109461587Y-140478342D01*
X109327963Y-140278359D01*
X109235922Y-140056152D01*
X109189000Y-139820259D01*
X109189000Y-139579741D01*
X109235922Y-139343848D01*
X109241244Y-139331000D01*
X109283719Y-139228456D01*
X109327963Y-139121641D01*
X109461587Y-138921658D01*
X109631658Y-138751587D01*
X109831641Y-138617963D01*
X109961806Y-138564047D01*
X110053847Y-138525922D01*
X110171795Y-138502461D01*
X110289741Y-138479000D01*
X110530259Y-138479000D01*
X110648205Y-138502461D01*
G37*
G36*
X115648205Y-138502461D02*
G01*
X115766153Y-138525922D01*
X115858194Y-138564047D01*
X115988359Y-138617963D01*
X116188342Y-138751587D01*
X116358413Y-138921658D01*
X116492037Y-139121641D01*
X116536281Y-139228456D01*
X116578757Y-139331000D01*
X116584078Y-139343848D01*
X116631000Y-139579741D01*
X116631000Y-139820259D01*
X116584078Y-140056152D01*
X116492037Y-140278359D01*
X116358413Y-140478342D01*
X116188342Y-140648413D01*
X115988359Y-140782037D01*
X115858194Y-140835953D01*
X115766153Y-140874078D01*
X115530259Y-140921000D01*
X115289741Y-140921000D01*
X115053847Y-140874078D01*
X114961806Y-140835953D01*
X114831641Y-140782037D01*
X114631658Y-140648413D01*
X114461587Y-140478342D01*
X114327963Y-140278359D01*
X114235922Y-140056152D01*
X114189000Y-139820259D01*
X114189000Y-139579741D01*
X114235922Y-139343848D01*
X114241244Y-139331000D01*
X114283719Y-139228456D01*
X114327963Y-139121641D01*
X114461587Y-138921658D01*
X114631658Y-138751587D01*
X114831641Y-138617963D01*
X114961806Y-138564047D01*
X115053847Y-138525922D01*
X115171795Y-138502461D01*
X115289741Y-138479000D01*
X115530259Y-138479000D01*
X115648205Y-138502461D01*
G37*
G36*
X132318205Y-138502461D02*
G01*
X132436153Y-138525922D01*
X132528194Y-138564047D01*
X132658359Y-138617963D01*
X132858342Y-138751587D01*
X133028413Y-138921658D01*
X133162037Y-139121641D01*
X133206281Y-139228456D01*
X133248757Y-139331000D01*
X133254078Y-139343848D01*
X133301000Y-139579741D01*
X133301000Y-139820259D01*
X133254078Y-140056152D01*
X133162037Y-140278359D01*
X133028413Y-140478342D01*
X132858342Y-140648413D01*
X132658359Y-140782037D01*
X132528194Y-140835953D01*
X132436153Y-140874078D01*
X132200259Y-140921000D01*
X131959741Y-140921000D01*
X131723847Y-140874078D01*
X131631806Y-140835953D01*
X131501641Y-140782037D01*
X131301658Y-140648413D01*
X131131587Y-140478342D01*
X130997963Y-140278359D01*
X130905922Y-140056152D01*
X130859000Y-139820259D01*
X130859000Y-139579741D01*
X130905922Y-139343848D01*
X130911244Y-139331000D01*
X130953719Y-139228456D01*
X130997963Y-139121641D01*
X131131587Y-138921658D01*
X131301658Y-138751587D01*
X131501641Y-138617963D01*
X131631806Y-138564047D01*
X131723847Y-138525922D01*
X131841795Y-138502461D01*
X131959741Y-138479000D01*
X132200259Y-138479000D01*
X132318205Y-138502461D01*
G37*
G36*
X85328205Y-138422461D02*
G01*
X85446153Y-138445922D01*
X85538194Y-138484047D01*
X85668359Y-138537963D01*
X85868342Y-138671587D01*
X86038413Y-138841658D01*
X86172037Y-139041641D01*
X86264078Y-139263848D01*
X86311000Y-139499741D01*
X86311000Y-139740259D01*
X86264078Y-139976152D01*
X86172037Y-140198359D01*
X86038413Y-140398342D01*
X85868342Y-140568413D01*
X85668359Y-140702037D01*
X85538194Y-140755953D01*
X85446153Y-140794078D01*
X85210259Y-140841000D01*
X84969741Y-140841000D01*
X84733847Y-140794078D01*
X84641806Y-140755953D01*
X84511641Y-140702037D01*
X84311658Y-140568413D01*
X84141587Y-140398342D01*
X84007963Y-140198359D01*
X83915922Y-139976152D01*
X83869000Y-139740259D01*
X83869000Y-139499741D01*
X83915922Y-139263848D01*
X84007963Y-139041641D01*
X84141587Y-138841658D01*
X84311658Y-138671587D01*
X84511641Y-138537963D01*
X84641806Y-138484047D01*
X84733847Y-138445922D01*
X84851795Y-138422461D01*
X84969741Y-138399000D01*
X85210259Y-138399000D01*
X85328205Y-138422461D01*
G37*
G36*
X80328205Y-138422461D02*
G01*
X80446153Y-138445922D01*
X80538194Y-138484047D01*
X80668359Y-138537963D01*
X80868342Y-138671587D01*
X81038413Y-138841658D01*
X81172037Y-139041641D01*
X81264078Y-139263848D01*
X81311000Y-139499741D01*
X81311000Y-139740259D01*
X81264078Y-139976152D01*
X81172037Y-140198359D01*
X81038413Y-140398342D01*
X80868342Y-140568413D01*
X80668359Y-140702037D01*
X80538194Y-140755953D01*
X80446153Y-140794078D01*
X80210259Y-140841000D01*
X79969741Y-140841000D01*
X79733847Y-140794078D01*
X79641806Y-140755953D01*
X79511641Y-140702037D01*
X79311658Y-140568413D01*
X79141587Y-140398342D01*
X79007963Y-140198359D01*
X78915922Y-139976152D01*
X78869000Y-139740259D01*
X78869000Y-139499741D01*
X78915922Y-139263848D01*
X79007963Y-139041641D01*
X79141587Y-138841658D01*
X79311658Y-138671587D01*
X79511641Y-138537963D01*
X79641806Y-138484047D01*
X79733847Y-138445922D01*
X79851795Y-138422461D01*
X79969741Y-138399000D01*
X80210259Y-138399000D01*
X80328205Y-138422461D01*
G37*
G36*
X75328205Y-138422461D02*
G01*
X75446153Y-138445922D01*
X75538194Y-138484047D01*
X75668359Y-138537963D01*
X75868342Y-138671587D01*
X76038413Y-138841658D01*
X76172037Y-139041641D01*
X76264078Y-139263848D01*
X76311000Y-139499741D01*
X76311000Y-139740259D01*
X76264078Y-139976152D01*
X76172037Y-140198359D01*
X76038413Y-140398342D01*
X75868342Y-140568413D01*
X75668359Y-140702037D01*
X75538194Y-140755953D01*
X75446153Y-140794078D01*
X75210259Y-140841000D01*
X74969741Y-140841000D01*
X74733847Y-140794078D01*
X74641806Y-140755953D01*
X74511641Y-140702037D01*
X74311658Y-140568413D01*
X74141587Y-140398342D01*
X74007963Y-140198359D01*
X73915922Y-139976152D01*
X73869000Y-139740259D01*
X73869000Y-139499741D01*
X73915922Y-139263848D01*
X74007963Y-139041641D01*
X74141587Y-138841658D01*
X74311658Y-138671587D01*
X74511641Y-138537963D01*
X74641806Y-138484047D01*
X74733847Y-138445922D01*
X74851795Y-138422461D01*
X74969741Y-138399000D01*
X75210259Y-138399000D01*
X75328205Y-138422461D01*
G37*
G36*
X207503512Y-137533927D02*
G01*
X207652812Y-137563624D01*
X207816784Y-137631544D01*
X207964354Y-137730147D01*
X208089853Y-137855646D01*
X208188456Y-138003216D01*
X208256376Y-138167188D01*
X208291000Y-138341259D01*
X208291000Y-138518741D01*
X208256376Y-138692812D01*
X208188456Y-138856784D01*
X208089853Y-139004354D01*
X207964354Y-139129853D01*
X207816784Y-139228456D01*
X207652812Y-139296376D01*
X207503512Y-139326073D01*
X207478742Y-139331000D01*
X207301258Y-139331000D01*
X207276488Y-139326073D01*
X207127188Y-139296376D01*
X206963216Y-139228456D01*
X206815646Y-139129853D01*
X206690147Y-139004354D01*
X206591544Y-138856784D01*
X206523624Y-138692812D01*
X206489000Y-138518741D01*
X206489000Y-138341259D01*
X206523624Y-138167188D01*
X206591544Y-138003216D01*
X206690147Y-137855646D01*
X206815646Y-137730147D01*
X206963216Y-137631544D01*
X207127188Y-137563624D01*
X207276488Y-137533927D01*
X207301258Y-137529000D01*
X207478742Y-137529000D01*
X207503512Y-137533927D01*
G37*
G36*
X203503512Y-137533927D02*
G01*
X203652812Y-137563624D01*
X203816784Y-137631544D01*
X203964354Y-137730147D01*
X204089853Y-137855646D01*
X204188456Y-138003216D01*
X204256376Y-138167188D01*
X204291000Y-138341259D01*
X204291000Y-138518741D01*
X204256376Y-138692812D01*
X204188456Y-138856784D01*
X204089853Y-139004354D01*
X203964354Y-139129853D01*
X203816784Y-139228456D01*
X203652812Y-139296376D01*
X203503512Y-139326073D01*
X203478742Y-139331000D01*
X203301258Y-139331000D01*
X203276488Y-139326073D01*
X203127188Y-139296376D01*
X202963216Y-139228456D01*
X202815646Y-139129853D01*
X202690147Y-139004354D01*
X202591544Y-138856784D01*
X202523624Y-138692812D01*
X202489000Y-138518741D01*
X202489000Y-138341259D01*
X202523624Y-138167188D01*
X202591544Y-138003216D01*
X202690147Y-137855646D01*
X202815646Y-137730147D01*
X202963216Y-137631544D01*
X203127188Y-137563624D01*
X203276488Y-137533927D01*
X203301258Y-137529000D01*
X203478742Y-137529000D01*
X203503512Y-137533927D01*
G37*
G36*
X199503512Y-137533927D02*
G01*
X199652812Y-137563624D01*
X199816784Y-137631544D01*
X199964354Y-137730147D01*
X200089853Y-137855646D01*
X200188456Y-138003216D01*
X200256376Y-138167188D01*
X200291000Y-138341259D01*
X200291000Y-138518741D01*
X200256376Y-138692812D01*
X200188456Y-138856784D01*
X200089853Y-139004354D01*
X199964354Y-139129853D01*
X199816784Y-139228456D01*
X199652812Y-139296376D01*
X199503512Y-139326073D01*
X199478742Y-139331000D01*
X199301258Y-139331000D01*
X199276488Y-139326073D01*
X199127188Y-139296376D01*
X198963216Y-139228456D01*
X198815646Y-139129853D01*
X198690147Y-139004354D01*
X198591544Y-138856784D01*
X198523624Y-138692812D01*
X198489000Y-138518741D01*
X198489000Y-138341259D01*
X198523624Y-138167188D01*
X198591544Y-138003216D01*
X198690147Y-137855646D01*
X198815646Y-137730147D01*
X198963216Y-137631544D01*
X199127188Y-137563624D01*
X199276488Y-137533927D01*
X199301258Y-137529000D01*
X199478742Y-137529000D01*
X199503512Y-137533927D01*
G37*
G36*
X180613512Y-137533927D02*
G01*
X180762812Y-137563624D01*
X180926784Y-137631544D01*
X181074354Y-137730147D01*
X181199853Y-137855646D01*
X181298456Y-138003216D01*
X181366376Y-138167188D01*
X181401000Y-138341259D01*
X181401000Y-138518741D01*
X181366376Y-138692812D01*
X181298456Y-138856784D01*
X181199853Y-139004354D01*
X181074354Y-139129853D01*
X180926784Y-139228456D01*
X180762812Y-139296376D01*
X180613512Y-139326073D01*
X180588742Y-139331000D01*
X180411258Y-139331000D01*
X180386488Y-139326073D01*
X180237188Y-139296376D01*
X180073216Y-139228456D01*
X179925646Y-139129853D01*
X179800147Y-139004354D01*
X179701544Y-138856784D01*
X179633624Y-138692812D01*
X179599000Y-138518741D01*
X179599000Y-138341259D01*
X179633624Y-138167188D01*
X179701544Y-138003216D01*
X179800147Y-137855646D01*
X179925646Y-137730147D01*
X180073216Y-137631544D01*
X180237188Y-137563624D01*
X180386488Y-137533927D01*
X180411258Y-137529000D01*
X180588742Y-137529000D01*
X180613512Y-137533927D01*
G37*
G36*
X184613512Y-137533927D02*
G01*
X184762812Y-137563624D01*
X184926784Y-137631544D01*
X185074354Y-137730147D01*
X185199853Y-137855646D01*
X185298456Y-138003216D01*
X185366376Y-138167188D01*
X185401000Y-138341259D01*
X185401000Y-138518741D01*
X185366376Y-138692812D01*
X185298456Y-138856784D01*
X185199853Y-139004354D01*
X185074354Y-139129853D01*
X184926784Y-139228456D01*
X184762812Y-139296376D01*
X184613512Y-139326073D01*
X184588742Y-139331000D01*
X184411258Y-139331000D01*
X184386488Y-139326073D01*
X184237188Y-139296376D01*
X184073216Y-139228456D01*
X183925646Y-139129853D01*
X183800147Y-139004354D01*
X183701544Y-138856784D01*
X183633624Y-138692812D01*
X183599000Y-138518741D01*
X183599000Y-138341259D01*
X183633624Y-138167188D01*
X183701544Y-138003216D01*
X183800147Y-137855646D01*
X183925646Y-137730147D01*
X184073216Y-137631544D01*
X184237188Y-137563624D01*
X184386488Y-137533927D01*
X184411258Y-137529000D01*
X184588742Y-137529000D01*
X184613512Y-137533927D01*
G37*
G36*
X188613512Y-137533927D02*
G01*
X188762812Y-137563624D01*
X188926784Y-137631544D01*
X189074354Y-137730147D01*
X189199853Y-137855646D01*
X189298456Y-138003216D01*
X189366376Y-138167188D01*
X189401000Y-138341259D01*
X189401000Y-138518741D01*
X189366376Y-138692812D01*
X189298456Y-138856784D01*
X189199853Y-139004354D01*
X189074354Y-139129853D01*
X188926784Y-139228456D01*
X188762812Y-139296376D01*
X188613512Y-139326073D01*
X188588742Y-139331000D01*
X188411258Y-139331000D01*
X188386488Y-139326073D01*
X188237188Y-139296376D01*
X188073216Y-139228456D01*
X187925646Y-139129853D01*
X187800147Y-139004354D01*
X187701544Y-138856784D01*
X187633624Y-138692812D01*
X187599000Y-138518741D01*
X187599000Y-138341259D01*
X187633624Y-138167188D01*
X187701544Y-138003216D01*
X187800147Y-137855646D01*
X187925646Y-137730147D01*
X188073216Y-137631544D01*
X188237188Y-137563624D01*
X188386488Y-137533927D01*
X188411258Y-137529000D01*
X188588742Y-137529000D01*
X188613512Y-137533927D01*
G37*
G36*
X178806564Y-135669389D02*
G01*
X178997833Y-135748615D01*
X178997835Y-135748616D01*
X179136097Y-135841000D01*
X179169973Y-135863635D01*
X179316365Y-136010027D01*
X179431385Y-136182167D01*
X179510611Y-136373436D01*
X179551000Y-136576484D01*
X179551000Y-136783516D01*
X179510611Y-136986564D01*
X179431385Y-137177833D01*
X179431384Y-137177835D01*
X179316365Y-137349973D01*
X179169973Y-137496365D01*
X178997835Y-137611384D01*
X178997834Y-137611385D01*
X178997833Y-137611385D01*
X178806564Y-137690611D01*
X178603516Y-137731000D01*
X178396484Y-137731000D01*
X178193436Y-137690611D01*
X178002167Y-137611385D01*
X178002166Y-137611385D01*
X178002165Y-137611384D01*
X177830027Y-137496365D01*
X177683635Y-137349973D01*
X177568616Y-137177835D01*
X177568615Y-137177833D01*
X177489389Y-136986564D01*
X177449000Y-136783516D01*
X177449000Y-136576484D01*
X177489389Y-136373436D01*
X177568615Y-136182167D01*
X177683635Y-136010027D01*
X177830027Y-135863635D01*
X177863903Y-135841000D01*
X178002165Y-135748616D01*
X178002167Y-135748615D01*
X178193436Y-135669389D01*
X178396484Y-135629000D01*
X178603516Y-135629000D01*
X178806564Y-135669389D01*
G37*
G36*
X209696564Y-135669389D02*
G01*
X209887833Y-135748615D01*
X209887835Y-135748616D01*
X210026097Y-135841000D01*
X210059973Y-135863635D01*
X210206365Y-136010027D01*
X210321385Y-136182167D01*
X210400611Y-136373436D01*
X210441000Y-136576484D01*
X210441000Y-136783516D01*
X210400611Y-136986564D01*
X210321385Y-137177833D01*
X210321384Y-137177835D01*
X210206365Y-137349973D01*
X210059973Y-137496365D01*
X209887835Y-137611384D01*
X209887834Y-137611385D01*
X209887833Y-137611385D01*
X209696564Y-137690611D01*
X209493516Y-137731000D01*
X209286484Y-137731000D01*
X209083436Y-137690611D01*
X208892167Y-137611385D01*
X208892166Y-137611385D01*
X208892165Y-137611384D01*
X208720027Y-137496365D01*
X208573635Y-137349973D01*
X208458616Y-137177835D01*
X208458615Y-137177833D01*
X208379389Y-136986564D01*
X208339000Y-136783516D01*
X208339000Y-136576484D01*
X208379389Y-136373436D01*
X208458615Y-136182167D01*
X208573635Y-136010027D01*
X208720027Y-135863635D01*
X208753903Y-135841000D01*
X208892165Y-135748616D01*
X208892167Y-135748615D01*
X209083436Y-135669389D01*
X209286484Y-135629000D01*
X209493516Y-135629000D01*
X209696564Y-135669389D01*
G37*
G36*
X190806564Y-135669389D02*
G01*
X190997833Y-135748615D01*
X190997835Y-135748616D01*
X191136097Y-135841000D01*
X191169973Y-135863635D01*
X191316365Y-136010027D01*
X191431385Y-136182167D01*
X191510611Y-136373436D01*
X191551000Y-136576484D01*
X191551000Y-136783516D01*
X191510611Y-136986564D01*
X191431385Y-137177833D01*
X191431384Y-137177835D01*
X191316365Y-137349973D01*
X191169973Y-137496365D01*
X190997835Y-137611384D01*
X190997834Y-137611385D01*
X190997833Y-137611385D01*
X190806564Y-137690611D01*
X190603516Y-137731000D01*
X190396484Y-137731000D01*
X190193436Y-137690611D01*
X190002167Y-137611385D01*
X190002166Y-137611385D01*
X190002165Y-137611384D01*
X189830027Y-137496365D01*
X189683635Y-137349973D01*
X189568616Y-137177835D01*
X189568615Y-137177833D01*
X189489389Y-136986564D01*
X189449000Y-136783516D01*
X189449000Y-136576484D01*
X189489389Y-136373436D01*
X189568615Y-136182167D01*
X189683635Y-136010027D01*
X189830027Y-135863635D01*
X189863903Y-135841000D01*
X190002165Y-135748616D01*
X190002167Y-135748615D01*
X190193436Y-135669389D01*
X190396484Y-135629000D01*
X190603516Y-135629000D01*
X190806564Y-135669389D01*
G37*
G36*
X197696564Y-135669389D02*
G01*
X197887833Y-135748615D01*
X197887835Y-135748616D01*
X198026097Y-135841000D01*
X198059973Y-135863635D01*
X198206365Y-136010027D01*
X198321385Y-136182167D01*
X198400611Y-136373436D01*
X198441000Y-136576484D01*
X198441000Y-136783516D01*
X198400611Y-136986564D01*
X198321385Y-137177833D01*
X198321384Y-137177835D01*
X198206365Y-137349973D01*
X198059973Y-137496365D01*
X197887835Y-137611384D01*
X197887834Y-137611385D01*
X197887833Y-137611385D01*
X197696564Y-137690611D01*
X197493516Y-137731000D01*
X197286484Y-137731000D01*
X197083436Y-137690611D01*
X196892167Y-137611385D01*
X196892166Y-137611385D01*
X196892165Y-137611384D01*
X196720027Y-137496365D01*
X196573635Y-137349973D01*
X196458616Y-137177835D01*
X196458615Y-137177833D01*
X196379389Y-136986564D01*
X196339000Y-136783516D01*
X196339000Y-136576484D01*
X196379389Y-136373436D01*
X196458615Y-136182167D01*
X196573635Y-136010027D01*
X196720027Y-135863635D01*
X196753903Y-135841000D01*
X196892165Y-135748616D01*
X196892167Y-135748615D01*
X197083436Y-135669389D01*
X197286484Y-135629000D01*
X197493516Y-135629000D01*
X197696564Y-135669389D01*
G37*
G36*
X75446153Y-133445922D02*
G01*
X75538194Y-133484047D01*
X75668359Y-133537963D01*
X75868342Y-133671587D01*
X76038413Y-133841658D01*
X76172037Y-134041641D01*
X76264078Y-134263848D01*
X76311000Y-134499741D01*
X76311000Y-134740259D01*
X76264078Y-134976152D01*
X76172037Y-135198359D01*
X76038413Y-135398342D01*
X75868342Y-135568413D01*
X75668359Y-135702037D01*
X75555907Y-135748616D01*
X75446153Y-135794078D01*
X75210259Y-135841000D01*
X74969741Y-135841000D01*
X74733847Y-135794078D01*
X74624093Y-135748616D01*
X74511641Y-135702037D01*
X74311658Y-135568413D01*
X74141587Y-135398342D01*
X74007963Y-135198359D01*
X73915922Y-134976152D01*
X73869000Y-134740259D01*
X73869000Y-134499741D01*
X73915922Y-134263848D01*
X74007963Y-134041641D01*
X74141587Y-133841658D01*
X74311658Y-133671587D01*
X74511641Y-133537963D01*
X74641806Y-133484047D01*
X74733847Y-133445922D01*
X74969741Y-133399000D01*
X75210259Y-133399000D01*
X75446153Y-133445922D01*
G37*
G36*
X80446153Y-133445922D02*
G01*
X80538194Y-133484047D01*
X80668359Y-133537963D01*
X80868342Y-133671587D01*
X81038413Y-133841658D01*
X81172037Y-134041641D01*
X81264078Y-134263848D01*
X81311000Y-134499741D01*
X81311000Y-134740259D01*
X81264078Y-134976152D01*
X81172037Y-135198359D01*
X81038413Y-135398342D01*
X80868342Y-135568413D01*
X80668359Y-135702037D01*
X80555907Y-135748616D01*
X80446153Y-135794078D01*
X80210259Y-135841000D01*
X79969741Y-135841000D01*
X79733847Y-135794078D01*
X79624093Y-135748616D01*
X79511641Y-135702037D01*
X79311658Y-135568413D01*
X79141587Y-135398342D01*
X79007963Y-135198359D01*
X78915922Y-134976152D01*
X78869000Y-134740259D01*
X78869000Y-134499741D01*
X78915922Y-134263848D01*
X79007963Y-134041641D01*
X79141587Y-133841658D01*
X79311658Y-133671587D01*
X79511641Y-133537963D01*
X79641806Y-133484047D01*
X79733847Y-133445922D01*
X79969741Y-133399000D01*
X80210259Y-133399000D01*
X80446153Y-133445922D01*
G37*
G36*
X85446153Y-133445922D02*
G01*
X85538194Y-133484047D01*
X85668359Y-133537963D01*
X85868342Y-133671587D01*
X86038413Y-133841658D01*
X86172037Y-134041641D01*
X86264078Y-134263848D01*
X86311000Y-134499741D01*
X86311000Y-134740259D01*
X86264078Y-134976152D01*
X86172037Y-135198359D01*
X86038413Y-135398342D01*
X85868342Y-135568413D01*
X85668359Y-135702037D01*
X85555907Y-135748616D01*
X85446153Y-135794078D01*
X85210259Y-135841000D01*
X84969741Y-135841000D01*
X84733847Y-135794078D01*
X84624093Y-135748616D01*
X84511641Y-135702037D01*
X84311658Y-135568413D01*
X84141587Y-135398342D01*
X84007963Y-135198359D01*
X83915922Y-134976152D01*
X83869000Y-134740259D01*
X83869000Y-134499741D01*
X83915922Y-134263848D01*
X84007963Y-134041641D01*
X84141587Y-133841658D01*
X84311658Y-133671587D01*
X84511641Y-133537963D01*
X84641806Y-133484047D01*
X84733847Y-133445922D01*
X84969741Y-133399000D01*
X85210259Y-133399000D01*
X85446153Y-133445922D01*
G37*
G36*
X63181000Y-127951000D02*
G01*
X61279000Y-127951000D01*
X61279000Y-126049000D01*
X63181000Y-126049000D01*
X63181000Y-127951000D01*
G37*
G36*
X142488228Y-124911703D02*
G01*
X142643100Y-124975853D01*
X142782481Y-125068985D01*
X142901015Y-125187519D01*
X142994147Y-125326900D01*
X143058297Y-125481772D01*
X143091000Y-125646184D01*
X143091000Y-125813816D01*
X143058297Y-125978228D01*
X142994147Y-126133100D01*
X142901015Y-126272481D01*
X142782481Y-126391015D01*
X142643100Y-126484147D01*
X142488228Y-126548297D01*
X142323816Y-126581000D01*
X142156184Y-126581000D01*
X141991772Y-126548297D01*
X141836900Y-126484147D01*
X141697519Y-126391015D01*
X141578985Y-126272481D01*
X141485853Y-126133100D01*
X141421703Y-125978228D01*
X141389000Y-125813816D01*
X141389000Y-125646184D01*
X141421703Y-125481772D01*
X141485853Y-125326900D01*
X141578985Y-125187519D01*
X141697519Y-125068985D01*
X141836900Y-124975853D01*
X141991772Y-124911703D01*
X142156184Y-124879000D01*
X142323816Y-124879000D01*
X142488228Y-124911703D01*
G37*
G36*
X145591000Y-126581000D02*
G01*
X143889000Y-126581000D01*
X143889000Y-124879000D01*
X145591000Y-124879000D01*
X145591000Y-126581000D01*
G37*
G36*
X62507395Y-123545546D02*
G01*
X62680466Y-123617234D01*
X62680467Y-123617235D01*
X62836227Y-123721310D01*
X62968690Y-123853773D01*
X63002349Y-123904147D01*
X63072766Y-124009534D01*
X63144454Y-124182605D01*
X63181000Y-124366333D01*
X63181000Y-124553667D01*
X63144454Y-124737395D01*
X63072766Y-124910466D01*
X63053877Y-124938735D01*
X62968690Y-125066227D01*
X62836227Y-125198690D01*
X62757818Y-125251081D01*
X62680466Y-125302766D01*
X62507395Y-125374454D01*
X62323667Y-125411000D01*
X62136333Y-125411000D01*
X61952605Y-125374454D01*
X61779534Y-125302766D01*
X61702182Y-125251081D01*
X61623773Y-125198690D01*
X61491310Y-125066227D01*
X61406123Y-124938735D01*
X61387234Y-124910466D01*
X61315546Y-124737395D01*
X61279000Y-124553667D01*
X61279000Y-124366333D01*
X61315546Y-124182605D01*
X61387234Y-124009534D01*
X61457651Y-123904147D01*
X61491310Y-123853773D01*
X61623773Y-123721310D01*
X61779533Y-123617235D01*
X61779534Y-123617234D01*
X61952605Y-123545546D01*
X62136333Y-123509000D01*
X62323667Y-123509000D01*
X62507395Y-123545546D01*
G37*
G36*
X134755850Y-123721309D02*
G01*
X134839059Y-123737860D01*
X134975732Y-123794472D01*
X135098735Y-123876660D01*
X135203340Y-123981265D01*
X135285528Y-124104268D01*
X135342140Y-124240941D01*
X135371000Y-124386033D01*
X135371000Y-124533967D01*
X135342140Y-124679059D01*
X135285528Y-124815732D01*
X135203340Y-124938735D01*
X135098735Y-125043340D01*
X134975732Y-125125528D01*
X134975731Y-125125529D01*
X134975730Y-125125529D01*
X134839059Y-125182140D01*
X134693968Y-125211000D01*
X134546032Y-125211000D01*
X134400941Y-125182140D01*
X134264270Y-125125529D01*
X134264269Y-125125529D01*
X134264268Y-125125528D01*
X134141265Y-125043340D01*
X134036660Y-124938735D01*
X133954472Y-124815732D01*
X133897860Y-124679059D01*
X133869000Y-124533967D01*
X133869000Y-124386033D01*
X133897860Y-124240941D01*
X133954472Y-124104268D01*
X134036660Y-123981265D01*
X134141265Y-123876660D01*
X134264268Y-123794472D01*
X134400941Y-123737860D01*
X134484150Y-123721309D01*
X134546032Y-123709000D01*
X134693968Y-123709000D01*
X134755850Y-123721309D01*
G37*
G36*
X129675850Y-123721309D02*
G01*
X129759059Y-123737860D01*
X129895732Y-123794472D01*
X130018735Y-123876660D01*
X130123340Y-123981265D01*
X130205528Y-124104268D01*
X130262140Y-124240941D01*
X130291000Y-124386033D01*
X130291000Y-124533967D01*
X130262140Y-124679059D01*
X130205528Y-124815732D01*
X130123340Y-124938735D01*
X130018735Y-125043340D01*
X129895732Y-125125528D01*
X129895731Y-125125529D01*
X129895730Y-125125529D01*
X129759059Y-125182140D01*
X129613968Y-125211000D01*
X129466032Y-125211000D01*
X129320941Y-125182140D01*
X129184270Y-125125529D01*
X129184269Y-125125529D01*
X129184268Y-125125528D01*
X129061265Y-125043340D01*
X128956660Y-124938735D01*
X128874472Y-124815732D01*
X128817860Y-124679059D01*
X128789000Y-124533967D01*
X128789000Y-124386033D01*
X128817860Y-124240941D01*
X128874472Y-124104268D01*
X128956660Y-123981265D01*
X129061265Y-123876660D01*
X129184268Y-123794472D01*
X129320941Y-123737860D01*
X129404150Y-123721309D01*
X129466032Y-123709000D01*
X129613968Y-123709000D01*
X129675850Y-123721309D01*
G37*
G36*
X123325850Y-123721309D02*
G01*
X123409059Y-123737860D01*
X123545732Y-123794472D01*
X123668735Y-123876660D01*
X123773340Y-123981265D01*
X123855528Y-124104268D01*
X123912140Y-124240941D01*
X123941000Y-124386033D01*
X123941000Y-124533967D01*
X123912140Y-124679059D01*
X123855528Y-124815732D01*
X123773340Y-124938735D01*
X123668735Y-125043340D01*
X123545732Y-125125528D01*
X123545731Y-125125529D01*
X123545730Y-125125529D01*
X123409059Y-125182140D01*
X123263968Y-125211000D01*
X123116032Y-125211000D01*
X122970941Y-125182140D01*
X122834270Y-125125529D01*
X122834269Y-125125529D01*
X122834268Y-125125528D01*
X122711265Y-125043340D01*
X122606660Y-124938735D01*
X122524472Y-124815732D01*
X122467860Y-124679059D01*
X122439000Y-124533967D01*
X122439000Y-124386033D01*
X122467860Y-124240941D01*
X122524472Y-124104268D01*
X122606660Y-123981265D01*
X122711265Y-123876660D01*
X122834268Y-123794472D01*
X122970941Y-123737860D01*
X123054150Y-123721309D01*
X123116032Y-123709000D01*
X123263968Y-123709000D01*
X123325850Y-123721309D01*
G37*
G36*
X118245850Y-123721309D02*
G01*
X118329059Y-123737860D01*
X118465732Y-123794472D01*
X118588735Y-123876660D01*
X118693340Y-123981265D01*
X118775528Y-124104268D01*
X118832140Y-124240941D01*
X118861000Y-124386033D01*
X118861000Y-124533967D01*
X118832140Y-124679059D01*
X118775528Y-124815732D01*
X118693340Y-124938735D01*
X118588735Y-125043340D01*
X118465732Y-125125528D01*
X118465731Y-125125529D01*
X118465730Y-125125529D01*
X118329059Y-125182140D01*
X118183968Y-125211000D01*
X118036032Y-125211000D01*
X117890941Y-125182140D01*
X117754270Y-125125529D01*
X117754269Y-125125529D01*
X117754268Y-125125528D01*
X117631265Y-125043340D01*
X117526660Y-124938735D01*
X117444472Y-124815732D01*
X117387860Y-124679059D01*
X117359000Y-124533967D01*
X117359000Y-124386033D01*
X117387860Y-124240941D01*
X117444472Y-124104268D01*
X117526660Y-123981265D01*
X117631265Y-123876660D01*
X117754268Y-123794472D01*
X117890941Y-123737860D01*
X117974150Y-123721309D01*
X118036032Y-123709000D01*
X118183968Y-123709000D01*
X118245850Y-123721309D01*
G37*
G36*
X80258228Y-122331703D02*
G01*
X80413100Y-122395853D01*
X80552481Y-122488985D01*
X80671015Y-122607519D01*
X80764147Y-122746900D01*
X80828297Y-122901772D01*
X80861000Y-123066184D01*
X80861000Y-123233816D01*
X80828297Y-123398228D01*
X80764147Y-123553100D01*
X80671015Y-123692481D01*
X80552481Y-123811015D01*
X80413100Y-123904147D01*
X80258228Y-123968297D01*
X80093816Y-124001000D01*
X79926184Y-124001000D01*
X79761772Y-123968297D01*
X79606900Y-123904147D01*
X79467519Y-123811015D01*
X79348985Y-123692481D01*
X79255853Y-123553100D01*
X79191703Y-123398228D01*
X79159000Y-123233816D01*
X79159000Y-123066184D01*
X79191703Y-122901772D01*
X79255853Y-122746900D01*
X79348985Y-122607519D01*
X79467519Y-122488985D01*
X79606900Y-122395853D01*
X79761772Y-122331703D01*
X79926184Y-122299000D01*
X80093816Y-122299000D01*
X80258228Y-122331703D01*
G37*
G36*
X111968228Y-121101703D02*
G01*
X112123100Y-121165853D01*
X112262481Y-121258985D01*
X112381015Y-121377519D01*
X112474147Y-121516900D01*
X112538297Y-121671772D01*
X112571000Y-121836184D01*
X112571000Y-122003816D01*
X112538297Y-122168228D01*
X112474147Y-122323100D01*
X112381015Y-122462481D01*
X112262481Y-122581015D01*
X112123100Y-122674147D01*
X111968228Y-122738297D01*
X111803816Y-122771000D01*
X111636184Y-122771000D01*
X111471772Y-122738297D01*
X111316900Y-122674147D01*
X111177519Y-122581015D01*
X111058985Y-122462481D01*
X110965853Y-122323100D01*
X110901703Y-122168228D01*
X110869000Y-122003816D01*
X110869000Y-121836184D01*
X110901703Y-121671772D01*
X110965853Y-121516900D01*
X111058985Y-121377519D01*
X111177519Y-121258985D01*
X111316900Y-121165853D01*
X111471772Y-121101703D01*
X111636184Y-121069000D01*
X111803816Y-121069000D01*
X111968228Y-121101703D01*
G37*
G36*
X110071000Y-122771000D02*
G01*
X108369000Y-122771000D01*
X108369000Y-121069000D01*
X110071000Y-121069000D01*
X110071000Y-122771000D01*
G37*
G36*
X215286669Y-118857686D02*
G01*
X215463058Y-118875059D01*
X215802548Y-118978042D01*
X215802550Y-118978043D01*
X216115422Y-119145277D01*
X216115424Y-119145278D01*
X216115423Y-119145278D01*
X216389661Y-119370339D01*
X216614722Y-119644577D01*
X216781958Y-119957452D01*
X216884941Y-120296942D01*
X216919714Y-120650000D01*
X216884941Y-121003058D01*
X216781958Y-121342548D01*
X216781957Y-121342550D01*
X216614723Y-121655422D01*
X216389661Y-121929661D01*
X216115422Y-122154723D01*
X215845499Y-122299000D01*
X215802548Y-122321958D01*
X215463058Y-122424941D01*
X215286669Y-122442314D01*
X215198476Y-122451000D01*
X211521524Y-122451000D01*
X211433331Y-122442314D01*
X211256942Y-122424941D01*
X210917452Y-122321958D01*
X210874501Y-122299000D01*
X210604578Y-122154723D01*
X210330339Y-121929661D01*
X210105277Y-121655422D01*
X209938043Y-121342550D01*
X209938042Y-121342548D01*
X209835059Y-121003058D01*
X209800286Y-120650000D01*
X209835059Y-120296942D01*
X209938042Y-119957452D01*
X210105278Y-119644577D01*
X210330339Y-119370339D01*
X210604577Y-119145278D01*
X210604576Y-119145278D01*
X210604578Y-119145277D01*
X210917450Y-118978043D01*
X210917452Y-118978042D01*
X211256942Y-118875059D01*
X211433331Y-118857686D01*
X211521524Y-118849000D01*
X215198476Y-118849000D01*
X215286669Y-118857686D01*
G37*
G36*
X80861000Y-121501000D02*
G01*
X79159000Y-121501000D01*
X79159000Y-119799000D01*
X80861000Y-119799000D01*
X80861000Y-121501000D01*
G37*
G36*
X190719059Y-117387860D02*
G01*
X190855732Y-117444472D01*
X190978735Y-117526660D01*
X191083340Y-117631265D01*
X191165528Y-117754268D01*
X191222140Y-117890941D01*
X191251000Y-118036033D01*
X191251000Y-118183967D01*
X191222140Y-118329059D01*
X191165528Y-118465732D01*
X191083340Y-118588735D01*
X190978735Y-118693340D01*
X190855732Y-118775528D01*
X190855731Y-118775529D01*
X190855730Y-118775529D01*
X190719059Y-118832140D01*
X190573968Y-118861000D01*
X190426032Y-118861000D01*
X190280941Y-118832140D01*
X190144270Y-118775529D01*
X190144269Y-118775529D01*
X190144268Y-118775528D01*
X190021265Y-118693340D01*
X189916660Y-118588735D01*
X189834472Y-118465732D01*
X189777860Y-118329059D01*
X189749000Y-118183967D01*
X189749000Y-118036033D01*
X189777860Y-117890941D01*
X189834472Y-117754268D01*
X189916660Y-117631265D01*
X190021265Y-117526660D01*
X190144268Y-117444472D01*
X190280941Y-117387860D01*
X190426032Y-117359000D01*
X190573968Y-117359000D01*
X190719059Y-117387860D01*
G37*
G36*
X166936823Y-116001313D02*
G01*
X167097242Y-116049976D01*
X167229906Y-116120886D01*
X167245078Y-116128996D01*
X167374659Y-116235341D01*
X167481004Y-116364922D01*
X167481005Y-116364924D01*
X167560024Y-116512758D01*
X167608687Y-116673177D01*
X167625117Y-116840000D01*
X167608687Y-117006823D01*
X167560024Y-117167242D01*
X167489114Y-117299906D01*
X167481004Y-117315078D01*
X167374659Y-117444659D01*
X167245078Y-117551004D01*
X167245076Y-117551005D01*
X167097242Y-117630024D01*
X167097239Y-117630025D01*
X167067380Y-117639083D01*
X166936823Y-117678687D01*
X166811804Y-117691000D01*
X165928196Y-117691000D01*
X165803177Y-117678687D01*
X165672620Y-117639083D01*
X165642761Y-117630025D01*
X165642758Y-117630024D01*
X165494924Y-117551005D01*
X165494922Y-117551004D01*
X165365341Y-117444659D01*
X165258996Y-117315078D01*
X165250886Y-117299906D01*
X165179976Y-117167242D01*
X165131313Y-117006823D01*
X165114883Y-116840000D01*
X165131313Y-116673177D01*
X165179976Y-116512758D01*
X165258995Y-116364924D01*
X165258996Y-116364922D01*
X165365341Y-116235341D01*
X165494922Y-116128996D01*
X165510094Y-116120886D01*
X165642758Y-116049976D01*
X165803177Y-116001313D01*
X165928196Y-115989000D01*
X166811804Y-115989000D01*
X166936823Y-116001313D01*
G37*
G36*
X174556823Y-116001313D02*
G01*
X174717242Y-116049976D01*
X174849906Y-116120886D01*
X174865078Y-116128996D01*
X174994659Y-116235341D01*
X175101004Y-116364922D01*
X175101005Y-116364924D01*
X175180024Y-116512758D01*
X175228687Y-116673177D01*
X175245117Y-116840000D01*
X175228687Y-117006823D01*
X175180024Y-117167242D01*
X175109114Y-117299906D01*
X175101004Y-117315078D01*
X174994659Y-117444659D01*
X174865078Y-117551004D01*
X174865076Y-117551005D01*
X174717242Y-117630024D01*
X174717239Y-117630025D01*
X174687380Y-117639083D01*
X174556823Y-117678687D01*
X174431804Y-117691000D01*
X173548196Y-117691000D01*
X173423177Y-117678687D01*
X173292620Y-117639083D01*
X173262761Y-117630025D01*
X173262758Y-117630024D01*
X173114924Y-117551005D01*
X173114922Y-117551004D01*
X172985341Y-117444659D01*
X172878996Y-117315078D01*
X172870886Y-117299906D01*
X172799976Y-117167242D01*
X172751313Y-117006823D01*
X172734883Y-116840000D01*
X172751313Y-116673177D01*
X172799976Y-116512758D01*
X172878995Y-116364924D01*
X172878996Y-116364922D01*
X172985341Y-116235341D01*
X173114922Y-116128996D01*
X173130094Y-116120886D01*
X173262758Y-116049976D01*
X173423177Y-116001313D01*
X173548196Y-115989000D01*
X174431804Y-115989000D01*
X174556823Y-116001313D01*
G37*
G36*
X145346823Y-114731313D02*
G01*
X145477380Y-114770917D01*
X145503145Y-114778733D01*
X145507242Y-114779976D01*
X145639906Y-114850886D01*
X145655078Y-114858996D01*
X145784659Y-114965341D01*
X145891004Y-115094922D01*
X145891005Y-115094924D01*
X145970024Y-115242758D01*
X146018687Y-115403177D01*
X146035117Y-115570000D01*
X146018687Y-115736823D01*
X145970024Y-115897242D01*
X145920978Y-115989000D01*
X145891004Y-116045078D01*
X145784659Y-116174659D01*
X145655078Y-116281004D01*
X145655076Y-116281005D01*
X145507242Y-116360024D01*
X145346823Y-116408687D01*
X145221804Y-116421000D01*
X144338196Y-116421000D01*
X144213177Y-116408687D01*
X144052758Y-116360024D01*
X143904924Y-116281005D01*
X143904922Y-116281004D01*
X143775341Y-116174659D01*
X143668996Y-116045078D01*
X143639022Y-115989000D01*
X143589976Y-115897242D01*
X143541313Y-115736823D01*
X143524883Y-115570000D01*
X143541313Y-115403177D01*
X143589976Y-115242758D01*
X143668995Y-115094924D01*
X143668996Y-115094922D01*
X143775341Y-114965341D01*
X143904922Y-114858996D01*
X143920094Y-114850886D01*
X144052758Y-114779976D01*
X144056856Y-114778733D01*
X144082620Y-114770917D01*
X144213177Y-114731313D01*
X144338196Y-114719000D01*
X145221804Y-114719000D01*
X145346823Y-114731313D01*
G37*
G36*
X208896823Y-114731313D02*
G01*
X209027380Y-114770917D01*
X209053145Y-114778733D01*
X209057242Y-114779976D01*
X209189906Y-114850886D01*
X209205078Y-114858996D01*
X209334659Y-114965341D01*
X209441004Y-115094922D01*
X209441005Y-115094924D01*
X209520024Y-115242758D01*
X209568687Y-115403177D01*
X209585117Y-115570000D01*
X209568687Y-115736823D01*
X209520024Y-115897242D01*
X209470978Y-115989000D01*
X209441004Y-116045078D01*
X209334659Y-116174659D01*
X209205078Y-116281004D01*
X209205076Y-116281005D01*
X209057242Y-116360024D01*
X208896823Y-116408687D01*
X208771804Y-116421000D01*
X207788196Y-116421000D01*
X207663177Y-116408687D01*
X207502758Y-116360024D01*
X207354924Y-116281005D01*
X207354922Y-116281004D01*
X207225341Y-116174659D01*
X207118996Y-116045078D01*
X207089022Y-115989000D01*
X207039976Y-115897242D01*
X206991313Y-115736823D01*
X206974883Y-115570000D01*
X206991313Y-115403177D01*
X207039976Y-115242758D01*
X207118995Y-115094924D01*
X207118996Y-115094922D01*
X207225341Y-114965341D01*
X207354922Y-114858996D01*
X207370094Y-114850886D01*
X207502758Y-114779976D01*
X207506856Y-114778733D01*
X207532620Y-114770917D01*
X207663177Y-114731313D01*
X207788196Y-114719000D01*
X208771804Y-114719000D01*
X208896823Y-114731313D01*
G37*
G36*
X152966823Y-114731313D02*
G01*
X153097380Y-114770917D01*
X153123145Y-114778733D01*
X153127242Y-114779976D01*
X153259906Y-114850886D01*
X153275078Y-114858996D01*
X153404659Y-114965341D01*
X153511004Y-115094922D01*
X153511005Y-115094924D01*
X153590024Y-115242758D01*
X153638687Y-115403177D01*
X153655117Y-115570000D01*
X153638687Y-115736823D01*
X153590024Y-115897242D01*
X153540978Y-115989000D01*
X153511004Y-116045078D01*
X153404659Y-116174659D01*
X153275078Y-116281004D01*
X153275076Y-116281005D01*
X153127242Y-116360024D01*
X152966823Y-116408687D01*
X152841804Y-116421000D01*
X151958196Y-116421000D01*
X151833177Y-116408687D01*
X151672758Y-116360024D01*
X151524924Y-116281005D01*
X151524922Y-116281004D01*
X151395341Y-116174659D01*
X151288996Y-116045078D01*
X151259022Y-115989000D01*
X151209976Y-115897242D01*
X151161313Y-115736823D01*
X151144883Y-115570000D01*
X151161313Y-115403177D01*
X151209976Y-115242758D01*
X151288995Y-115094924D01*
X151288996Y-115094922D01*
X151395341Y-114965341D01*
X151524922Y-114858996D01*
X151540094Y-114850886D01*
X151672758Y-114779976D01*
X151676856Y-114778733D01*
X151702620Y-114770917D01*
X151833177Y-114731313D01*
X151958196Y-114719000D01*
X152841804Y-114719000D01*
X152966823Y-114731313D01*
G37*
G36*
X83986823Y-113061313D02*
G01*
X84117380Y-113100917D01*
X84127437Y-113103968D01*
X84147242Y-113109976D01*
X84279906Y-113180886D01*
X84295078Y-113188996D01*
X84424659Y-113295341D01*
X84531004Y-113424922D01*
X84531005Y-113424924D01*
X84610024Y-113572758D01*
X84610025Y-113572761D01*
X84628745Y-113634472D01*
X84658687Y-113733178D01*
X84671000Y-113858197D01*
X84671000Y-114741804D01*
X84658687Y-114866823D01*
X84653676Y-114883341D01*
X84614950Y-115011005D01*
X84610024Y-115027242D01*
X84573848Y-115094922D01*
X84531004Y-115175078D01*
X84424659Y-115304659D01*
X84295077Y-115411005D01*
X84147241Y-115490024D01*
X83986822Y-115538687D01*
X83820000Y-115555117D01*
X83653177Y-115538687D01*
X83492758Y-115490024D01*
X83344924Y-115411005D01*
X83344922Y-115411004D01*
X83215341Y-115304659D01*
X83108995Y-115175077D01*
X83029976Y-115027241D01*
X83025051Y-115011004D01*
X82981314Y-114866824D01*
X82981313Y-114866822D01*
X82969000Y-114741803D01*
X82969000Y-113858197D01*
X82981314Y-113733177D01*
X83025051Y-113588996D01*
X83029976Y-113572761D01*
X83029977Y-113572758D01*
X83108996Y-113424924D01*
X83108997Y-113424922D01*
X83215342Y-113295341D01*
X83344923Y-113188996D01*
X83360095Y-113180886D01*
X83492759Y-113109976D01*
X83512565Y-113103968D01*
X83522621Y-113100917D01*
X83653178Y-113061313D01*
X83820000Y-113044883D01*
X83986823Y-113061313D01*
G37*
G36*
X81446823Y-113061313D02*
G01*
X81577380Y-113100917D01*
X81587437Y-113103968D01*
X81607242Y-113109976D01*
X81739906Y-113180886D01*
X81755078Y-113188996D01*
X81884659Y-113295341D01*
X81991004Y-113424922D01*
X81991005Y-113424924D01*
X82070024Y-113572758D01*
X82070025Y-113572761D01*
X82088745Y-113634472D01*
X82118687Y-113733178D01*
X82131000Y-113858197D01*
X82131000Y-114741804D01*
X82118687Y-114866823D01*
X82113676Y-114883341D01*
X82074950Y-115011005D01*
X82070024Y-115027242D01*
X82033848Y-115094922D01*
X81991004Y-115175078D01*
X81884659Y-115304659D01*
X81755077Y-115411005D01*
X81607241Y-115490024D01*
X81446822Y-115538687D01*
X81280000Y-115555117D01*
X81113177Y-115538687D01*
X80952758Y-115490024D01*
X80804924Y-115411005D01*
X80804922Y-115411004D01*
X80675341Y-115304659D01*
X80568995Y-115175077D01*
X80489976Y-115027241D01*
X80485051Y-115011004D01*
X80441314Y-114866824D01*
X80441313Y-114866822D01*
X80429000Y-114741803D01*
X80429000Y-113858197D01*
X80441314Y-113733177D01*
X80485051Y-113588996D01*
X80489976Y-113572761D01*
X80489977Y-113572758D01*
X80568996Y-113424924D01*
X80568997Y-113424922D01*
X80675342Y-113295341D01*
X80804923Y-113188996D01*
X80820095Y-113180886D01*
X80952759Y-113109976D01*
X80972565Y-113103968D01*
X80982621Y-113100917D01*
X81113178Y-113061313D01*
X81280000Y-113044883D01*
X81446823Y-113061313D01*
G37*
G36*
X78906823Y-113061313D02*
G01*
X79037380Y-113100917D01*
X79047437Y-113103968D01*
X79067242Y-113109976D01*
X79199906Y-113180886D01*
X79215078Y-113188996D01*
X79344659Y-113295341D01*
X79451004Y-113424922D01*
X79451005Y-113424924D01*
X79530024Y-113572758D01*
X79530025Y-113572761D01*
X79548745Y-113634472D01*
X79578687Y-113733178D01*
X79591000Y-113858197D01*
X79591000Y-114741804D01*
X79578687Y-114866823D01*
X79573676Y-114883341D01*
X79534950Y-115011005D01*
X79530024Y-115027242D01*
X79493848Y-115094922D01*
X79451004Y-115175078D01*
X79344659Y-115304659D01*
X79215077Y-115411005D01*
X79067241Y-115490024D01*
X78906822Y-115538687D01*
X78740000Y-115555117D01*
X78573177Y-115538687D01*
X78412758Y-115490024D01*
X78264924Y-115411005D01*
X78264922Y-115411004D01*
X78135341Y-115304659D01*
X78028995Y-115175077D01*
X77949976Y-115027241D01*
X77945051Y-115011004D01*
X77901314Y-114866824D01*
X77901313Y-114866822D01*
X77889000Y-114741803D01*
X77889000Y-113858197D01*
X77901314Y-113733177D01*
X77945051Y-113588996D01*
X77949976Y-113572761D01*
X77949977Y-113572758D01*
X78028996Y-113424924D01*
X78028997Y-113424922D01*
X78135342Y-113295341D01*
X78264923Y-113188996D01*
X78280095Y-113180886D01*
X78412759Y-113109976D01*
X78432565Y-113103968D01*
X78442621Y-113100917D01*
X78573178Y-113061313D01*
X78740000Y-113044883D01*
X78906823Y-113061313D01*
G37*
G36*
X76366823Y-113061313D02*
G01*
X76497380Y-113100917D01*
X76507437Y-113103968D01*
X76527242Y-113109976D01*
X76659906Y-113180886D01*
X76675078Y-113188996D01*
X76804659Y-113295341D01*
X76911004Y-113424922D01*
X76911005Y-113424924D01*
X76990024Y-113572758D01*
X76990025Y-113572761D01*
X77008745Y-113634472D01*
X77038687Y-113733178D01*
X77051000Y-113858197D01*
X77051000Y-114741804D01*
X77038687Y-114866823D01*
X77033676Y-114883341D01*
X76994950Y-115011005D01*
X76990024Y-115027242D01*
X76953848Y-115094922D01*
X76911004Y-115175078D01*
X76804659Y-115304659D01*
X76675077Y-115411005D01*
X76527241Y-115490024D01*
X76366822Y-115538687D01*
X76200000Y-115555117D01*
X76033177Y-115538687D01*
X75872758Y-115490024D01*
X75724924Y-115411005D01*
X75724922Y-115411004D01*
X75595341Y-115304659D01*
X75488995Y-115175077D01*
X75409976Y-115027241D01*
X75405051Y-115011004D01*
X75361314Y-114866824D01*
X75361313Y-114866822D01*
X75349000Y-114741803D01*
X75349000Y-113858197D01*
X75361314Y-113733177D01*
X75405051Y-113588996D01*
X75409976Y-113572761D01*
X75409977Y-113572758D01*
X75488996Y-113424924D01*
X75488997Y-113424922D01*
X75595342Y-113295341D01*
X75724923Y-113188996D01*
X75740095Y-113180886D01*
X75872759Y-113109976D01*
X75892565Y-113103968D01*
X75902621Y-113100917D01*
X76033178Y-113061313D01*
X76200000Y-113044883D01*
X76366823Y-113061313D01*
G37*
G36*
X174556823Y-113461313D02*
G01*
X174687380Y-113500917D01*
X174713145Y-113508733D01*
X174717242Y-113509976D01*
X174834699Y-113572758D01*
X174865078Y-113588996D01*
X174994659Y-113695341D01*
X175101004Y-113824922D01*
X175101005Y-113824924D01*
X175180024Y-113972758D01*
X175228687Y-114133177D01*
X175245117Y-114300000D01*
X175228687Y-114466823D01*
X175180024Y-114627242D01*
X175130978Y-114719000D01*
X175101004Y-114775078D01*
X174994659Y-114904659D01*
X174865078Y-115011004D01*
X174865076Y-115011005D01*
X174717242Y-115090024D01*
X174556823Y-115138687D01*
X174431804Y-115151000D01*
X173548196Y-115151000D01*
X173423177Y-115138687D01*
X173262758Y-115090024D01*
X173114924Y-115011005D01*
X173114922Y-115011004D01*
X172985341Y-114904659D01*
X172878996Y-114775078D01*
X172849022Y-114719000D01*
X172799976Y-114627242D01*
X172751313Y-114466823D01*
X172734883Y-114300000D01*
X172751313Y-114133177D01*
X172799976Y-113972758D01*
X172878995Y-113824924D01*
X172878996Y-113824922D01*
X172985341Y-113695341D01*
X173114922Y-113588996D01*
X173145301Y-113572758D01*
X173262758Y-113509976D01*
X173266856Y-113508733D01*
X173292620Y-113500917D01*
X173423177Y-113461313D01*
X173548196Y-113449000D01*
X174431804Y-113449000D01*
X174556823Y-113461313D01*
G37*
G36*
X166936823Y-113461313D02*
G01*
X167067380Y-113500917D01*
X167093145Y-113508733D01*
X167097242Y-113509976D01*
X167214699Y-113572758D01*
X167245078Y-113588996D01*
X167374659Y-113695341D01*
X167481004Y-113824922D01*
X167481005Y-113824924D01*
X167560024Y-113972758D01*
X167608687Y-114133177D01*
X167625117Y-114300000D01*
X167608687Y-114466823D01*
X167560024Y-114627242D01*
X167510978Y-114719000D01*
X167481004Y-114775078D01*
X167374659Y-114904659D01*
X167245078Y-115011004D01*
X167245076Y-115011005D01*
X167097242Y-115090024D01*
X166936823Y-115138687D01*
X166811804Y-115151000D01*
X165928196Y-115151000D01*
X165803177Y-115138687D01*
X165642758Y-115090024D01*
X165494924Y-115011005D01*
X165494922Y-115011004D01*
X165365341Y-114904659D01*
X165258996Y-114775078D01*
X165229022Y-114719000D01*
X165179976Y-114627242D01*
X165131313Y-114466823D01*
X165114883Y-114300000D01*
X165131313Y-114133177D01*
X165179976Y-113972758D01*
X165258995Y-113824924D01*
X165258996Y-113824922D01*
X165365341Y-113695341D01*
X165494922Y-113588996D01*
X165525301Y-113572758D01*
X165642758Y-113509976D01*
X165646856Y-113508733D01*
X165672620Y-113500917D01*
X165803177Y-113461313D01*
X165928196Y-113449000D01*
X166811804Y-113449000D01*
X166936823Y-113461313D01*
G37*
G36*
X133569059Y-113577860D02*
G01*
X133654718Y-113613341D01*
X133705732Y-113634472D01*
X133828735Y-113716660D01*
X133933340Y-113821265D01*
X134015528Y-113944268D01*
X134072140Y-114080941D01*
X134101000Y-114226033D01*
X134101000Y-114373967D01*
X134072140Y-114519059D01*
X134015528Y-114655732D01*
X133933340Y-114778735D01*
X133828735Y-114883340D01*
X133705732Y-114965528D01*
X133705731Y-114965529D01*
X133705730Y-114965529D01*
X133569059Y-115022140D01*
X133423968Y-115051000D01*
X133276032Y-115051000D01*
X133130941Y-115022140D01*
X132994270Y-114965529D01*
X132994269Y-114965529D01*
X132994268Y-114965528D01*
X132871265Y-114883340D01*
X132766660Y-114778735D01*
X132684472Y-114655732D01*
X132627860Y-114519059D01*
X132599000Y-114373967D01*
X132599000Y-114226033D01*
X132627860Y-114080941D01*
X132684472Y-113944268D01*
X132766660Y-113821265D01*
X132871265Y-113716660D01*
X132994268Y-113634472D01*
X133045283Y-113613341D01*
X133130941Y-113577860D01*
X133276032Y-113549000D01*
X133423968Y-113549000D01*
X133569059Y-113577860D01*
G37*
G36*
X126581000Y-113881000D02*
G01*
X124879000Y-113881000D01*
X124879000Y-112179000D01*
X126581000Y-112179000D01*
X126581000Y-113881000D01*
G37*
G36*
X208896823Y-112191313D02*
G01*
X209027380Y-112230917D01*
X209053145Y-112238733D01*
X209057242Y-112239976D01*
X209184244Y-112307860D01*
X209205078Y-112318996D01*
X209334659Y-112425341D01*
X209441004Y-112554922D01*
X209441005Y-112554924D01*
X209520024Y-112702758D01*
X209568687Y-112863177D01*
X209585117Y-113030000D01*
X209568687Y-113196823D01*
X209520024Y-113357242D01*
X209483848Y-113424922D01*
X209441004Y-113505078D01*
X209334659Y-113634659D01*
X209205078Y-113741004D01*
X209205076Y-113741005D01*
X209057242Y-113820024D01*
X209057239Y-113820025D01*
X209041096Y-113824922D01*
X208896823Y-113868687D01*
X208771804Y-113881000D01*
X207788196Y-113881000D01*
X207663177Y-113868687D01*
X207518904Y-113824922D01*
X207502761Y-113820025D01*
X207502758Y-113820024D01*
X207354924Y-113741005D01*
X207354922Y-113741004D01*
X207225341Y-113634659D01*
X207118996Y-113505078D01*
X207076152Y-113424922D01*
X207039976Y-113357242D01*
X206991313Y-113196823D01*
X206974883Y-113030000D01*
X206991313Y-112863177D01*
X207039976Y-112702758D01*
X207118995Y-112554924D01*
X207118996Y-112554922D01*
X207225341Y-112425341D01*
X207354922Y-112318996D01*
X207375756Y-112307860D01*
X207502758Y-112239976D01*
X207506856Y-112238733D01*
X207532620Y-112230917D01*
X207663177Y-112191313D01*
X207788196Y-112179000D01*
X208771804Y-112179000D01*
X208896823Y-112191313D01*
G37*
G36*
X145346823Y-112191313D02*
G01*
X145477380Y-112230917D01*
X145503145Y-112238733D01*
X145507242Y-112239976D01*
X145634244Y-112307860D01*
X145655078Y-112318996D01*
X145784659Y-112425341D01*
X145891004Y-112554922D01*
X145891005Y-112554924D01*
X145970024Y-112702758D01*
X146018687Y-112863177D01*
X146035117Y-113030000D01*
X146018687Y-113196823D01*
X145970024Y-113357242D01*
X145933848Y-113424922D01*
X145891004Y-113505078D01*
X145784659Y-113634659D01*
X145655078Y-113741004D01*
X145655076Y-113741005D01*
X145507242Y-113820024D01*
X145507239Y-113820025D01*
X145491096Y-113824922D01*
X145346823Y-113868687D01*
X145221804Y-113881000D01*
X144338196Y-113881000D01*
X144213177Y-113868687D01*
X144068904Y-113824922D01*
X144052761Y-113820025D01*
X144052758Y-113820024D01*
X143904924Y-113741005D01*
X143904922Y-113741004D01*
X143775341Y-113634659D01*
X143668996Y-113505078D01*
X143626152Y-113424922D01*
X143589976Y-113357242D01*
X143541313Y-113196823D01*
X143524883Y-113030000D01*
X143541313Y-112863177D01*
X143589976Y-112702758D01*
X143668995Y-112554924D01*
X143668996Y-112554922D01*
X143775341Y-112425341D01*
X143904922Y-112318996D01*
X143925756Y-112307860D01*
X144052758Y-112239976D01*
X144056856Y-112238733D01*
X144082620Y-112230917D01*
X144213177Y-112191313D01*
X144338196Y-112179000D01*
X145221804Y-112179000D01*
X145346823Y-112191313D01*
G37*
G36*
X152966823Y-112191313D02*
G01*
X153097380Y-112230917D01*
X153123145Y-112238733D01*
X153127242Y-112239976D01*
X153254244Y-112307860D01*
X153275078Y-112318996D01*
X153404659Y-112425341D01*
X153511004Y-112554922D01*
X153511005Y-112554924D01*
X153590024Y-112702758D01*
X153638687Y-112863177D01*
X153655117Y-113030000D01*
X153638687Y-113196823D01*
X153590024Y-113357242D01*
X153553848Y-113424922D01*
X153511004Y-113505078D01*
X153404659Y-113634659D01*
X153275078Y-113741004D01*
X153275076Y-113741005D01*
X153127242Y-113820024D01*
X153127239Y-113820025D01*
X153111096Y-113824922D01*
X152966823Y-113868687D01*
X152841804Y-113881000D01*
X151958196Y-113881000D01*
X151833177Y-113868687D01*
X151688904Y-113824922D01*
X151672761Y-113820025D01*
X151672758Y-113820024D01*
X151524924Y-113741005D01*
X151524922Y-113741004D01*
X151395341Y-113634659D01*
X151288996Y-113505078D01*
X151246152Y-113424922D01*
X151209976Y-113357242D01*
X151161313Y-113196823D01*
X151144883Y-113030000D01*
X151161313Y-112863177D01*
X151209976Y-112702758D01*
X151288995Y-112554924D01*
X151288996Y-112554922D01*
X151395341Y-112425341D01*
X151524922Y-112318996D01*
X151545756Y-112307860D01*
X151672758Y-112239976D01*
X151676856Y-112238733D01*
X151702620Y-112230917D01*
X151833177Y-112191313D01*
X151958196Y-112179000D01*
X152841804Y-112179000D01*
X152966823Y-112191313D01*
G37*
G36*
X190719059Y-112307860D02*
G01*
X190804718Y-112343341D01*
X190855732Y-112364472D01*
X190978735Y-112446660D01*
X191083340Y-112551265D01*
X191165528Y-112674268D01*
X191222140Y-112810941D01*
X191251000Y-112956033D01*
X191251000Y-113103967D01*
X191222140Y-113249059D01*
X191165528Y-113385732D01*
X191083340Y-113508735D01*
X190978735Y-113613340D01*
X190855732Y-113695528D01*
X190855731Y-113695529D01*
X190855730Y-113695529D01*
X190719059Y-113752140D01*
X190573968Y-113781000D01*
X190426032Y-113781000D01*
X190280941Y-113752140D01*
X190144270Y-113695529D01*
X190144269Y-113695529D01*
X190144268Y-113695528D01*
X190021265Y-113613340D01*
X189916660Y-113508735D01*
X189834472Y-113385732D01*
X189777860Y-113249059D01*
X189749000Y-113103967D01*
X189749000Y-112956033D01*
X189777860Y-112810941D01*
X189834472Y-112674268D01*
X189916660Y-112551265D01*
X190021265Y-112446660D01*
X190144268Y-112364472D01*
X190195283Y-112343341D01*
X190280941Y-112307860D01*
X190426032Y-112279000D01*
X190573968Y-112279000D01*
X190719059Y-112307860D01*
G37*
G36*
X111968228Y-110941703D02*
G01*
X112123100Y-111005853D01*
X112262481Y-111098985D01*
X112381015Y-111217519D01*
X112474147Y-111356900D01*
X112538297Y-111511772D01*
X112571000Y-111676184D01*
X112571000Y-111843816D01*
X112538297Y-112008228D01*
X112474147Y-112163100D01*
X112381015Y-112302481D01*
X112262481Y-112421015D01*
X112123100Y-112514147D01*
X111968228Y-112578297D01*
X111803816Y-112611000D01*
X111636184Y-112611000D01*
X111471772Y-112578297D01*
X111316900Y-112514147D01*
X111177519Y-112421015D01*
X111058985Y-112302481D01*
X110965853Y-112163100D01*
X110901703Y-112008228D01*
X110869000Y-111843816D01*
X110869000Y-111676184D01*
X110901703Y-111511772D01*
X110965853Y-111356900D01*
X111058985Y-111217519D01*
X111177519Y-111098985D01*
X111316900Y-111005853D01*
X111471772Y-110941703D01*
X111636184Y-110909000D01*
X111803816Y-110909000D01*
X111968228Y-110941703D01*
G37*
G36*
X174556823Y-110921313D02*
G01*
X174717242Y-110969976D01*
X174844244Y-111037860D01*
X174865078Y-111048996D01*
X174994659Y-111155341D01*
X175101004Y-111284922D01*
X175101005Y-111284924D01*
X175180024Y-111432758D01*
X175228687Y-111593177D01*
X175245117Y-111760000D01*
X175228687Y-111926823D01*
X175180024Y-112087242D01*
X175139477Y-112163100D01*
X175101004Y-112235078D01*
X174994659Y-112364659D01*
X174865078Y-112471004D01*
X174865076Y-112471005D01*
X174717242Y-112550024D01*
X174717239Y-112550025D01*
X174701096Y-112554922D01*
X174556823Y-112598687D01*
X174431804Y-112611000D01*
X173548196Y-112611000D01*
X173423177Y-112598687D01*
X173278904Y-112554922D01*
X173262761Y-112550025D01*
X173262758Y-112550024D01*
X173114924Y-112471005D01*
X173114922Y-112471004D01*
X172985341Y-112364659D01*
X172878996Y-112235078D01*
X172840523Y-112163100D01*
X172799976Y-112087242D01*
X172751313Y-111926823D01*
X172734883Y-111760000D01*
X172751313Y-111593177D01*
X172799976Y-111432758D01*
X172878995Y-111284924D01*
X172878996Y-111284922D01*
X172985341Y-111155341D01*
X173114922Y-111048996D01*
X173135756Y-111037860D01*
X173262758Y-110969976D01*
X173423177Y-110921313D01*
X173548196Y-110909000D01*
X174431804Y-110909000D01*
X174556823Y-110921313D01*
G37*
G36*
X166936823Y-110921313D02*
G01*
X167097242Y-110969976D01*
X167224244Y-111037860D01*
X167245078Y-111048996D01*
X167374659Y-111155341D01*
X167481004Y-111284922D01*
X167481005Y-111284924D01*
X167560024Y-111432758D01*
X167608687Y-111593177D01*
X167625117Y-111760000D01*
X167608687Y-111926823D01*
X167560024Y-112087242D01*
X167519477Y-112163100D01*
X167481004Y-112235078D01*
X167374659Y-112364659D01*
X167245078Y-112471004D01*
X167245076Y-112471005D01*
X167097242Y-112550024D01*
X167097239Y-112550025D01*
X167081096Y-112554922D01*
X166936823Y-112598687D01*
X166811804Y-112611000D01*
X165928196Y-112611000D01*
X165803177Y-112598687D01*
X165658904Y-112554922D01*
X165642761Y-112550025D01*
X165642758Y-112550024D01*
X165494924Y-112471005D01*
X165494922Y-112471004D01*
X165365341Y-112364659D01*
X165258996Y-112235078D01*
X165220523Y-112163100D01*
X165179976Y-112087242D01*
X165131313Y-111926823D01*
X165114883Y-111760000D01*
X165131313Y-111593177D01*
X165179976Y-111432758D01*
X165258995Y-111284924D01*
X165258996Y-111284922D01*
X165365341Y-111155341D01*
X165494922Y-111048996D01*
X165515756Y-111037860D01*
X165642758Y-110969976D01*
X165803177Y-110921313D01*
X165928196Y-110909000D01*
X166811804Y-110909000D01*
X166936823Y-110921313D01*
G37*
G36*
X110071000Y-112611000D02*
G01*
X108369000Y-112611000D01*
X108369000Y-110909000D01*
X110071000Y-110909000D01*
X110071000Y-112611000D01*
G37*
G36*
X62449059Y-111037860D02*
G01*
X62585732Y-111094472D01*
X62708735Y-111176660D01*
X62813340Y-111281265D01*
X62895528Y-111404268D01*
X62952140Y-111540941D01*
X62981000Y-111686033D01*
X62981000Y-111833967D01*
X62952140Y-111979059D01*
X62895528Y-112115732D01*
X62813340Y-112238735D01*
X62708735Y-112343340D01*
X62585732Y-112425528D01*
X62585731Y-112425529D01*
X62585730Y-112425529D01*
X62449059Y-112482140D01*
X62303968Y-112511000D01*
X62156032Y-112511000D01*
X62010941Y-112482140D01*
X61874270Y-112425529D01*
X61874269Y-112425529D01*
X61874268Y-112425528D01*
X61751265Y-112343340D01*
X61646660Y-112238735D01*
X61564472Y-112115732D01*
X61507860Y-111979059D01*
X61479000Y-111833967D01*
X61479000Y-111686033D01*
X61507860Y-111540941D01*
X61564472Y-111404268D01*
X61646660Y-111281265D01*
X61751265Y-111176660D01*
X61874268Y-111094472D01*
X62010941Y-111037860D01*
X62156032Y-111009000D01*
X62303968Y-111009000D01*
X62449059Y-111037860D01*
G37*
G36*
X215286669Y-108697686D02*
G01*
X215463058Y-108715059D01*
X215802548Y-108818042D01*
X215802550Y-108818043D01*
X216115422Y-108985277D01*
X216389661Y-109210339D01*
X216614723Y-109484578D01*
X216772093Y-109778996D01*
X216781958Y-109797452D01*
X216884941Y-110136942D01*
X216919714Y-110490000D01*
X216884941Y-110843058D01*
X216790211Y-111155341D01*
X216781957Y-111182550D01*
X216614723Y-111495422D01*
X216389661Y-111769661D01*
X216115422Y-111994723D01*
X215802550Y-112161957D01*
X215802548Y-112161958D01*
X215463058Y-112264941D01*
X215286669Y-112282314D01*
X215198476Y-112291000D01*
X211521524Y-112291000D01*
X211433331Y-112282314D01*
X211256942Y-112264941D01*
X210917452Y-112161958D01*
X210917450Y-112161957D01*
X210604578Y-111994723D01*
X210330339Y-111769661D01*
X210105277Y-111495422D01*
X209938043Y-111182550D01*
X209929789Y-111155341D01*
X209835059Y-110843058D01*
X209800286Y-110490000D01*
X209835059Y-110136942D01*
X209938042Y-109797452D01*
X209947907Y-109778996D01*
X210105277Y-109484578D01*
X210330339Y-109210339D01*
X210604578Y-108985277D01*
X210917450Y-108818043D01*
X210917452Y-108818042D01*
X211256942Y-108715059D01*
X211433331Y-108697686D01*
X211521524Y-108689000D01*
X215198476Y-108689000D01*
X215286669Y-108697686D01*
G37*
G36*
X125978228Y-109711703D02*
G01*
X126133100Y-109775853D01*
X126272481Y-109868985D01*
X126391015Y-109987519D01*
X126484147Y-110126900D01*
X126548297Y-110281772D01*
X126581000Y-110446184D01*
X126581000Y-110613816D01*
X126548297Y-110778228D01*
X126484147Y-110933100D01*
X126391015Y-111072481D01*
X126272481Y-111191015D01*
X126133100Y-111284147D01*
X125978228Y-111348297D01*
X125813816Y-111381000D01*
X125646184Y-111381000D01*
X125481772Y-111348297D01*
X125326900Y-111284147D01*
X125187519Y-111191015D01*
X125068985Y-111072481D01*
X124975853Y-110933100D01*
X124911703Y-110778228D01*
X124879000Y-110613816D01*
X124879000Y-110446184D01*
X124911703Y-110281772D01*
X124975853Y-110126900D01*
X125068985Y-109987519D01*
X125187519Y-109868985D01*
X125326900Y-109775853D01*
X125481772Y-109711703D01*
X125646184Y-109679000D01*
X125813816Y-109679000D01*
X125978228Y-109711703D01*
G37*
G36*
X152966823Y-109651313D02*
G01*
X153058094Y-109679000D01*
X153123145Y-109698733D01*
X153127242Y-109699976D01*
X153259906Y-109770886D01*
X153275078Y-109778996D01*
X153404659Y-109885341D01*
X153511004Y-110014922D01*
X153511005Y-110014924D01*
X153590024Y-110162758D01*
X153638687Y-110323177D01*
X153655117Y-110490000D01*
X153638687Y-110656823D01*
X153590024Y-110817242D01*
X153523498Y-110941703D01*
X153511004Y-110965078D01*
X153404659Y-111094659D01*
X153275078Y-111201004D01*
X153275076Y-111201005D01*
X153127242Y-111280024D01*
X153127239Y-111280025D01*
X153113647Y-111284148D01*
X152966823Y-111328687D01*
X152841804Y-111341000D01*
X151958196Y-111341000D01*
X151833177Y-111328687D01*
X151686353Y-111284148D01*
X151672761Y-111280025D01*
X151672758Y-111280024D01*
X151524924Y-111201005D01*
X151524922Y-111201004D01*
X151395341Y-111094659D01*
X151288996Y-110965078D01*
X151276502Y-110941703D01*
X151209976Y-110817242D01*
X151161313Y-110656823D01*
X151144883Y-110490000D01*
X151161313Y-110323177D01*
X151209976Y-110162758D01*
X151288995Y-110014924D01*
X151288996Y-110014922D01*
X151395341Y-109885341D01*
X151524922Y-109778996D01*
X151540094Y-109770886D01*
X151672758Y-109699976D01*
X151676856Y-109698733D01*
X151741906Y-109679000D01*
X151833177Y-109651313D01*
X151958196Y-109639000D01*
X152841804Y-109639000D01*
X152966823Y-109651313D01*
G37*
G36*
X145346823Y-109651313D02*
G01*
X145438094Y-109679000D01*
X145503145Y-109698733D01*
X145507242Y-109699976D01*
X145639906Y-109770886D01*
X145655078Y-109778996D01*
X145784659Y-109885341D01*
X145891004Y-110014922D01*
X145891005Y-110014924D01*
X145970024Y-110162758D01*
X146018687Y-110323177D01*
X146035117Y-110490000D01*
X146018687Y-110656823D01*
X145970024Y-110817242D01*
X145903498Y-110941703D01*
X145891004Y-110965078D01*
X145784659Y-111094659D01*
X145655078Y-111201004D01*
X145655076Y-111201005D01*
X145507242Y-111280024D01*
X145507239Y-111280025D01*
X145493647Y-111284148D01*
X145346823Y-111328687D01*
X145221804Y-111341000D01*
X144338196Y-111341000D01*
X144213177Y-111328687D01*
X144066353Y-111284148D01*
X144052761Y-111280025D01*
X144052758Y-111280024D01*
X143904924Y-111201005D01*
X143904922Y-111201004D01*
X143775341Y-111094659D01*
X143668996Y-110965078D01*
X143656502Y-110941703D01*
X143589976Y-110817242D01*
X143541313Y-110656823D01*
X143524883Y-110490000D01*
X143541313Y-110323177D01*
X143589976Y-110162758D01*
X143668995Y-110014924D01*
X143668996Y-110014922D01*
X143775341Y-109885341D01*
X143904922Y-109778996D01*
X143920094Y-109770886D01*
X144052758Y-109699976D01*
X144056856Y-109698733D01*
X144121906Y-109679000D01*
X144213177Y-109651313D01*
X144338196Y-109639000D01*
X145221804Y-109639000D01*
X145346823Y-109651313D01*
G37*
G36*
X174556823Y-108381313D02*
G01*
X174717242Y-108429976D01*
X174844244Y-108497860D01*
X174865078Y-108508996D01*
X174994659Y-108615341D01*
X175101004Y-108744922D01*
X175101005Y-108744924D01*
X175180024Y-108892758D01*
X175228687Y-109053177D01*
X175245117Y-109220000D01*
X175228687Y-109386823D01*
X175180024Y-109547242D01*
X175130978Y-109639000D01*
X175101004Y-109695078D01*
X174994659Y-109824659D01*
X174865078Y-109931004D01*
X174865076Y-109931005D01*
X174717242Y-110010024D01*
X174556823Y-110058687D01*
X174431804Y-110071000D01*
X173548196Y-110071000D01*
X173423177Y-110058687D01*
X173262758Y-110010024D01*
X173114924Y-109931005D01*
X173114922Y-109931004D01*
X172985341Y-109824659D01*
X172878996Y-109695078D01*
X172849022Y-109639000D01*
X172799976Y-109547242D01*
X172751313Y-109386823D01*
X172734883Y-109220000D01*
X172751313Y-109053177D01*
X172799976Y-108892758D01*
X172878995Y-108744924D01*
X172878996Y-108744922D01*
X172985341Y-108615341D01*
X173114922Y-108508996D01*
X173135756Y-108497860D01*
X173262758Y-108429976D01*
X173423177Y-108381313D01*
X173548196Y-108369000D01*
X174431804Y-108369000D01*
X174556823Y-108381313D01*
G37*
G36*
X167621000Y-110071000D02*
G01*
X165119000Y-110071000D01*
X165119000Y-108369000D01*
X167621000Y-108369000D01*
X167621000Y-110071000D01*
G37*
G36*
X133569059Y-108497860D02*
G01*
X133705732Y-108554472D01*
X133828735Y-108636660D01*
X133933340Y-108741265D01*
X134015528Y-108864268D01*
X134072140Y-109000941D01*
X134101000Y-109146033D01*
X134101000Y-109293967D01*
X134072140Y-109439059D01*
X134015528Y-109575732D01*
X133933340Y-109698735D01*
X133828735Y-109803340D01*
X133705732Y-109885528D01*
X133705731Y-109885529D01*
X133705730Y-109885529D01*
X133569059Y-109942140D01*
X133423968Y-109971000D01*
X133276032Y-109971000D01*
X133130941Y-109942140D01*
X132994270Y-109885529D01*
X132994269Y-109885529D01*
X132994268Y-109885528D01*
X132871265Y-109803340D01*
X132766660Y-109698735D01*
X132684472Y-109575732D01*
X132627860Y-109439059D01*
X132599000Y-109293967D01*
X132599000Y-109146033D01*
X132627860Y-109000941D01*
X132684472Y-108864268D01*
X132766660Y-108741265D01*
X132871265Y-108636660D01*
X132994268Y-108554472D01*
X133130941Y-108497860D01*
X133276032Y-108469000D01*
X133423968Y-108469000D01*
X133569059Y-108497860D01*
G37*
G36*
X100549059Y-108497860D02*
G01*
X100685732Y-108554472D01*
X100808735Y-108636660D01*
X100913340Y-108741265D01*
X100995528Y-108864268D01*
X101052140Y-109000941D01*
X101081000Y-109146033D01*
X101081000Y-109293967D01*
X101052140Y-109439059D01*
X100995528Y-109575732D01*
X100913340Y-109698735D01*
X100808735Y-109803340D01*
X100685732Y-109885528D01*
X100685731Y-109885529D01*
X100685730Y-109885529D01*
X100549059Y-109942140D01*
X100403968Y-109971000D01*
X100256032Y-109971000D01*
X100110941Y-109942140D01*
X99974270Y-109885529D01*
X99974269Y-109885529D01*
X99974268Y-109885528D01*
X99851265Y-109803340D01*
X99746660Y-109698735D01*
X99664472Y-109575732D01*
X99607860Y-109439059D01*
X99579000Y-109293967D01*
X99579000Y-109146033D01*
X99607860Y-109000941D01*
X99664472Y-108864268D01*
X99746660Y-108741265D01*
X99851265Y-108636660D01*
X99974268Y-108554472D01*
X100110941Y-108497860D01*
X100256032Y-108469000D01*
X100403968Y-108469000D01*
X100549059Y-108497860D01*
G37*
G36*
X95469059Y-108497860D02*
G01*
X95605732Y-108554472D01*
X95728735Y-108636660D01*
X95833340Y-108741265D01*
X95915528Y-108864268D01*
X95972140Y-109000941D01*
X96001000Y-109146033D01*
X96001000Y-109293967D01*
X95972140Y-109439059D01*
X95915528Y-109575732D01*
X95833340Y-109698735D01*
X95728735Y-109803340D01*
X95605732Y-109885528D01*
X95605731Y-109885529D01*
X95605730Y-109885529D01*
X95469059Y-109942140D01*
X95323968Y-109971000D01*
X95176032Y-109971000D01*
X95030941Y-109942140D01*
X94894270Y-109885529D01*
X94894269Y-109885529D01*
X94894268Y-109885528D01*
X94771265Y-109803340D01*
X94666660Y-109698735D01*
X94584472Y-109575732D01*
X94527860Y-109439059D01*
X94499000Y-109293967D01*
X94499000Y-109146033D01*
X94527860Y-109000941D01*
X94584472Y-108864268D01*
X94666660Y-108741265D01*
X94771265Y-108636660D01*
X94894268Y-108554472D01*
X95030941Y-108497860D01*
X95176032Y-108469000D01*
X95323968Y-108469000D01*
X95469059Y-108497860D01*
G37*
G36*
X146031000Y-108801000D02*
G01*
X143529000Y-108801000D01*
X143529000Y-107099000D01*
X146031000Y-107099000D01*
X146031000Y-108801000D01*
G37*
G36*
X152966823Y-107111313D02*
G01*
X153097380Y-107150917D01*
X153123145Y-107158733D01*
X153127242Y-107159976D01*
X153259906Y-107230886D01*
X153275078Y-107238996D01*
X153404659Y-107345341D01*
X153511004Y-107474922D01*
X153511005Y-107474924D01*
X153590024Y-107622758D01*
X153638687Y-107783177D01*
X153655117Y-107950000D01*
X153638687Y-108116823D01*
X153590024Y-108277242D01*
X153540978Y-108369000D01*
X153511004Y-108425078D01*
X153404659Y-108554659D01*
X153275078Y-108661004D01*
X153275076Y-108661005D01*
X153127242Y-108740024D01*
X153127239Y-108740025D01*
X153111096Y-108744922D01*
X152966823Y-108788687D01*
X152841804Y-108801000D01*
X151958196Y-108801000D01*
X151833177Y-108788687D01*
X151688904Y-108744922D01*
X151672761Y-108740025D01*
X151672758Y-108740024D01*
X151524924Y-108661005D01*
X151524922Y-108661004D01*
X151395341Y-108554659D01*
X151288996Y-108425078D01*
X151259022Y-108369000D01*
X151209976Y-108277242D01*
X151161313Y-108116823D01*
X151144883Y-107950000D01*
X151161313Y-107783177D01*
X151209976Y-107622758D01*
X151288995Y-107474924D01*
X151288996Y-107474922D01*
X151395341Y-107345341D01*
X151524922Y-107238996D01*
X151540094Y-107230886D01*
X151672758Y-107159976D01*
X151676856Y-107158733D01*
X151702620Y-107150917D01*
X151833177Y-107111313D01*
X151958196Y-107099000D01*
X152841804Y-107099000D01*
X152966823Y-107111313D01*
G37*
G36*
X76366823Y-105441313D02*
G01*
X76527242Y-105489976D01*
X76659906Y-105560886D01*
X76675078Y-105568996D01*
X76804659Y-105675341D01*
X76911004Y-105804922D01*
X76911005Y-105804924D01*
X76990024Y-105952758D01*
X76990025Y-105952761D01*
X77008745Y-106014472D01*
X77038687Y-106113178D01*
X77051000Y-106238197D01*
X77051000Y-107121804D01*
X77038687Y-107246823D01*
X76990024Y-107407242D01*
X76977325Y-107431000D01*
X76911004Y-107555078D01*
X76804659Y-107684659D01*
X76675077Y-107791005D01*
X76527241Y-107870024D01*
X76366822Y-107918687D01*
X76200000Y-107935117D01*
X76033177Y-107918687D01*
X75872758Y-107870024D01*
X75724924Y-107791005D01*
X75724922Y-107791004D01*
X75595341Y-107684659D01*
X75488995Y-107555077D01*
X75409976Y-107407241D01*
X75361313Y-107246822D01*
X75349000Y-107121803D01*
X75349000Y-106238197D01*
X75361314Y-106113177D01*
X75409977Y-105952758D01*
X75488996Y-105804924D01*
X75488997Y-105804922D01*
X75595342Y-105675341D01*
X75724923Y-105568996D01*
X75740095Y-105560886D01*
X75872759Y-105489976D01*
X76033178Y-105441313D01*
X76200000Y-105424883D01*
X76366823Y-105441313D01*
G37*
G36*
X78906823Y-105441313D02*
G01*
X79067242Y-105489976D01*
X79199906Y-105560886D01*
X79215078Y-105568996D01*
X79344659Y-105675341D01*
X79451004Y-105804922D01*
X79451005Y-105804924D01*
X79530024Y-105952758D01*
X79530025Y-105952761D01*
X79548745Y-106014472D01*
X79578687Y-106113178D01*
X79591000Y-106238197D01*
X79591000Y-107121804D01*
X79578687Y-107246823D01*
X79530024Y-107407242D01*
X79517325Y-107431000D01*
X79451004Y-107555078D01*
X79344659Y-107684659D01*
X79215077Y-107791005D01*
X79067241Y-107870024D01*
X78906822Y-107918687D01*
X78740000Y-107935117D01*
X78573177Y-107918687D01*
X78412758Y-107870024D01*
X78264924Y-107791005D01*
X78264922Y-107791004D01*
X78135341Y-107684659D01*
X78028995Y-107555077D01*
X77949976Y-107407241D01*
X77901313Y-107246822D01*
X77889000Y-107121803D01*
X77889000Y-106238197D01*
X77901314Y-106113177D01*
X77949977Y-105952758D01*
X78028996Y-105804924D01*
X78028997Y-105804922D01*
X78135342Y-105675341D01*
X78264923Y-105568996D01*
X78280095Y-105560886D01*
X78412759Y-105489976D01*
X78573178Y-105441313D01*
X78740000Y-105424883D01*
X78906823Y-105441313D01*
G37*
G36*
X81446823Y-105441313D02*
G01*
X81607242Y-105489976D01*
X81739906Y-105560886D01*
X81755078Y-105568996D01*
X81884659Y-105675341D01*
X81991004Y-105804922D01*
X81991005Y-105804924D01*
X82070024Y-105952758D01*
X82070025Y-105952761D01*
X82088745Y-106014472D01*
X82118687Y-106113178D01*
X82131000Y-106238197D01*
X82131000Y-107121804D01*
X82118687Y-107246823D01*
X82070024Y-107407242D01*
X82057325Y-107431000D01*
X81991004Y-107555078D01*
X81884659Y-107684659D01*
X81755077Y-107791005D01*
X81607241Y-107870024D01*
X81446822Y-107918687D01*
X81280000Y-107935117D01*
X81113177Y-107918687D01*
X80952758Y-107870024D01*
X80804924Y-107791005D01*
X80804922Y-107791004D01*
X80675341Y-107684659D01*
X80568995Y-107555077D01*
X80489976Y-107407241D01*
X80441313Y-107246822D01*
X80429000Y-107121803D01*
X80429000Y-106238197D01*
X80441314Y-106113177D01*
X80489977Y-105952758D01*
X80568996Y-105804924D01*
X80568997Y-105804922D01*
X80675342Y-105675341D01*
X80804923Y-105568996D01*
X80820095Y-105560886D01*
X80952759Y-105489976D01*
X81113178Y-105441313D01*
X81280000Y-105424883D01*
X81446823Y-105441313D01*
G37*
G36*
X84671000Y-107931000D02*
G01*
X82969000Y-107931000D01*
X82969000Y-105429000D01*
X84671000Y-105429000D01*
X84671000Y-107931000D01*
G37*
G36*
X62423409Y-105952758D02*
G01*
X62449059Y-105957860D01*
X62585732Y-106014472D01*
X62708735Y-106096660D01*
X62813340Y-106201265D01*
X62895528Y-106324268D01*
X62952140Y-106460941D01*
X62981000Y-106606033D01*
X62981000Y-106753967D01*
X62952140Y-106899059D01*
X62895528Y-107035732D01*
X62813340Y-107158735D01*
X62708735Y-107263340D01*
X62585732Y-107345528D01*
X62585731Y-107345529D01*
X62585730Y-107345529D01*
X62449059Y-107402140D01*
X62303968Y-107431000D01*
X62156032Y-107431000D01*
X62010941Y-107402140D01*
X61874270Y-107345529D01*
X61874269Y-107345529D01*
X61874268Y-107345528D01*
X61751265Y-107263340D01*
X61646660Y-107158735D01*
X61564472Y-107035732D01*
X61507860Y-106899059D01*
X61479000Y-106753967D01*
X61479000Y-106606033D01*
X61507860Y-106460941D01*
X61564472Y-106324268D01*
X61646660Y-106201265D01*
X61751265Y-106096660D01*
X61874268Y-106014472D01*
X62010941Y-105957860D01*
X62036591Y-105952758D01*
X62156032Y-105929000D01*
X62303968Y-105929000D01*
X62423409Y-105952758D01*
G37*
G36*
X184369059Y-100877860D02*
G01*
X184505732Y-100934472D01*
X184628735Y-101016660D01*
X184733340Y-101121265D01*
X184815528Y-101244268D01*
X184872140Y-101380941D01*
X184901000Y-101526033D01*
X184901000Y-101673967D01*
X184872140Y-101819059D01*
X184815528Y-101955732D01*
X184733340Y-102078735D01*
X184628735Y-102183340D01*
X184505732Y-102265528D01*
X184505731Y-102265529D01*
X184505730Y-102265529D01*
X184369059Y-102322140D01*
X184223968Y-102351000D01*
X184076032Y-102351000D01*
X183930941Y-102322140D01*
X183794270Y-102265529D01*
X183794269Y-102265529D01*
X183794268Y-102265528D01*
X183671265Y-102183340D01*
X183566660Y-102078735D01*
X183484472Y-101955732D01*
X183427860Y-101819059D01*
X183399000Y-101673967D01*
X183399000Y-101526033D01*
X183427860Y-101380941D01*
X183484472Y-101244268D01*
X183566660Y-101121265D01*
X183671265Y-101016660D01*
X183794268Y-100934472D01*
X183930941Y-100877860D01*
X184076032Y-100849000D01*
X184223968Y-100849000D01*
X184369059Y-100877860D01*
G37*
G36*
X92929059Y-100877860D02*
G01*
X93065732Y-100934472D01*
X93188735Y-101016660D01*
X93293340Y-101121265D01*
X93375528Y-101244268D01*
X93432140Y-101380941D01*
X93461000Y-101526033D01*
X93461000Y-101673967D01*
X93432140Y-101819059D01*
X93375528Y-101955732D01*
X93293340Y-102078735D01*
X93188735Y-102183340D01*
X93065732Y-102265528D01*
X93065731Y-102265529D01*
X93065730Y-102265529D01*
X92929059Y-102322140D01*
X92783968Y-102351000D01*
X92636032Y-102351000D01*
X92490941Y-102322140D01*
X92354270Y-102265529D01*
X92354269Y-102265529D01*
X92354268Y-102265528D01*
X92231265Y-102183340D01*
X92126660Y-102078735D01*
X92044472Y-101955732D01*
X91987860Y-101819059D01*
X91959000Y-101673967D01*
X91959000Y-101526033D01*
X91987860Y-101380941D01*
X92044472Y-101244268D01*
X92126660Y-101121265D01*
X92231265Y-101016660D01*
X92354268Y-100934472D01*
X92490941Y-100877860D01*
X92636032Y-100849000D01*
X92783968Y-100849000D01*
X92929059Y-100877860D01*
G37*
G36*
X179289059Y-100877860D02*
G01*
X179425732Y-100934472D01*
X179548735Y-101016660D01*
X179653340Y-101121265D01*
X179735528Y-101244268D01*
X179792140Y-101380941D01*
X179821000Y-101526033D01*
X179821000Y-101673967D01*
X179792140Y-101819059D01*
X179735528Y-101955732D01*
X179653340Y-102078735D01*
X179548735Y-102183340D01*
X179425732Y-102265528D01*
X179425731Y-102265529D01*
X179425730Y-102265529D01*
X179289059Y-102322140D01*
X179143968Y-102351000D01*
X178996032Y-102351000D01*
X178850941Y-102322140D01*
X178714270Y-102265529D01*
X178714269Y-102265529D01*
X178714268Y-102265528D01*
X178591265Y-102183340D01*
X178486660Y-102078735D01*
X178404472Y-101955732D01*
X178347860Y-101819059D01*
X178319000Y-101673967D01*
X178319000Y-101526033D01*
X178347860Y-101380941D01*
X178404472Y-101244268D01*
X178486660Y-101121265D01*
X178591265Y-101016660D01*
X178714268Y-100934472D01*
X178850941Y-100877860D01*
X178996032Y-100849000D01*
X179143968Y-100849000D01*
X179289059Y-100877860D01*
G37*
G36*
X57016564Y-99889389D02*
G01*
X57207833Y-99968615D01*
X57207835Y-99968616D01*
X57379973Y-100083635D01*
X57526365Y-100230027D01*
X57641385Y-100402167D01*
X57720611Y-100593436D01*
X57761000Y-100796484D01*
X57761000Y-101003516D01*
X57720611Y-101206564D01*
X57648382Y-101380941D01*
X57641384Y-101397835D01*
X57526365Y-101569973D01*
X57379973Y-101716365D01*
X57207835Y-101831384D01*
X57207834Y-101831385D01*
X57207833Y-101831385D01*
X57016564Y-101910611D01*
X56813516Y-101951000D01*
X56606484Y-101951000D01*
X56403436Y-101910611D01*
X56212167Y-101831385D01*
X56212166Y-101831385D01*
X56212165Y-101831384D01*
X56040027Y-101716365D01*
X55893635Y-101569973D01*
X55778616Y-101397835D01*
X55771618Y-101380941D01*
X55699389Y-101206564D01*
X55659000Y-101003516D01*
X55659000Y-100796484D01*
X55699389Y-100593436D01*
X55778615Y-100402167D01*
X55893635Y-100230027D01*
X56040027Y-100083635D01*
X56212165Y-99968616D01*
X56212167Y-99968615D01*
X56403436Y-99889389D01*
X56606484Y-99849000D01*
X56813516Y-99849000D01*
X57016564Y-99889389D01*
G37*
G36*
X63016564Y-99889389D02*
G01*
X63207833Y-99968615D01*
X63207835Y-99968616D01*
X63379973Y-100083635D01*
X63526365Y-100230027D01*
X63641385Y-100402167D01*
X63720611Y-100593436D01*
X63761000Y-100796484D01*
X63761000Y-101003516D01*
X63720611Y-101206564D01*
X63648382Y-101380941D01*
X63641384Y-101397835D01*
X63526365Y-101569973D01*
X63379973Y-101716365D01*
X63207835Y-101831384D01*
X63207834Y-101831385D01*
X63207833Y-101831385D01*
X63016564Y-101910611D01*
X62813516Y-101951000D01*
X62606484Y-101951000D01*
X62403436Y-101910611D01*
X62212167Y-101831385D01*
X62212166Y-101831385D01*
X62212165Y-101831384D01*
X62040027Y-101716365D01*
X61893635Y-101569973D01*
X61778616Y-101397835D01*
X61771618Y-101380941D01*
X61699389Y-101206564D01*
X61659000Y-101003516D01*
X61659000Y-100796484D01*
X61699389Y-100593436D01*
X61778615Y-100402167D01*
X61893635Y-100230027D01*
X62040027Y-100083635D01*
X62212165Y-99968616D01*
X62212167Y-99968615D01*
X62403436Y-99889389D01*
X62606484Y-99849000D01*
X62813516Y-99849000D01*
X63016564Y-99889389D01*
G37*
G36*
X61073512Y-98003927D02*
G01*
X61222812Y-98033624D01*
X61386784Y-98101544D01*
X61534354Y-98200147D01*
X61659853Y-98325646D01*
X61758456Y-98473216D01*
X61826376Y-98637188D01*
X61861000Y-98811259D01*
X61861000Y-98988741D01*
X61826376Y-99162812D01*
X61758456Y-99326784D01*
X61659853Y-99474354D01*
X61534354Y-99599853D01*
X61386784Y-99698456D01*
X61222812Y-99766376D01*
X61073512Y-99796073D01*
X61048742Y-99801000D01*
X60871258Y-99801000D01*
X60846488Y-99796073D01*
X60697188Y-99766376D01*
X60533216Y-99698456D01*
X60385646Y-99599853D01*
X60260147Y-99474354D01*
X60161544Y-99326784D01*
X60093624Y-99162812D01*
X60059000Y-98988741D01*
X60059000Y-98811259D01*
X60093624Y-98637188D01*
X60161544Y-98473216D01*
X60260147Y-98325646D01*
X60385646Y-98200147D01*
X60533216Y-98101544D01*
X60697188Y-98033624D01*
X60846488Y-98003927D01*
X60871258Y-97999000D01*
X61048742Y-97999000D01*
X61073512Y-98003927D01*
G37*
G36*
X80861000Y-98641000D02*
G01*
X79159000Y-98641000D01*
X79159000Y-96939000D01*
X80861000Y-96939000D01*
X80861000Y-98641000D01*
G37*
G36*
X77758228Y-96971703D02*
G01*
X77913100Y-97035853D01*
X78052481Y-97128985D01*
X78171015Y-97247519D01*
X78264147Y-97386900D01*
X78328297Y-97541772D01*
X78361000Y-97706184D01*
X78361000Y-97873816D01*
X78328297Y-98038228D01*
X78264147Y-98193100D01*
X78171015Y-98332481D01*
X78052481Y-98451015D01*
X77913100Y-98544147D01*
X77758228Y-98608297D01*
X77593816Y-98641000D01*
X77426184Y-98641000D01*
X77261772Y-98608297D01*
X77106900Y-98544147D01*
X76967519Y-98451015D01*
X76848985Y-98332481D01*
X76755853Y-98193100D01*
X76691703Y-98038228D01*
X76659000Y-97873816D01*
X76659000Y-97706184D01*
X76691703Y-97541772D01*
X76755853Y-97386900D01*
X76848985Y-97247519D01*
X76967519Y-97128985D01*
X77106900Y-97035853D01*
X77261772Y-96971703D01*
X77426184Y-96939000D01*
X77593816Y-96939000D01*
X77758228Y-96971703D01*
G37*
G36*
X105658228Y-96971703D02*
G01*
X105813100Y-97035853D01*
X105952481Y-97128985D01*
X106071015Y-97247519D01*
X106164147Y-97386900D01*
X106228297Y-97541772D01*
X106261000Y-97706184D01*
X106261000Y-97873816D01*
X106228297Y-98038228D01*
X106164147Y-98193100D01*
X106071015Y-98332481D01*
X105952481Y-98451015D01*
X105813100Y-98544147D01*
X105658228Y-98608297D01*
X105493816Y-98641000D01*
X105326184Y-98641000D01*
X105161772Y-98608297D01*
X105006900Y-98544147D01*
X104867519Y-98451015D01*
X104748985Y-98332481D01*
X104655853Y-98193100D01*
X104591703Y-98038228D01*
X104559000Y-97873816D01*
X104559000Y-97706184D01*
X104591703Y-97541772D01*
X104655853Y-97386900D01*
X104748985Y-97247519D01*
X104867519Y-97128985D01*
X105006900Y-97035853D01*
X105161772Y-96971703D01*
X105326184Y-96939000D01*
X105493816Y-96939000D01*
X105658228Y-96971703D01*
G37*
G36*
X113278228Y-96971703D02*
G01*
X113433100Y-97035853D01*
X113572481Y-97128985D01*
X113691015Y-97247519D01*
X113784147Y-97386900D01*
X113848297Y-97541772D01*
X113881000Y-97706184D01*
X113881000Y-97873816D01*
X113848297Y-98038228D01*
X113784147Y-98193100D01*
X113691015Y-98332481D01*
X113572481Y-98451015D01*
X113433100Y-98544147D01*
X113278228Y-98608297D01*
X113113816Y-98641000D01*
X112946184Y-98641000D01*
X112781772Y-98608297D01*
X112626900Y-98544147D01*
X112487519Y-98451015D01*
X112368985Y-98332481D01*
X112275853Y-98193100D01*
X112211703Y-98038228D01*
X112179000Y-97873816D01*
X112179000Y-97706184D01*
X112211703Y-97541772D01*
X112275853Y-97386900D01*
X112368985Y-97247519D01*
X112487519Y-97128985D01*
X112626900Y-97035853D01*
X112781772Y-96971703D01*
X112946184Y-96939000D01*
X113113816Y-96939000D01*
X113278228Y-96971703D01*
G37*
G36*
X194529059Y-97067860D02*
G01*
X194614718Y-97103341D01*
X194665732Y-97124472D01*
X194788735Y-97206660D01*
X194893340Y-97311265D01*
X194975528Y-97434268D01*
X195032140Y-97570941D01*
X195061000Y-97716033D01*
X195061000Y-97863967D01*
X195032140Y-98009059D01*
X194975528Y-98145732D01*
X194893340Y-98268735D01*
X194788735Y-98373340D01*
X194665732Y-98455528D01*
X194665731Y-98455529D01*
X194665730Y-98455529D01*
X194529059Y-98512140D01*
X194383968Y-98541000D01*
X194236032Y-98541000D01*
X194090941Y-98512140D01*
X193954270Y-98455529D01*
X193954269Y-98455529D01*
X193954268Y-98455528D01*
X193831265Y-98373340D01*
X193726660Y-98268735D01*
X193644472Y-98145732D01*
X193587860Y-98009059D01*
X193559000Y-97863967D01*
X193559000Y-97716033D01*
X193587860Y-97570941D01*
X193644472Y-97434268D01*
X193726660Y-97311265D01*
X193831265Y-97206660D01*
X193954268Y-97124472D01*
X194005283Y-97103341D01*
X194090941Y-97067860D01*
X194236032Y-97039000D01*
X194383968Y-97039000D01*
X194529059Y-97067860D01*
G37*
G36*
X123398228Y-95701703D02*
G01*
X123553100Y-95765853D01*
X123692481Y-95858985D01*
X123811015Y-95977519D01*
X123904147Y-96116900D01*
X123968297Y-96271772D01*
X124001000Y-96436184D01*
X124001000Y-96603816D01*
X123968297Y-96768228D01*
X123904147Y-96923100D01*
X123811015Y-97062481D01*
X123692481Y-97181015D01*
X123553100Y-97274147D01*
X123398228Y-97338297D01*
X123233816Y-97371000D01*
X123066184Y-97371000D01*
X122901772Y-97338297D01*
X122746900Y-97274147D01*
X122607519Y-97181015D01*
X122488985Y-97062481D01*
X122395853Y-96923100D01*
X122331703Y-96768228D01*
X122299000Y-96603816D01*
X122299000Y-96436184D01*
X122331703Y-96271772D01*
X122395853Y-96116900D01*
X122488985Y-95977519D01*
X122607519Y-95858985D01*
X122746900Y-95765853D01*
X122901772Y-95701703D01*
X123066184Y-95669000D01*
X123233816Y-95669000D01*
X123398228Y-95701703D01*
G37*
G36*
X121501000Y-97371000D02*
G01*
X119799000Y-97371000D01*
X119799000Y-95669000D01*
X121501000Y-95669000D01*
X121501000Y-97371000D01*
G37*
G36*
X92929059Y-95797860D02*
G01*
X93065732Y-95854472D01*
X93188735Y-95936660D01*
X93293340Y-96041265D01*
X93375528Y-96164268D01*
X93432140Y-96300941D01*
X93461000Y-96446033D01*
X93461000Y-96593967D01*
X93432140Y-96739059D01*
X93375528Y-96875732D01*
X93293340Y-96998735D01*
X93188735Y-97103340D01*
X93065732Y-97185528D01*
X93065731Y-97185529D01*
X93065730Y-97185529D01*
X92929059Y-97242140D01*
X92783968Y-97271000D01*
X92636032Y-97271000D01*
X92490941Y-97242140D01*
X92354270Y-97185529D01*
X92354269Y-97185529D01*
X92354268Y-97185528D01*
X92231265Y-97103340D01*
X92126660Y-96998735D01*
X92044472Y-96875732D01*
X91987860Y-96739059D01*
X91959000Y-96593967D01*
X91959000Y-96446033D01*
X91987860Y-96300941D01*
X92044472Y-96164268D01*
X92126660Y-96041265D01*
X92231265Y-95936660D01*
X92354268Y-95854472D01*
X92490941Y-95797860D01*
X92636032Y-95769000D01*
X92783968Y-95769000D01*
X92929059Y-95797860D01*
G37*
G36*
X113278228Y-94431703D02*
G01*
X113433100Y-94495853D01*
X113572481Y-94588985D01*
X113691015Y-94707519D01*
X113784147Y-94846900D01*
X113848297Y-95001772D01*
X113881000Y-95166184D01*
X113881000Y-95333816D01*
X113848297Y-95498228D01*
X113784147Y-95653100D01*
X113691015Y-95792481D01*
X113572481Y-95911015D01*
X113433100Y-96004147D01*
X113278228Y-96068297D01*
X113113816Y-96101000D01*
X112946184Y-96101000D01*
X112781772Y-96068297D01*
X112626900Y-96004147D01*
X112487519Y-95911015D01*
X112368985Y-95792481D01*
X112275853Y-95653100D01*
X112211703Y-95498228D01*
X112179000Y-95333816D01*
X112179000Y-95166184D01*
X112211703Y-95001772D01*
X112275853Y-94846900D01*
X112368985Y-94707519D01*
X112487519Y-94588985D01*
X112626900Y-94495853D01*
X112781772Y-94431703D01*
X112946184Y-94399000D01*
X113113816Y-94399000D01*
X113278228Y-94431703D01*
G37*
G36*
X105658228Y-94431703D02*
G01*
X105813100Y-94495853D01*
X105952481Y-94588985D01*
X106071015Y-94707519D01*
X106164147Y-94846900D01*
X106228297Y-95001772D01*
X106261000Y-95166184D01*
X106261000Y-95333816D01*
X106228297Y-95498228D01*
X106164147Y-95653100D01*
X106071015Y-95792481D01*
X105952481Y-95911015D01*
X105813100Y-96004147D01*
X105658228Y-96068297D01*
X105493816Y-96101000D01*
X105326184Y-96101000D01*
X105161772Y-96068297D01*
X105006900Y-96004147D01*
X104867519Y-95911015D01*
X104748985Y-95792481D01*
X104655853Y-95653100D01*
X104591703Y-95498228D01*
X104559000Y-95333816D01*
X104559000Y-95166184D01*
X104591703Y-95001772D01*
X104655853Y-94846900D01*
X104748985Y-94707519D01*
X104867519Y-94588985D01*
X105006900Y-94495853D01*
X105161772Y-94431703D01*
X105326184Y-94399000D01*
X105493816Y-94399000D01*
X105658228Y-94431703D01*
G37*
G36*
X61072536Y-94003733D02*
G01*
X61222812Y-94033624D01*
X61386784Y-94101544D01*
X61534354Y-94200147D01*
X61659853Y-94325646D01*
X61758456Y-94473216D01*
X61826376Y-94637188D01*
X61861000Y-94811259D01*
X61861000Y-94988741D01*
X61826376Y-95162812D01*
X61758456Y-95326784D01*
X61659853Y-95474354D01*
X61534354Y-95599853D01*
X61386784Y-95698456D01*
X61222812Y-95766376D01*
X61073512Y-95796073D01*
X61048742Y-95801000D01*
X60871258Y-95801000D01*
X60846488Y-95796073D01*
X60697188Y-95766376D01*
X60533216Y-95698456D01*
X60385646Y-95599853D01*
X60260147Y-95474354D01*
X60161544Y-95326784D01*
X60093624Y-95162812D01*
X60059000Y-94988741D01*
X60059000Y-94811259D01*
X60093624Y-94637188D01*
X60161544Y-94473216D01*
X60260147Y-94325646D01*
X60385646Y-94200147D01*
X60533216Y-94101544D01*
X60697188Y-94033624D01*
X60847464Y-94003733D01*
X60871258Y-93999000D01*
X61048742Y-93999000D01*
X61072536Y-94003733D01*
G37*
G36*
X156109076Y-92783967D02*
G01*
X156204059Y-92802860D01*
X156340732Y-92859472D01*
X156463735Y-92941660D01*
X156568340Y-93046265D01*
X156650528Y-93169268D01*
X156650529Y-93169270D01*
X156707140Y-93305941D01*
X156720982Y-93375528D01*
X156736000Y-93451033D01*
X156736000Y-93598967D01*
X156707140Y-93744059D01*
X156650528Y-93880732D01*
X156568340Y-94003735D01*
X156463735Y-94108340D01*
X156340732Y-94190528D01*
X156340731Y-94190529D01*
X156340730Y-94190529D01*
X156204059Y-94247140D01*
X156058968Y-94276000D01*
X155911032Y-94276000D01*
X155765941Y-94247140D01*
X155629270Y-94190529D01*
X155629269Y-94190529D01*
X155629268Y-94190528D01*
X155506265Y-94108340D01*
X155401660Y-94003735D01*
X155319472Y-93880732D01*
X155262860Y-93744059D01*
X155234000Y-93598967D01*
X155234000Y-93451033D01*
X155249019Y-93375528D01*
X155262860Y-93305941D01*
X155319471Y-93169270D01*
X155319472Y-93169268D01*
X155401660Y-93046265D01*
X155506265Y-92941660D01*
X155629268Y-92859472D01*
X155765941Y-92802860D01*
X155860924Y-92783967D01*
X155911032Y-92774000D01*
X156058968Y-92774000D01*
X156109076Y-92783967D01*
G37*
G36*
X161189076Y-92783967D02*
G01*
X161284059Y-92802860D01*
X161420732Y-92859472D01*
X161543735Y-92941660D01*
X161648340Y-93046265D01*
X161730528Y-93169268D01*
X161730529Y-93169270D01*
X161787140Y-93305941D01*
X161800982Y-93375528D01*
X161816000Y-93451033D01*
X161816000Y-93598967D01*
X161787140Y-93744059D01*
X161730528Y-93880732D01*
X161648340Y-94003735D01*
X161543735Y-94108340D01*
X161420732Y-94190528D01*
X161420731Y-94190529D01*
X161420730Y-94190529D01*
X161284059Y-94247140D01*
X161138968Y-94276000D01*
X160991032Y-94276000D01*
X160845941Y-94247140D01*
X160709270Y-94190529D01*
X160709269Y-94190529D01*
X160709268Y-94190528D01*
X160586265Y-94108340D01*
X160481660Y-94003735D01*
X160399472Y-93880732D01*
X160342860Y-93744059D01*
X160314000Y-93598967D01*
X160314000Y-93451033D01*
X160329019Y-93375528D01*
X160342860Y-93305941D01*
X160399471Y-93169270D01*
X160399472Y-93169268D01*
X160481660Y-93046265D01*
X160586265Y-92941660D01*
X160709268Y-92859472D01*
X160845941Y-92802860D01*
X160940924Y-92783967D01*
X160991032Y-92774000D01*
X161138968Y-92774000D01*
X161189076Y-92783967D01*
G37*
G36*
X113278228Y-91891703D02*
G01*
X113433100Y-91955853D01*
X113572481Y-92048985D01*
X113691015Y-92167519D01*
X113784147Y-92306900D01*
X113848297Y-92461772D01*
X113881000Y-92626184D01*
X113881000Y-92793816D01*
X113848297Y-92958228D01*
X113784147Y-93113100D01*
X113691015Y-93252481D01*
X113572481Y-93371015D01*
X113433100Y-93464147D01*
X113278228Y-93528297D01*
X113113816Y-93561000D01*
X112946184Y-93561000D01*
X112781772Y-93528297D01*
X112626900Y-93464147D01*
X112487519Y-93371015D01*
X112368985Y-93252481D01*
X112275853Y-93113100D01*
X112211703Y-92958228D01*
X112179000Y-92793816D01*
X112179000Y-92626184D01*
X112211703Y-92461772D01*
X112275853Y-92306900D01*
X112368985Y-92167519D01*
X112487519Y-92048985D01*
X112626900Y-91955853D01*
X112781772Y-91891703D01*
X112946184Y-91859000D01*
X113113816Y-91859000D01*
X113278228Y-91891703D01*
G37*
G36*
X105658228Y-91891703D02*
G01*
X105813100Y-91955853D01*
X105952481Y-92048985D01*
X106071015Y-92167519D01*
X106164147Y-92306900D01*
X106228297Y-92461772D01*
X106261000Y-92626184D01*
X106261000Y-92793816D01*
X106228297Y-92958228D01*
X106164147Y-93113100D01*
X106071015Y-93252481D01*
X105952481Y-93371015D01*
X105813100Y-93464147D01*
X105658228Y-93528297D01*
X105493816Y-93561000D01*
X105326184Y-93561000D01*
X105161772Y-93528297D01*
X105006900Y-93464147D01*
X104867519Y-93371015D01*
X104748985Y-93252481D01*
X104655853Y-93113100D01*
X104591703Y-92958228D01*
X104559000Y-92793816D01*
X104559000Y-92626184D01*
X104591703Y-92461772D01*
X104655853Y-92306900D01*
X104748985Y-92167519D01*
X104867519Y-92048985D01*
X105006900Y-91955853D01*
X105161772Y-91891703D01*
X105326184Y-91859000D01*
X105493816Y-91859000D01*
X105658228Y-91891703D01*
G37*
G36*
X92929059Y-91987860D02*
G01*
X93065732Y-92044472D01*
X93188735Y-92126660D01*
X93293340Y-92231265D01*
X93375528Y-92354268D01*
X93375529Y-92354270D01*
X93432140Y-92490941D01*
X93461000Y-92636032D01*
X93461000Y-92783968D01*
X93432140Y-92929059D01*
X93375528Y-93065732D01*
X93293340Y-93188735D01*
X93188735Y-93293340D01*
X93065732Y-93375528D01*
X93065731Y-93375529D01*
X93065730Y-93375529D01*
X92929059Y-93432140D01*
X92783968Y-93461000D01*
X92636032Y-93461000D01*
X92490941Y-93432140D01*
X92354270Y-93375529D01*
X92354269Y-93375529D01*
X92354268Y-93375528D01*
X92231265Y-93293340D01*
X92126660Y-93188735D01*
X92044472Y-93065732D01*
X91987860Y-92929059D01*
X91959000Y-92783968D01*
X91959000Y-92636032D01*
X91987860Y-92490941D01*
X92044471Y-92354270D01*
X92044472Y-92354268D01*
X92126660Y-92231265D01*
X92231265Y-92126660D01*
X92354268Y-92044472D01*
X92490941Y-91987860D01*
X92636032Y-91959000D01*
X92783968Y-91959000D01*
X92929059Y-91987860D01*
G37*
G36*
X194529059Y-91987860D02*
G01*
X194665732Y-92044472D01*
X194788735Y-92126660D01*
X194893340Y-92231265D01*
X194975528Y-92354268D01*
X194975529Y-92354270D01*
X195032140Y-92490941D01*
X195061000Y-92636032D01*
X195061000Y-92783968D01*
X195032140Y-92929059D01*
X194975528Y-93065732D01*
X194893340Y-93188735D01*
X194788735Y-93293340D01*
X194665732Y-93375528D01*
X194665731Y-93375529D01*
X194665730Y-93375529D01*
X194529059Y-93432140D01*
X194383968Y-93461000D01*
X194236032Y-93461000D01*
X194090941Y-93432140D01*
X193954270Y-93375529D01*
X193954269Y-93375529D01*
X193954268Y-93375528D01*
X193831265Y-93293340D01*
X193726660Y-93188735D01*
X193644472Y-93065732D01*
X193587860Y-92929059D01*
X193559000Y-92783968D01*
X193559000Y-92636032D01*
X193587860Y-92490941D01*
X193644471Y-92354270D01*
X193644472Y-92354268D01*
X193726660Y-92231265D01*
X193831265Y-92126660D01*
X193954268Y-92044472D01*
X194090941Y-91987860D01*
X194236032Y-91959000D01*
X194383968Y-91959000D01*
X194529059Y-91987860D01*
G37*
G36*
X61073512Y-90003927D02*
G01*
X61222812Y-90033624D01*
X61386784Y-90101544D01*
X61534354Y-90200147D01*
X61659853Y-90325646D01*
X61758456Y-90473216D01*
X61826376Y-90637188D01*
X61861000Y-90811259D01*
X61861000Y-90988741D01*
X61826376Y-91162812D01*
X61758456Y-91326784D01*
X61659853Y-91474354D01*
X61534354Y-91599853D01*
X61386784Y-91698456D01*
X61222812Y-91766376D01*
X61073512Y-91796073D01*
X61048742Y-91801000D01*
X60871258Y-91801000D01*
X60846488Y-91796073D01*
X60697188Y-91766376D01*
X60533216Y-91698456D01*
X60385646Y-91599853D01*
X60260147Y-91474354D01*
X60161544Y-91326784D01*
X60093624Y-91162812D01*
X60059000Y-90988741D01*
X60059000Y-90811259D01*
X60093624Y-90637188D01*
X60161544Y-90473216D01*
X60260147Y-90325646D01*
X60385646Y-90200147D01*
X60533216Y-90101544D01*
X60697188Y-90033624D01*
X60846488Y-90003927D01*
X60871258Y-89999000D01*
X61048742Y-89999000D01*
X61073512Y-90003927D01*
G37*
G36*
X113278228Y-89351703D02*
G01*
X113433100Y-89415853D01*
X113572481Y-89508985D01*
X113691015Y-89627519D01*
X113784147Y-89766900D01*
X113848297Y-89921772D01*
X113881000Y-90086184D01*
X113881000Y-90253816D01*
X113848297Y-90418228D01*
X113784147Y-90573100D01*
X113691015Y-90712481D01*
X113572481Y-90831015D01*
X113433100Y-90924147D01*
X113278228Y-90988297D01*
X113113816Y-91021000D01*
X112946184Y-91021000D01*
X112781772Y-90988297D01*
X112626900Y-90924147D01*
X112487519Y-90831015D01*
X112368985Y-90712481D01*
X112275853Y-90573100D01*
X112211703Y-90418228D01*
X112179000Y-90253816D01*
X112179000Y-90086184D01*
X112211703Y-89921772D01*
X112275853Y-89766900D01*
X112368985Y-89627519D01*
X112487519Y-89508985D01*
X112626900Y-89415853D01*
X112781772Y-89351703D01*
X112946184Y-89319000D01*
X113113816Y-89319000D01*
X113278228Y-89351703D01*
G37*
G36*
X106261000Y-91021000D02*
G01*
X104559000Y-91021000D01*
X104559000Y-89319000D01*
X106261000Y-89319000D01*
X106261000Y-91021000D01*
G37*
G36*
X57016564Y-87889389D02*
G01*
X57207833Y-87968615D01*
X57207835Y-87968616D01*
X57379973Y-88083635D01*
X57526365Y-88230027D01*
X57641385Y-88402167D01*
X57720611Y-88593436D01*
X57761000Y-88796484D01*
X57761000Y-89003516D01*
X57720611Y-89206564D01*
X57641385Y-89397833D01*
X57641384Y-89397835D01*
X57526365Y-89569973D01*
X57379973Y-89716365D01*
X57207835Y-89831384D01*
X57207834Y-89831385D01*
X57207833Y-89831385D01*
X57016564Y-89910611D01*
X56813516Y-89951000D01*
X56606484Y-89951000D01*
X56403436Y-89910611D01*
X56212167Y-89831385D01*
X56212166Y-89831385D01*
X56212165Y-89831384D01*
X56040027Y-89716365D01*
X55893635Y-89569973D01*
X55778616Y-89397835D01*
X55778615Y-89397833D01*
X55699389Y-89206564D01*
X55659000Y-89003516D01*
X55659000Y-88796484D01*
X55699389Y-88593436D01*
X55778615Y-88402167D01*
X55893635Y-88230027D01*
X56040027Y-88083635D01*
X56212165Y-87968616D01*
X56212167Y-87968615D01*
X56403436Y-87889389D01*
X56606484Y-87849000D01*
X56813516Y-87849000D01*
X57016564Y-87889389D01*
G37*
G36*
X63016564Y-87889389D02*
G01*
X63207833Y-87968615D01*
X63207835Y-87968616D01*
X63379973Y-88083635D01*
X63526365Y-88230027D01*
X63641385Y-88402167D01*
X63720611Y-88593436D01*
X63761000Y-88796484D01*
X63761000Y-89003516D01*
X63720611Y-89206564D01*
X63641385Y-89397833D01*
X63641384Y-89397835D01*
X63526365Y-89569973D01*
X63379973Y-89716365D01*
X63207835Y-89831384D01*
X63207834Y-89831385D01*
X63207833Y-89831385D01*
X63016564Y-89910611D01*
X62813516Y-89951000D01*
X62606484Y-89951000D01*
X62403436Y-89910611D01*
X62212167Y-89831385D01*
X62212166Y-89831385D01*
X62212165Y-89831384D01*
X62040027Y-89716365D01*
X61893635Y-89569973D01*
X61778616Y-89397835D01*
X61778615Y-89397833D01*
X61699389Y-89206564D01*
X61659000Y-89003516D01*
X61659000Y-88796484D01*
X61699389Y-88593436D01*
X61778615Y-88402167D01*
X61893635Y-88230027D01*
X62040027Y-88083635D01*
X62212165Y-87968616D01*
X62212167Y-87968615D01*
X62403436Y-87889389D01*
X62606484Y-87849000D01*
X62813516Y-87849000D01*
X63016564Y-87889389D01*
G37*
G36*
X136109059Y-88177860D02*
G01*
X136194718Y-88213341D01*
X136245732Y-88234472D01*
X136368735Y-88316660D01*
X136473340Y-88421265D01*
X136473341Y-88421267D01*
X136555529Y-88544270D01*
X136612140Y-88680941D01*
X136641000Y-88826032D01*
X136641000Y-88973968D01*
X136612140Y-89119059D01*
X136555528Y-89255732D01*
X136473340Y-89378735D01*
X136368735Y-89483340D01*
X136245732Y-89565528D01*
X136245731Y-89565529D01*
X136245730Y-89565529D01*
X136109059Y-89622140D01*
X135963968Y-89651000D01*
X135816032Y-89651000D01*
X135670941Y-89622140D01*
X135534270Y-89565529D01*
X135534269Y-89565529D01*
X135534268Y-89565528D01*
X135411265Y-89483340D01*
X135306660Y-89378735D01*
X135224472Y-89255732D01*
X135167860Y-89119059D01*
X135139000Y-88973968D01*
X135139000Y-88826032D01*
X135167860Y-88680941D01*
X135224471Y-88544270D01*
X135306659Y-88421267D01*
X135306660Y-88421265D01*
X135411265Y-88316660D01*
X135534268Y-88234472D01*
X135585283Y-88213341D01*
X135670941Y-88177860D01*
X135816032Y-88149000D01*
X135963968Y-88149000D01*
X136109059Y-88177860D01*
G37*
G36*
X131029059Y-88177860D02*
G01*
X131114718Y-88213341D01*
X131165732Y-88234472D01*
X131288735Y-88316660D01*
X131393340Y-88421265D01*
X131393341Y-88421267D01*
X131475529Y-88544270D01*
X131532140Y-88680941D01*
X131561000Y-88826032D01*
X131561000Y-88973968D01*
X131532140Y-89119059D01*
X131475528Y-89255732D01*
X131393340Y-89378735D01*
X131288735Y-89483340D01*
X131165732Y-89565528D01*
X131165731Y-89565529D01*
X131165730Y-89565529D01*
X131029059Y-89622140D01*
X130883968Y-89651000D01*
X130736032Y-89651000D01*
X130590941Y-89622140D01*
X130454270Y-89565529D01*
X130454269Y-89565529D01*
X130454268Y-89565528D01*
X130331265Y-89483340D01*
X130226660Y-89378735D01*
X130144472Y-89255732D01*
X130087860Y-89119059D01*
X130059000Y-88973968D01*
X130059000Y-88826032D01*
X130087860Y-88680941D01*
X130144471Y-88544270D01*
X130226659Y-88421267D01*
X130226660Y-88421265D01*
X130331265Y-88316660D01*
X130454268Y-88234472D01*
X130505283Y-88213341D01*
X130590941Y-88177860D01*
X130736032Y-88149000D01*
X130883968Y-88149000D01*
X131029059Y-88177860D01*
G37*
G36*
X92929059Y-86907860D02*
G01*
X93065732Y-86964472D01*
X93188735Y-87046660D01*
X93293340Y-87151265D01*
X93375528Y-87274268D01*
X93432140Y-87410941D01*
X93461000Y-87556033D01*
X93461000Y-87703967D01*
X93432140Y-87849059D01*
X93375528Y-87985732D01*
X93293340Y-88108735D01*
X93188735Y-88213340D01*
X93065732Y-88295528D01*
X93065731Y-88295529D01*
X93065730Y-88295529D01*
X92929059Y-88352140D01*
X92783968Y-88381000D01*
X92636032Y-88381000D01*
X92490941Y-88352140D01*
X92354270Y-88295529D01*
X92354269Y-88295529D01*
X92354268Y-88295528D01*
X92231265Y-88213340D01*
X92126660Y-88108735D01*
X92044472Y-87985732D01*
X91987860Y-87849059D01*
X91959000Y-87703967D01*
X91959000Y-87556033D01*
X91987860Y-87410941D01*
X92044472Y-87274268D01*
X92126660Y-87151265D01*
X92231265Y-87046660D01*
X92354268Y-86964472D01*
X92490941Y-86907860D01*
X92636032Y-86879000D01*
X92783968Y-86879000D01*
X92929059Y-86907860D01*
G37*
G36*
X79042585Y-84478802D02*
G01*
X79192410Y-84508604D01*
X79474674Y-84625521D01*
X79728705Y-84795259D01*
X79944741Y-85011295D01*
X80114479Y-85265326D01*
X80231396Y-85547590D01*
X80291000Y-85847240D01*
X80291000Y-86152760D01*
X80231396Y-86452410D01*
X80114479Y-86734674D01*
X79944741Y-86988705D01*
X79728705Y-87204741D01*
X79474674Y-87374479D01*
X79192410Y-87491396D01*
X79042585Y-87521198D01*
X78892761Y-87551000D01*
X78587239Y-87551000D01*
X78437415Y-87521198D01*
X78287590Y-87491396D01*
X78005326Y-87374479D01*
X77751295Y-87204741D01*
X77535259Y-86988705D01*
X77365521Y-86734674D01*
X77248604Y-86452410D01*
X77189000Y-86152760D01*
X77189000Y-85847240D01*
X77248604Y-85547590D01*
X77365521Y-85265326D01*
X77535259Y-85011295D01*
X77751295Y-84795259D01*
X78005326Y-84625521D01*
X78287590Y-84508604D01*
X78437415Y-84478802D01*
X78587239Y-84449000D01*
X78892761Y-84449000D01*
X79042585Y-84478802D01*
G37*
G36*
X62896366Y-80385695D02*
G01*
X63053460Y-80433349D01*
X63198231Y-80510731D01*
X63325128Y-80614872D01*
X63429269Y-80741769D01*
X63506651Y-80886540D01*
X63554305Y-81043634D01*
X63571000Y-81213140D01*
X63571000Y-83126860D01*
X63554305Y-83296366D01*
X63506651Y-83453460D01*
X63429269Y-83598231D01*
X63325128Y-83725128D01*
X63198231Y-83829269D01*
X63053460Y-83906651D01*
X62896366Y-83954305D01*
X62726860Y-83971000D01*
X60813140Y-83971000D01*
X60643634Y-83954305D01*
X60486540Y-83906651D01*
X60341769Y-83829269D01*
X60214872Y-83725128D01*
X60110731Y-83598231D01*
X60033349Y-83453460D01*
X59985695Y-83296366D01*
X59969000Y-83126860D01*
X59969000Y-81213140D01*
X59985695Y-81043634D01*
X60033349Y-80886540D01*
X60110731Y-80741769D01*
X60214872Y-80614872D01*
X60341769Y-80510731D01*
X60486540Y-80433349D01*
X60643634Y-80385695D01*
X60813140Y-80369000D01*
X62726860Y-80369000D01*
X62896366Y-80385695D01*
G37*
G36*
X101181000Y-83401000D02*
G01*
X99479000Y-83401000D01*
X99479000Y-81699000D01*
X101181000Y-81699000D01*
X101181000Y-83401000D01*
G37*
G36*
X184398228Y-81731703D02*
G01*
X184553100Y-81795853D01*
X184692481Y-81888985D01*
X184811015Y-82007519D01*
X184904147Y-82146900D01*
X184968297Y-82301772D01*
X185001000Y-82466184D01*
X185001000Y-82633816D01*
X184968297Y-82798228D01*
X184904147Y-82953100D01*
X184811015Y-83092481D01*
X184692481Y-83211015D01*
X184553100Y-83304147D01*
X184398228Y-83368297D01*
X184233816Y-83401000D01*
X184066184Y-83401000D01*
X183901772Y-83368297D01*
X183746900Y-83304147D01*
X183607519Y-83211015D01*
X183488985Y-83092481D01*
X183395853Y-82953100D01*
X183331703Y-82798228D01*
X183299000Y-82633816D01*
X183299000Y-82466184D01*
X183331703Y-82301772D01*
X183395853Y-82146900D01*
X183488985Y-82007519D01*
X183607519Y-81888985D01*
X183746900Y-81795853D01*
X183901772Y-81731703D01*
X184066184Y-81699000D01*
X184233816Y-81699000D01*
X184398228Y-81731703D01*
G37*
G36*
X181858228Y-81731703D02*
G01*
X182013100Y-81795853D01*
X182152481Y-81888985D01*
X182271015Y-82007519D01*
X182364147Y-82146900D01*
X182428297Y-82301772D01*
X182461000Y-82466184D01*
X182461000Y-82633816D01*
X182428297Y-82798228D01*
X182364147Y-82953100D01*
X182271015Y-83092481D01*
X182152481Y-83211015D01*
X182013100Y-83304147D01*
X181858228Y-83368297D01*
X181693816Y-83401000D01*
X181526184Y-83401000D01*
X181361772Y-83368297D01*
X181206900Y-83304147D01*
X181067519Y-83211015D01*
X180948985Y-83092481D01*
X180855853Y-82953100D01*
X180791703Y-82798228D01*
X180759000Y-82633816D01*
X180759000Y-82466184D01*
X180791703Y-82301772D01*
X180855853Y-82146900D01*
X180948985Y-82007519D01*
X181067519Y-81888985D01*
X181206900Y-81795853D01*
X181361772Y-81731703D01*
X181526184Y-81699000D01*
X181693816Y-81699000D01*
X181858228Y-81731703D01*
G37*
G36*
X179318228Y-81731703D02*
G01*
X179473100Y-81795853D01*
X179612481Y-81888985D01*
X179731015Y-82007519D01*
X179824147Y-82146900D01*
X179888297Y-82301772D01*
X179921000Y-82466184D01*
X179921000Y-82633816D01*
X179888297Y-82798228D01*
X179824147Y-82953100D01*
X179731015Y-83092481D01*
X179612481Y-83211015D01*
X179473100Y-83304147D01*
X179318228Y-83368297D01*
X179153816Y-83401000D01*
X178986184Y-83401000D01*
X178821772Y-83368297D01*
X178666900Y-83304147D01*
X178527519Y-83211015D01*
X178408985Y-83092481D01*
X178315853Y-82953100D01*
X178251703Y-82798228D01*
X178219000Y-82633816D01*
X178219000Y-82466184D01*
X178251703Y-82301772D01*
X178315853Y-82146900D01*
X178408985Y-82007519D01*
X178527519Y-81888985D01*
X178666900Y-81795853D01*
X178821772Y-81731703D01*
X178986184Y-81699000D01*
X179153816Y-81699000D01*
X179318228Y-81731703D01*
G37*
G36*
X176778228Y-81731703D02*
G01*
X176933100Y-81795853D01*
X177072481Y-81888985D01*
X177191015Y-82007519D01*
X177284147Y-82146900D01*
X177348297Y-82301772D01*
X177381000Y-82466184D01*
X177381000Y-82633816D01*
X177348297Y-82798228D01*
X177284147Y-82953100D01*
X177191015Y-83092481D01*
X177072481Y-83211015D01*
X176933100Y-83304147D01*
X176778228Y-83368297D01*
X176613816Y-83401000D01*
X176446184Y-83401000D01*
X176281772Y-83368297D01*
X176126900Y-83304147D01*
X175987519Y-83211015D01*
X175868985Y-83092481D01*
X175775853Y-82953100D01*
X175711703Y-82798228D01*
X175679000Y-82633816D01*
X175679000Y-82466184D01*
X175711703Y-82301772D01*
X175775853Y-82146900D01*
X175868985Y-82007519D01*
X175987519Y-81888985D01*
X176126900Y-81795853D01*
X176281772Y-81731703D01*
X176446184Y-81699000D01*
X176613816Y-81699000D01*
X176778228Y-81731703D01*
G37*
G36*
X112611000Y-83401000D02*
G01*
X110909000Y-83401000D01*
X110909000Y-81699000D01*
X112611000Y-81699000D01*
X112611000Y-83401000D01*
G37*
G36*
X100578228Y-79231703D02*
G01*
X100733100Y-79295853D01*
X100872481Y-79388985D01*
X100991015Y-79507519D01*
X101084147Y-79646900D01*
X101148297Y-79801772D01*
X101181000Y-79966184D01*
X101181000Y-80133816D01*
X101148297Y-80298228D01*
X101084147Y-80453100D01*
X100991015Y-80592481D01*
X100872481Y-80711015D01*
X100733100Y-80804147D01*
X100578228Y-80868297D01*
X100413816Y-80901000D01*
X100246184Y-80901000D01*
X100081772Y-80868297D01*
X99926900Y-80804147D01*
X99787519Y-80711015D01*
X99668985Y-80592481D01*
X99575853Y-80453100D01*
X99511703Y-80298228D01*
X99479000Y-80133816D01*
X99479000Y-79966184D01*
X99511703Y-79801772D01*
X99575853Y-79646900D01*
X99668985Y-79507519D01*
X99787519Y-79388985D01*
X99926900Y-79295853D01*
X100081772Y-79231703D01*
X100246184Y-79199000D01*
X100413816Y-79199000D01*
X100578228Y-79231703D01*
G37*
G36*
X112008228Y-79231703D02*
G01*
X112163100Y-79295853D01*
X112302481Y-79388985D01*
X112421015Y-79507519D01*
X112514147Y-79646900D01*
X112578297Y-79801772D01*
X112611000Y-79966184D01*
X112611000Y-80133816D01*
X112578297Y-80298228D01*
X112514147Y-80453100D01*
X112421015Y-80592481D01*
X112302481Y-80711015D01*
X112163100Y-80804147D01*
X112008228Y-80868297D01*
X111843816Y-80901000D01*
X111676184Y-80901000D01*
X111511772Y-80868297D01*
X111356900Y-80804147D01*
X111217519Y-80711015D01*
X111098985Y-80592481D01*
X111005853Y-80453100D01*
X110941703Y-80298228D01*
X110909000Y-80133816D01*
X110909000Y-79966184D01*
X110941703Y-79801772D01*
X111005853Y-79646900D01*
X111098985Y-79507519D01*
X111217519Y-79388985D01*
X111356900Y-79295853D01*
X111511772Y-79231703D01*
X111676184Y-79199000D01*
X111843816Y-79199000D01*
X112008228Y-79231703D01*
G37*
G36*
X137726823Y-79171313D02*
G01*
X137887242Y-79219976D01*
X137982701Y-79271000D01*
X138035078Y-79298996D01*
X138164659Y-79405341D01*
X138271004Y-79534922D01*
X138271005Y-79534924D01*
X138350024Y-79682758D01*
X138398687Y-79843177D01*
X138415117Y-80010000D01*
X138398687Y-80176823D01*
X138350024Y-80337242D01*
X138279114Y-80469906D01*
X138271004Y-80485078D01*
X138164659Y-80614659D01*
X138035078Y-80721004D01*
X138035076Y-80721005D01*
X137887242Y-80800024D01*
X137887239Y-80800025D01*
X137873647Y-80804148D01*
X137726823Y-80848687D01*
X137601804Y-80861000D01*
X136718196Y-80861000D01*
X136593177Y-80848687D01*
X136446353Y-80804148D01*
X136432761Y-80800025D01*
X136432758Y-80800024D01*
X136284924Y-80721005D01*
X136284922Y-80721004D01*
X136155341Y-80614659D01*
X136048996Y-80485078D01*
X136040886Y-80469906D01*
X135969976Y-80337242D01*
X135921313Y-80176823D01*
X135904883Y-80010000D01*
X135921313Y-79843177D01*
X135969976Y-79682758D01*
X136048995Y-79534924D01*
X136048996Y-79534922D01*
X136155341Y-79405341D01*
X136284922Y-79298996D01*
X136337299Y-79271000D01*
X136432758Y-79219976D01*
X136593177Y-79171313D01*
X136718196Y-79159000D01*
X137601804Y-79159000D01*
X137726823Y-79171313D01*
G37*
G36*
X130106823Y-79171313D02*
G01*
X130267242Y-79219976D01*
X130362701Y-79271000D01*
X130415078Y-79298996D01*
X130544659Y-79405341D01*
X130651004Y-79534922D01*
X130651005Y-79534924D01*
X130730024Y-79682758D01*
X130778687Y-79843177D01*
X130795117Y-80010000D01*
X130778687Y-80176823D01*
X130730024Y-80337242D01*
X130659114Y-80469906D01*
X130651004Y-80485078D01*
X130544659Y-80614659D01*
X130415078Y-80721004D01*
X130415076Y-80721005D01*
X130267242Y-80800024D01*
X130267239Y-80800025D01*
X130253647Y-80804148D01*
X130106823Y-80848687D01*
X129981804Y-80861000D01*
X129098196Y-80861000D01*
X128973177Y-80848687D01*
X128826353Y-80804148D01*
X128812761Y-80800025D01*
X128812758Y-80800024D01*
X128664924Y-80721005D01*
X128664922Y-80721004D01*
X128535341Y-80614659D01*
X128428996Y-80485078D01*
X128420886Y-80469906D01*
X128349976Y-80337242D01*
X128301313Y-80176823D01*
X128284883Y-80010000D01*
X128301313Y-79843177D01*
X128349976Y-79682758D01*
X128428995Y-79534924D01*
X128428996Y-79534922D01*
X128535341Y-79405341D01*
X128664922Y-79298996D01*
X128717299Y-79271000D01*
X128812758Y-79219976D01*
X128973177Y-79171313D01*
X129098196Y-79159000D01*
X129981804Y-79159000D01*
X130106823Y-79171313D01*
G37*
G36*
X152619059Y-79287860D02*
G01*
X152755732Y-79344472D01*
X152878735Y-79426660D01*
X152983340Y-79531265D01*
X153065528Y-79654268D01*
X153122140Y-79790941D01*
X153151000Y-79936033D01*
X153151000Y-80083967D01*
X153122140Y-80229059D01*
X153065528Y-80365732D01*
X152983340Y-80488735D01*
X152878735Y-80593340D01*
X152755732Y-80675528D01*
X152755731Y-80675529D01*
X152755730Y-80675529D01*
X152619059Y-80732140D01*
X152473968Y-80761000D01*
X152326032Y-80761000D01*
X152180941Y-80732140D01*
X152044270Y-80675529D01*
X152044269Y-80675529D01*
X152044268Y-80675528D01*
X151921265Y-80593340D01*
X151816660Y-80488735D01*
X151734472Y-80365732D01*
X151677860Y-80229059D01*
X151649000Y-80083967D01*
X151649000Y-79936033D01*
X151677860Y-79790941D01*
X151734472Y-79654268D01*
X151816660Y-79531265D01*
X151921265Y-79426660D01*
X152044268Y-79344472D01*
X152180941Y-79287860D01*
X152326032Y-79259000D01*
X152473968Y-79259000D01*
X152619059Y-79287860D01*
G37*
G36*
X146269059Y-79287860D02*
G01*
X146405732Y-79344472D01*
X146528735Y-79426660D01*
X146633340Y-79531265D01*
X146715528Y-79654268D01*
X146772140Y-79790941D01*
X146801000Y-79936033D01*
X146801000Y-80083967D01*
X146772140Y-80229059D01*
X146715528Y-80365732D01*
X146633340Y-80488735D01*
X146528735Y-80593340D01*
X146405732Y-80675528D01*
X146405731Y-80675529D01*
X146405730Y-80675529D01*
X146269059Y-80732140D01*
X146123968Y-80761000D01*
X145976032Y-80761000D01*
X145830941Y-80732140D01*
X145694270Y-80675529D01*
X145694269Y-80675529D01*
X145694268Y-80675528D01*
X145571265Y-80593340D01*
X145466660Y-80488735D01*
X145384472Y-80365732D01*
X145327860Y-80229059D01*
X145299000Y-80083967D01*
X145299000Y-79936033D01*
X145327860Y-79790941D01*
X145384472Y-79654268D01*
X145466660Y-79531265D01*
X145571265Y-79426660D01*
X145694268Y-79344472D01*
X145830941Y-79287860D01*
X145976032Y-79259000D01*
X146123968Y-79259000D01*
X146269059Y-79287860D01*
G37*
G36*
X66571000Y-79271000D02*
G01*
X62969000Y-79271000D01*
X62969000Y-75669000D01*
X66571000Y-75669000D01*
X66571000Y-79271000D01*
G37*
G36*
X59746979Y-75683293D02*
G01*
X59880625Y-75723834D01*
X60003784Y-75789664D01*
X60111740Y-75878260D01*
X60200336Y-75986216D01*
X60266166Y-76109375D01*
X60306707Y-76243021D01*
X60321000Y-76388140D01*
X60321000Y-78551860D01*
X60306707Y-78696979D01*
X60266166Y-78830625D01*
X60200336Y-78953784D01*
X60111740Y-79061740D01*
X60003784Y-79150336D01*
X59880625Y-79216166D01*
X59746979Y-79256707D01*
X59601860Y-79271000D01*
X57938140Y-79271000D01*
X57793021Y-79256707D01*
X57659375Y-79216166D01*
X57536216Y-79150336D01*
X57428260Y-79061740D01*
X57339664Y-78953784D01*
X57273834Y-78830625D01*
X57233293Y-78696979D01*
X57219000Y-78551860D01*
X57219000Y-76388140D01*
X57233293Y-76243021D01*
X57273834Y-76109375D01*
X57339664Y-75986216D01*
X57428260Y-75878260D01*
X57536216Y-75789664D01*
X57659375Y-75723834D01*
X57793021Y-75683293D01*
X57938140Y-75669000D01*
X59601860Y-75669000D01*
X59746979Y-75683293D01*
G37*
G36*
X130106823Y-76631313D02*
G01*
X130237380Y-76670917D01*
X130263145Y-76678733D01*
X130267242Y-76679976D01*
X130399906Y-76750886D01*
X130415078Y-76758996D01*
X130544659Y-76865341D01*
X130651004Y-76994922D01*
X130651005Y-76994924D01*
X130730024Y-77142758D01*
X130778687Y-77303177D01*
X130795117Y-77470000D01*
X130778687Y-77636823D01*
X130730024Y-77797242D01*
X130659114Y-77929906D01*
X130651004Y-77945078D01*
X130544659Y-78074659D01*
X130415078Y-78181004D01*
X130415076Y-78181005D01*
X130267242Y-78260024D01*
X130106823Y-78308687D01*
X129981804Y-78321000D01*
X129098196Y-78321000D01*
X128973177Y-78308687D01*
X128812758Y-78260024D01*
X128664924Y-78181005D01*
X128664922Y-78181004D01*
X128535341Y-78074659D01*
X128428996Y-77945078D01*
X128420886Y-77929906D01*
X128349976Y-77797242D01*
X128301313Y-77636823D01*
X128284883Y-77470000D01*
X128301313Y-77303177D01*
X128349976Y-77142758D01*
X128428995Y-76994924D01*
X128428996Y-76994922D01*
X128535341Y-76865341D01*
X128664922Y-76758996D01*
X128680094Y-76750886D01*
X128812758Y-76679976D01*
X128816856Y-76678733D01*
X128842620Y-76670917D01*
X128973177Y-76631313D01*
X129098196Y-76619000D01*
X129981804Y-76619000D01*
X130106823Y-76631313D01*
G37*
G36*
X137726823Y-76631313D02*
G01*
X137857380Y-76670917D01*
X137883145Y-76678733D01*
X137887242Y-76679976D01*
X138019906Y-76750886D01*
X138035078Y-76758996D01*
X138164659Y-76865341D01*
X138271004Y-76994922D01*
X138271005Y-76994924D01*
X138350024Y-77142758D01*
X138398687Y-77303177D01*
X138415117Y-77470000D01*
X138398687Y-77636823D01*
X138350024Y-77797242D01*
X138279114Y-77929906D01*
X138271004Y-77945078D01*
X138164659Y-78074659D01*
X138035078Y-78181004D01*
X138035076Y-78181005D01*
X137887242Y-78260024D01*
X137726823Y-78308687D01*
X137601804Y-78321000D01*
X136718196Y-78321000D01*
X136593177Y-78308687D01*
X136432758Y-78260024D01*
X136284924Y-78181005D01*
X136284922Y-78181004D01*
X136155341Y-78074659D01*
X136048996Y-77945078D01*
X136040886Y-77929906D01*
X135969976Y-77797242D01*
X135921313Y-77636823D01*
X135904883Y-77470000D01*
X135921313Y-77303177D01*
X135969976Y-77142758D01*
X136048995Y-76994924D01*
X136048996Y-76994922D01*
X136155341Y-76865341D01*
X136284922Y-76758996D01*
X136300094Y-76750886D01*
X136432758Y-76679976D01*
X136436856Y-76678733D01*
X136462620Y-76670917D01*
X136593177Y-76631313D01*
X136718196Y-76619000D01*
X137601804Y-76619000D01*
X137726823Y-76631313D01*
G37*
G36*
X202149059Y-75477860D02*
G01*
X202234718Y-75513341D01*
X202285732Y-75534472D01*
X202408735Y-75616660D01*
X202513340Y-75721265D01*
X202595528Y-75844268D01*
X202652140Y-75980941D01*
X202681000Y-76126033D01*
X202681000Y-76273967D01*
X202652140Y-76419059D01*
X202595528Y-76555732D01*
X202513340Y-76678735D01*
X202408735Y-76783340D01*
X202285732Y-76865528D01*
X202285731Y-76865529D01*
X202285730Y-76865529D01*
X202149059Y-76922140D01*
X202003968Y-76951000D01*
X201856032Y-76951000D01*
X201710941Y-76922140D01*
X201574270Y-76865529D01*
X201574269Y-76865529D01*
X201574268Y-76865528D01*
X201451265Y-76783340D01*
X201346660Y-76678735D01*
X201264472Y-76555732D01*
X201207860Y-76419059D01*
X201179000Y-76273967D01*
X201179000Y-76126033D01*
X201207860Y-75980941D01*
X201264472Y-75844268D01*
X201346660Y-75721265D01*
X201451265Y-75616660D01*
X201574268Y-75534472D01*
X201625283Y-75513341D01*
X201710941Y-75477860D01*
X201856032Y-75449000D01*
X202003968Y-75449000D01*
X202149059Y-75477860D01*
G37*
G36*
X197069059Y-75477860D02*
G01*
X197154718Y-75513341D01*
X197205732Y-75534472D01*
X197328735Y-75616660D01*
X197433340Y-75721265D01*
X197515528Y-75844268D01*
X197572140Y-75980941D01*
X197601000Y-76126033D01*
X197601000Y-76273967D01*
X197572140Y-76419059D01*
X197515528Y-76555732D01*
X197433340Y-76678735D01*
X197328735Y-76783340D01*
X197205732Y-76865528D01*
X197205731Y-76865529D01*
X197205730Y-76865529D01*
X197069059Y-76922140D01*
X196923968Y-76951000D01*
X196776032Y-76951000D01*
X196630941Y-76922140D01*
X196494270Y-76865529D01*
X196494269Y-76865529D01*
X196494268Y-76865528D01*
X196371265Y-76783340D01*
X196266660Y-76678735D01*
X196184472Y-76555732D01*
X196127860Y-76419059D01*
X196099000Y-76273967D01*
X196099000Y-76126033D01*
X196127860Y-75980941D01*
X196184472Y-75844268D01*
X196266660Y-75721265D01*
X196371265Y-75616660D01*
X196494268Y-75534472D01*
X196545283Y-75513341D01*
X196630941Y-75477860D01*
X196776032Y-75449000D01*
X196923968Y-75449000D01*
X197069059Y-75477860D01*
G37*
G36*
X79058433Y-73384893D02*
G01*
X79148657Y-73402839D01*
X79254267Y-73446585D01*
X79403621Y-73508449D01*
X79403622Y-73508450D01*
X79633086Y-73661772D01*
X79828228Y-73856914D01*
X79930675Y-74010237D01*
X79981551Y-74086379D01*
X80018612Y-74175852D01*
X80087161Y-74341343D01*
X80096346Y-74387519D01*
X80141000Y-74612012D01*
X80141000Y-74887988D01*
X80087161Y-75158656D01*
X79981551Y-75413621D01*
X79981550Y-75413622D01*
X79828228Y-75643086D01*
X79633086Y-75838228D01*
X79479763Y-75940675D01*
X79403621Y-75991551D01*
X79254267Y-76053415D01*
X79148657Y-76097161D01*
X79087252Y-76109375D01*
X78877988Y-76151000D01*
X78602012Y-76151000D01*
X78392748Y-76109375D01*
X78331343Y-76097161D01*
X78225733Y-76053415D01*
X78076379Y-75991551D01*
X78000237Y-75940675D01*
X77846914Y-75838228D01*
X77651772Y-75643086D01*
X77498450Y-75413622D01*
X77498449Y-75413621D01*
X77392839Y-75158656D01*
X77339000Y-74887988D01*
X77339000Y-74612012D01*
X77383654Y-74387519D01*
X77392839Y-74341343D01*
X77461388Y-74175852D01*
X77498449Y-74086379D01*
X77549325Y-74010237D01*
X77651772Y-73856914D01*
X77846914Y-73661772D01*
X78076378Y-73508450D01*
X78076379Y-73508449D01*
X78225733Y-73446585D01*
X78331343Y-73402839D01*
X78421567Y-73384893D01*
X78602012Y-73349000D01*
X78877988Y-73349000D01*
X79058433Y-73384893D01*
G37*
G36*
X179318228Y-74111703D02*
G01*
X179473100Y-74175853D01*
X179612481Y-74268985D01*
X179731015Y-74387519D01*
X179824147Y-74526900D01*
X179888297Y-74681772D01*
X179921000Y-74846184D01*
X179921000Y-75013816D01*
X179888297Y-75178228D01*
X179824147Y-75333100D01*
X179731015Y-75472481D01*
X179612481Y-75591015D01*
X179473100Y-75684147D01*
X179318228Y-75748297D01*
X179153816Y-75781000D01*
X178986184Y-75781000D01*
X178821772Y-75748297D01*
X178666900Y-75684147D01*
X178527519Y-75591015D01*
X178408985Y-75472481D01*
X178315853Y-75333100D01*
X178251703Y-75178228D01*
X178219000Y-75013816D01*
X178219000Y-74846184D01*
X178251703Y-74681772D01*
X178315853Y-74526900D01*
X178408985Y-74387519D01*
X178527519Y-74268985D01*
X178666900Y-74175853D01*
X178821772Y-74111703D01*
X178986184Y-74079000D01*
X179153816Y-74079000D01*
X179318228Y-74111703D01*
G37*
G36*
X181858228Y-74111703D02*
G01*
X182013100Y-74175853D01*
X182152481Y-74268985D01*
X182271015Y-74387519D01*
X182364147Y-74526900D01*
X182428297Y-74681772D01*
X182461000Y-74846184D01*
X182461000Y-75013816D01*
X182428297Y-75178228D01*
X182364147Y-75333100D01*
X182271015Y-75472481D01*
X182152481Y-75591015D01*
X182013100Y-75684147D01*
X181858228Y-75748297D01*
X181693816Y-75781000D01*
X181526184Y-75781000D01*
X181361772Y-75748297D01*
X181206900Y-75684147D01*
X181067519Y-75591015D01*
X180948985Y-75472481D01*
X180855853Y-75333100D01*
X180791703Y-75178228D01*
X180759000Y-75013816D01*
X180759000Y-74846184D01*
X180791703Y-74681772D01*
X180855853Y-74526900D01*
X180948985Y-74387519D01*
X181067519Y-74268985D01*
X181206900Y-74175853D01*
X181361772Y-74111703D01*
X181526184Y-74079000D01*
X181693816Y-74079000D01*
X181858228Y-74111703D01*
G37*
G36*
X176778228Y-74111703D02*
G01*
X176933100Y-74175853D01*
X177072481Y-74268985D01*
X177191015Y-74387519D01*
X177284147Y-74526900D01*
X177348297Y-74681772D01*
X177381000Y-74846184D01*
X177381000Y-75013816D01*
X177348297Y-75178228D01*
X177284147Y-75333100D01*
X177191015Y-75472481D01*
X177072481Y-75591015D01*
X176933100Y-75684147D01*
X176778228Y-75748297D01*
X176613816Y-75781000D01*
X176446184Y-75781000D01*
X176281772Y-75748297D01*
X176126900Y-75684147D01*
X175987519Y-75591015D01*
X175868985Y-75472481D01*
X175775853Y-75333100D01*
X175711703Y-75178228D01*
X175679000Y-75013816D01*
X175679000Y-74846184D01*
X175711703Y-74681772D01*
X175775853Y-74526900D01*
X175868985Y-74387519D01*
X175987519Y-74268985D01*
X176126900Y-74175853D01*
X176281772Y-74111703D01*
X176446184Y-74079000D01*
X176613816Y-74079000D01*
X176778228Y-74111703D01*
G37*
G36*
X185001000Y-75781000D02*
G01*
X183299000Y-75781000D01*
X183299000Y-74079000D01*
X185001000Y-74079000D01*
X185001000Y-75781000D01*
G37*
G36*
X130106823Y-74091313D02*
G01*
X130267242Y-74139976D01*
X130394244Y-74207860D01*
X130415078Y-74218996D01*
X130544659Y-74325341D01*
X130651004Y-74454922D01*
X130651005Y-74454924D01*
X130730024Y-74602758D01*
X130778687Y-74763177D01*
X130795117Y-74930000D01*
X130778687Y-75096823D01*
X130730024Y-75257242D01*
X130689477Y-75333100D01*
X130651004Y-75405078D01*
X130544659Y-75534659D01*
X130415078Y-75641004D01*
X130415076Y-75641005D01*
X130267242Y-75720024D01*
X130267239Y-75720025D01*
X130254682Y-75723834D01*
X130106823Y-75768687D01*
X129981804Y-75781000D01*
X129098196Y-75781000D01*
X128973177Y-75768687D01*
X128825318Y-75723834D01*
X128812761Y-75720025D01*
X128812758Y-75720024D01*
X128664924Y-75641005D01*
X128664922Y-75641004D01*
X128535341Y-75534659D01*
X128428996Y-75405078D01*
X128390523Y-75333100D01*
X128349976Y-75257242D01*
X128301313Y-75096823D01*
X128284883Y-74930000D01*
X128301313Y-74763177D01*
X128349976Y-74602758D01*
X128428995Y-74454924D01*
X128428996Y-74454922D01*
X128535341Y-74325341D01*
X128664922Y-74218996D01*
X128685756Y-74207860D01*
X128812758Y-74139976D01*
X128973177Y-74091313D01*
X129098196Y-74079000D01*
X129981804Y-74079000D01*
X130106823Y-74091313D01*
G37*
G36*
X137726823Y-74091313D02*
G01*
X137887242Y-74139976D01*
X138014244Y-74207860D01*
X138035078Y-74218996D01*
X138164659Y-74325341D01*
X138271004Y-74454922D01*
X138271005Y-74454924D01*
X138350024Y-74602758D01*
X138398687Y-74763177D01*
X138415117Y-74930000D01*
X138398687Y-75096823D01*
X138350024Y-75257242D01*
X138309477Y-75333100D01*
X138271004Y-75405078D01*
X138164659Y-75534659D01*
X138035078Y-75641004D01*
X138035076Y-75641005D01*
X137887242Y-75720024D01*
X137887239Y-75720025D01*
X137874682Y-75723834D01*
X137726823Y-75768687D01*
X137601804Y-75781000D01*
X136718196Y-75781000D01*
X136593177Y-75768687D01*
X136445318Y-75723834D01*
X136432761Y-75720025D01*
X136432758Y-75720024D01*
X136284924Y-75641005D01*
X136284922Y-75641004D01*
X136155341Y-75534659D01*
X136048996Y-75405078D01*
X136010523Y-75333100D01*
X135969976Y-75257242D01*
X135921313Y-75096823D01*
X135904883Y-74930000D01*
X135921313Y-74763177D01*
X135969976Y-74602758D01*
X136048995Y-74454924D01*
X136048996Y-74454922D01*
X136155341Y-74325341D01*
X136284922Y-74218996D01*
X136305756Y-74207860D01*
X136432758Y-74139976D01*
X136593177Y-74091313D01*
X136718196Y-74079000D01*
X137601804Y-74079000D01*
X137726823Y-74091313D01*
G37*
G36*
X152619059Y-74207860D02*
G01*
X152755732Y-74264472D01*
X152878735Y-74346660D01*
X152983340Y-74451265D01*
X153065528Y-74574268D01*
X153122140Y-74710941D01*
X153151000Y-74856033D01*
X153151000Y-75003967D01*
X153122140Y-75149059D01*
X153065528Y-75285732D01*
X152983340Y-75408735D01*
X152878735Y-75513340D01*
X152755732Y-75595528D01*
X152755731Y-75595529D01*
X152755730Y-75595529D01*
X152619059Y-75652140D01*
X152473968Y-75681000D01*
X152326032Y-75681000D01*
X152180941Y-75652140D01*
X152044270Y-75595529D01*
X152044269Y-75595529D01*
X152044268Y-75595528D01*
X151921265Y-75513340D01*
X151816660Y-75408735D01*
X151734472Y-75285732D01*
X151677860Y-75149059D01*
X151649000Y-75003967D01*
X151649000Y-74856033D01*
X151677860Y-74710941D01*
X151734472Y-74574268D01*
X151816660Y-74451265D01*
X151921265Y-74346660D01*
X152044268Y-74264472D01*
X152180941Y-74207860D01*
X152326032Y-74179000D01*
X152473968Y-74179000D01*
X152619059Y-74207860D01*
G37*
G36*
X146269059Y-74207860D02*
G01*
X146405732Y-74264472D01*
X146528735Y-74346660D01*
X146633340Y-74451265D01*
X146715528Y-74574268D01*
X146772140Y-74710941D01*
X146801000Y-74856033D01*
X146801000Y-75003967D01*
X146772140Y-75149059D01*
X146715528Y-75285732D01*
X146633340Y-75408735D01*
X146528735Y-75513340D01*
X146405732Y-75595528D01*
X146405731Y-75595529D01*
X146405730Y-75595529D01*
X146269059Y-75652140D01*
X146123968Y-75681000D01*
X145976032Y-75681000D01*
X145830941Y-75652140D01*
X145694270Y-75595529D01*
X145694269Y-75595529D01*
X145694268Y-75595528D01*
X145571265Y-75513340D01*
X145466660Y-75408735D01*
X145384472Y-75285732D01*
X145327860Y-75149059D01*
X145299000Y-75003967D01*
X145299000Y-74856033D01*
X145327860Y-74710941D01*
X145384472Y-74574268D01*
X145466660Y-74451265D01*
X145571265Y-74346660D01*
X145694268Y-74264472D01*
X145830941Y-74207860D01*
X145976032Y-74179000D01*
X146123968Y-74179000D01*
X146269059Y-74207860D01*
G37*
G36*
X111341000Y-73241000D02*
G01*
X109639000Y-73241000D01*
X109639000Y-71539000D01*
X111341000Y-71539000D01*
X111341000Y-73241000D01*
G37*
G36*
X101808228Y-71571703D02*
G01*
X101963100Y-71635853D01*
X102102481Y-71728985D01*
X102221015Y-71847519D01*
X102314147Y-71986900D01*
X102378297Y-72141772D01*
X102411000Y-72306184D01*
X102411000Y-72473816D01*
X102378297Y-72638228D01*
X102314147Y-72793100D01*
X102221015Y-72932481D01*
X102102481Y-73051015D01*
X101963100Y-73144147D01*
X101808228Y-73208297D01*
X101643816Y-73241000D01*
X101476184Y-73241000D01*
X101311772Y-73208297D01*
X101156900Y-73144147D01*
X101017519Y-73051015D01*
X100898985Y-72932481D01*
X100805853Y-72793100D01*
X100741703Y-72638228D01*
X100709000Y-72473816D01*
X100709000Y-72306184D01*
X100741703Y-72141772D01*
X100805853Y-71986900D01*
X100898985Y-71847519D01*
X101017519Y-71728985D01*
X101156900Y-71635853D01*
X101311772Y-71571703D01*
X101476184Y-71539000D01*
X101643816Y-71539000D01*
X101808228Y-71571703D01*
G37*
G36*
X113238228Y-71571703D02*
G01*
X113393100Y-71635853D01*
X113532481Y-71728985D01*
X113651015Y-71847519D01*
X113744147Y-71986900D01*
X113808297Y-72141772D01*
X113841000Y-72306184D01*
X113841000Y-72473816D01*
X113808297Y-72638228D01*
X113744147Y-72793100D01*
X113651015Y-72932481D01*
X113532481Y-73051015D01*
X113393100Y-73144147D01*
X113238228Y-73208297D01*
X113073816Y-73241000D01*
X112906184Y-73241000D01*
X112741772Y-73208297D01*
X112586900Y-73144147D01*
X112447519Y-73051015D01*
X112328985Y-72932481D01*
X112235853Y-72793100D01*
X112171703Y-72638228D01*
X112139000Y-72473816D01*
X112139000Y-72306184D01*
X112171703Y-72141772D01*
X112235853Y-71986900D01*
X112328985Y-71847519D01*
X112447519Y-71728985D01*
X112586900Y-71635853D01*
X112741772Y-71571703D01*
X112906184Y-71539000D01*
X113073816Y-71539000D01*
X113238228Y-71571703D01*
G37*
G36*
X130791000Y-73241000D02*
G01*
X128289000Y-73241000D01*
X128289000Y-71539000D01*
X130791000Y-71539000D01*
X130791000Y-73241000D01*
G37*
G36*
X137726823Y-71551313D02*
G01*
X137887242Y-71599976D01*
X137954361Y-71635852D01*
X138035078Y-71678996D01*
X138164659Y-71785341D01*
X138271004Y-71914922D01*
X138271005Y-71914924D01*
X138350024Y-72062758D01*
X138398687Y-72223177D01*
X138415117Y-72390000D01*
X138398687Y-72556823D01*
X138350024Y-72717242D01*
X138309477Y-72793100D01*
X138271004Y-72865078D01*
X138164659Y-72994659D01*
X138035078Y-73101004D01*
X138035076Y-73101005D01*
X137887242Y-73180024D01*
X137726823Y-73228687D01*
X137601804Y-73241000D01*
X136718196Y-73241000D01*
X136593177Y-73228687D01*
X136432758Y-73180024D01*
X136284924Y-73101005D01*
X136284922Y-73101004D01*
X136155341Y-72994659D01*
X136048996Y-72865078D01*
X136010523Y-72793100D01*
X135969976Y-72717242D01*
X135921313Y-72556823D01*
X135904883Y-72390000D01*
X135921313Y-72223177D01*
X135969976Y-72062758D01*
X136048995Y-71914924D01*
X136048996Y-71914922D01*
X136155341Y-71785341D01*
X136284922Y-71678996D01*
X136365639Y-71635852D01*
X136432758Y-71599976D01*
X136593177Y-71551313D01*
X136718196Y-71539000D01*
X137601804Y-71539000D01*
X137726823Y-71551313D01*
G37*
G36*
X99911000Y-73241000D02*
G01*
X98209000Y-73241000D01*
X98209000Y-71539000D01*
X99911000Y-71539000D01*
X99911000Y-73241000D01*
G37*
G36*
X79042585Y-61978802D02*
G01*
X79192410Y-62008604D01*
X79474674Y-62125521D01*
X79728705Y-62295259D01*
X79944741Y-62511295D01*
X80114479Y-62765326D01*
X80231396Y-63047590D01*
X80291000Y-63347240D01*
X80291000Y-63652760D01*
X80231396Y-63952410D01*
X80114479Y-64234674D01*
X79944741Y-64488705D01*
X79728705Y-64704741D01*
X79474674Y-64874479D01*
X79192410Y-64991396D01*
X79042585Y-65021198D01*
X78892761Y-65051000D01*
X78587239Y-65051000D01*
X78437415Y-65021198D01*
X78287590Y-64991396D01*
X78005326Y-64874479D01*
X77751295Y-64704741D01*
X77535259Y-64488705D01*
X77365521Y-64234674D01*
X77248604Y-63952410D01*
X77189000Y-63652760D01*
X77189000Y-63347240D01*
X77248604Y-63047590D01*
X77365521Y-62765326D01*
X77535259Y-62511295D01*
X77751295Y-62295259D01*
X78005326Y-62125521D01*
X78287590Y-62008604D01*
X78437415Y-61978802D01*
X78587239Y-61949000D01*
X78892761Y-61949000D01*
X79042585Y-61978802D01*
G37*
M02*
